<svg version="1.1" xmlns="http://www.w3.org/2000/svg" viewBox="0 0 608.4604134160641 239.26055935275372" width="608.4604134160641" height="239.26055935275372">
  <!-- svg-source:excalidraw -->
  
  <defs>
    <style>
      @font-face {
        font-family: "Virgil";
        src: url("https://excalidraw.com/Virgil.woff2");
      }
      @font-face {
        font-family: "Cascadia";
        src: url("https://excalidraw.com/Cascadia.woff2");
      }
    </style>
  </defs>
  <rect x="0" y="0" width="608.4604134160641" height="239.26055935275372" fill="#ffffff"></rect><g stroke-linecap="round" transform="translate(10 10) rotate(0 294.23020670803203 109.63027967637686)"><path d="M0 0 C0 0, 0 0, 0 0 M0 0 C0 0, 0 0, 0 0 M0.12 6.62 C1.02 5.43, 2.28 3.62, 4.48 0.62 M-0.54 6.08 C0.61 5.15, 2.26 3.71, 4.9 -0.01 M-0.95 11.41 C3.44 6.85, 5.72 4.82, 11.2 0.01 M0.73 12.73 C3.74 8.16, 6.3 4.37, 10.16 0.56 M-0.44 17.69 C4.08 12.92, 12.92 3.15, 17.35 2.2 M-0.77 17.95 C4.83 14.31, 9.16 9.08, 16.61 0.25 M1.76 23.61 C6.36 15.65, 14.52 6.08, 22.23 1.37 M-0.49 23.34 C4.85 17.31, 10.67 11.77, 20.93 -0.28 M-0.38 28.76 C5.3 22.34, 13.51 13.47, 25.68 1.01 M-0.74 30.41 C8.4 19.93, 17.63 10, 26.26 -0.63 M-0.4 36.8 C6.8 27.35, 13.31 19.41, 29.98 1.1 M-0.82 36.06 C6.64 28.12, 15.46 19.46, 31.33 -0.89 M0.67 42.37 C7.38 32.06, 15.16 22.71, 34.98 -1.07 M0.55 42.13 C9.76 30.8, 20.41 20.52, 37.5 0.65 M0.5 48.19 C12.1 34.89, 25.25 19.78, 41.49 -0.14 M-0.32 49.73 C9.21 38.54, 18.99 27.5, 43.38 0.56 M2.24 56.54 C12.38 41.66, 23.27 30.11, 46.26 -1.77 M-0.1 55.09 C19.16 33.28, 37.13 12.43, 48.03 0.35 M1.45 62.17 C19.75 41.8, 38.24 20.75, 53.38 0.05 M0.73 61.66 C17.42 42.61, 32.08 23.55, 53.59 -0.39 M0.91 67.79 C17.15 48.11, 33.82 28.71, 57.24 -0.05 M-0.14 67.92 C16.5 47.5, 31.79 28.89, 58.44 0.06 M0.79 73.17 C16.19 53.7, 33.14 33.5, 61.98 -0.14 M-0.39 73.75 C13.37 56.89, 27.02 42.45, 63.85 0.66 M-1.06 78.19 C14.21 62.59, 30.18 47.46, 68.38 1.92 M0.33 79.81 C20.44 55.86, 39.97 33.2, 69.18 -0.27 M-0.4 84.39 C28.98 52.74, 56.13 22.06, 73.34 -0.75 M-0.54 84.28 C15.82 66.54, 32.81 49.33, 74.46 -0.01 M-1.63 89.83 C23.01 65.53, 45.12 38.23, 80.82 0.77 M-0.37 92.09 C22.66 66.09, 45.1 40.88, 79.62 0.69 M-1.01 98.58 C35.06 59.58, 68.87 20.11, 85.23 -2.01 M-0.32 97.63 C18.67 76.42, 35.69 55.81, 85.09 0.69 M1.58 103.84 C19.99 77.5, 41.87 52.92, 90.44 1.87 M0.12 104.19 C24.29 73.84, 49.71 46.21, 91.01 0.59 M0.8 108.99 C19.11 85.91, 38.84 66.13, 97.15 1.6 M-0.47 110.27 C24.25 80.49, 50.39 51.28, 95.82 -0.24 M0.69 115.13 C37.19 68.54, 80.39 24.5, 101.86 1.42 M0.57 115.41 C20.73 91.43, 42.09 68.08, 101.49 0.49 M1.58 121.93 C32.69 81.46, 68.71 42.8, 104.3 -0.59 M-0.84 122.31 C22.98 94.38, 47.92 66.89, 106.11 -0.96 M-1.12 127.15 C41.05 82.03, 83.3 32.84, 110.38 0.35 M0.47 128.65 C43.92 79.22, 86.37 30.23, 111.1 -0.23 M1.28 135.72 C43.7 85.46, 86.93 32.86, 114.96 -0.75 M-0.68 133.44 C36.66 91.97, 75.87 47.77, 117.16 0.96 M-0.99 138.85 C45.18 87.2, 92.03 31.67, 120.05 -1.59 M-0.33 140.41 C47.57 85.61, 95.39 30.68, 122.75 -0.82 M0.56 147.49 C35.94 110.02, 67.28 67.96, 127.07 -1.49 M-0.41 146.75 C26.45 117.14, 52.58 87.04, 127.51 0.6 M1.52 151.36 C44.05 104.56, 86.26 53.74, 133.5 0.1 M-0.5 152.32 C27.21 121.78, 53.84 90.97, 133.19 -0.15 M-1.66 159.75 C30.67 124.86, 63.08 88.97, 138.26 -1.21 M-1.05 158.44 C33.74 121.47, 66.19 81.34, 138.09 1.01 M1.7 166.12 C36.96 120.26, 77.45 77.52, 142.63 0.66 M0.12 165.01 C43.4 114.77, 85.29 66.41, 142.46 0.17 M-0.48 171.86 C46.69 118.95, 92.68 67.11, 147.08 -0.02 M0.64 171.55 C40.56 123.62, 80.87 76, 148.13 -0.17 M-1.29 177.79 C60.66 107.07, 122.18 33.95, 153.17 0.36 M-0.46 176.36 C51.53 118.67, 100.2 61.36, 153.63 -0.75 M-1.12 182.31 C52.89 125.27, 105.96 65.42, 160.2 0.66 M0.82 182.53 C40.01 138.4, 78.65 92.97, 158.81 -0.21 M-0.91 190.35 C46.48 137.96, 90.32 87.38, 164.1 -1.65 M0.57 190.08 C34.06 149.05, 68.07 108.28, 163.66 0.63 M-0.57 194.65 C53.82 131.58, 110.67 67.05, 170.42 -0.71 M0.58 195.2 C59.78 124.23, 120.65 56.22, 169.12 0.79 M0.72 201.78 C62.13 131.07, 121.59 62.5, 173.52 0.84 M-0.85 201.57 C51.12 142.46, 101.7 85.05, 174.54 -0.23 M-0.3 206.38 C52.16 146.35, 104.65 88.41, 178.97 -1.02 M0.78 206.96 C57.53 139.97, 115.69 73.98, 180.01 -0.51 M1.25 213.77 C47.72 157.01, 94.85 102.92, 186.42 0.07 M-0.56 213.39 C67.56 137.5, 135.32 59.21, 185.62 -0.13 M-1.06 220.42 C46.67 163.93, 92.51 110.72, 189.73 -0.67 M-0.16 219.57 C62.24 149.33, 123.13 77.69, 190.38 -0.34 M4.25 217.95 C72.04 145.57, 136.54 68.55, 197.36 -1.28 M5.97 218.75 C48.7 167.59, 92.74 116.99, 196.26 -0.42 M11.26 219.85 C75.59 147.1, 138.36 72.24, 201.55 1.27 M10.5 219.12 C57.99 166.77, 105.17 111.68, 200.97 0.12 M15.19 219.34 C74.28 149.16, 134.13 79.76, 207.8 -1.77 M15.52 219.79 C87.45 137.23, 157.09 56.27, 206.53 0.1 M20.3 220.75 C93.66 135.53, 168.67 51.53, 213.26 -0.31 M21.13 219.14 C65.3 168.07, 110.71 116.21, 212.06 0.48 M28.08 219.86 C98.87 134.73, 171.54 51.33, 218.1 0.67 M26.63 219.36 C71.71 163.6, 120.06 110.24, 217.87 -0.07 M32.24 221.01 C91.88 147.72, 155.93 77.78, 221.94 -0.22 M31.54 219.1 C101.66 141.45, 170.29 61.69, 222.72 0.2 M37.48 219.72 C101.86 148.04, 165.18 73.92, 229.18 -1.77 M37.4 218.68 C78.19 170.99, 120.05 124.17, 227.91 0.09 M42.48 219.81 C105.95 147.49, 169.49 75.42, 233.46 0.54 M42.85 220.25 C103.94 144.57, 168.19 71.48, 233.06 -0.61 M46.73 218.98 C101.89 158.13, 152.81 100.43, 237.34 -0.63 M48.44 219.57 C89.13 170.94, 130.38 123.58, 238.02 1.1 M51.45 219.94 C114.42 148.63, 175.5 78.45, 243 -0.66 M53.14 219.6 C126.38 134.13, 202.01 47.69, 243.48 -0.44 M57.46 219.01 C108.23 160.81, 159.03 102.56, 247.39 0.45 M59.18 219.29 C110.4 159.7, 162.94 98.25, 249.24 0.75 M63.1 220.24 C110.49 163.87, 160 107.42, 254.5 -0.63 M64.11 219.68 C103.97 171.95, 146.57 123.33, 253.94 -0.14 M68.1 218.03 C119.57 160.71, 170.86 100.12, 258.21 0.62 M68.58 218.72 C143.81 131.74, 220.6 44.57, 259.03 0.87 M74.45 220.19 C119.18 167.83, 162.11 119.51, 264.21 -0.86 M74.41 218.81 C117.38 169.29, 160.96 118.06, 264.67 -0.66 M78.34 218.6 C127.88 163.23, 176.5 109.04, 269.87 0.4 M80.4 218.64 C131.55 157.13, 185.13 94.52, 270.69 0.54 M86.03 218.32 C155.33 136.99, 228 52.48, 277.15 0.02 M84.86 219.29 C137.89 159.83, 191.33 98.2, 275.46 -0.8 M90.71 220.12 C137.41 164.49, 185.12 112.76, 281.49 0.88 M90.44 218.99 C128.39 173.69, 169.49 127.44, 281.42 0.63 M94.43 219.73 C166.32 138.56, 237.11 56.19, 287.66 -1.29 M96.17 219.23 C161.34 142.49, 227.98 67.38, 286.39 0.51 M99.98 220.32 C151.76 155.62, 206.93 97.36, 292.71 -0.77 M100.79 219.57 C167.37 142.7, 233.82 66.97, 290.61 0 M105.77 219.66 C169.27 145.18, 235.22 70.85, 295.84 0.73 M106.75 219.23 C155.35 159.63, 207.26 101.54, 297.08 0.51 M112.73 219.75 C164.89 156.56, 219.08 95.24, 302.24 -0.78 M111.59 219.36 C162.57 164.55, 211.08 107.64, 302.06 0.81 M116.2 219.89 C177.35 149.75, 238.26 81.52, 309.07 0.97 M116.41 218.67 C193.53 132.25, 267.49 46.94, 307.43 -0.67 M121.17 221.06 C188.3 138.95, 256.29 60.14, 312.3 0.7 M121.11 219.46 C192.83 138.67, 262.96 56.72, 312.72 0.23 M128.43 218.3 C203.41 132.64, 279.05 45.42, 319.57 0.12 M127.13 219.46 C187.27 149.31, 249 78.5, 318.41 -0.77 M131.28 218.51 C193.61 151.29, 251.22 84.79, 324.15 1.1 M132.13 219.39 C192.28 150.36, 251.87 80.74, 322.49 0.18 M138.2 219.36 C177.28 170.61, 217.14 125.61, 329.8 0.23 M137.81 219.26 C211.28 134.64, 283.59 50.71, 328.27 -0.63 M142.33 218.89 C204.31 150.89, 263.98 80.91, 333.62 -0.05 M142.76 219.27 C183.52 175.55, 223.07 130.05, 333.41 0.62 M147.79 220.61 C196.45 166.9, 240.68 111.66, 339.02 0.17 M148.01 219.77 C214.77 143.32, 279.96 67.62, 339.29 -0.43 M154.07 219.13 C205.45 161.6, 254.45 103.48, 344.55 0.35 M154.31 219.17 C217.33 144.79, 281.93 69.32, 344.46 0.28 M158.5 220.22 C214.89 159.27, 265.67 96.2, 350.14 0.91 M158.72 219.94 C219.31 150.39, 278.25 81.54, 348.9 0.28 M164.53 220.47 C204.64 172.8, 247.9 124.76, 355.32 -1.5 M163.89 219.01 C221.85 155.21, 279 88.51, 355.27 0.4 M169.2 218.38 C243.77 134.46, 315.21 49.11, 358.81 0.98 M170.1 219.76 C212.35 167.81, 254.98 118.83, 360.55 0.35 M174.5 220.98 C239.76 147.09, 299.67 75.92, 366.35 0.17 M174.12 219.38 C224.5 162.83, 272.57 106.66, 365.41 -0.5 M180.78 218.92 C245.78 143.91, 311.53 67.83, 372.01 -0.47 M180.71 219.46 C248.29 139.81, 317.96 61.25, 370.01 0.77 M186.1 220.09 C250.44 144.65, 313.08 69.22, 375.63 1.23 M184.96 219.26 C236.23 160.13, 286.84 101.69, 376.58 0.11 M191.67 218.73 C261.99 135.37, 333.67 55.14, 382.17 0.79 M191.3 218.82 C234.4 170.58, 277.87 120.81, 380.72 0.92 M195.22 220.04 C251.93 157.71, 305.05 93.7, 386.14 1.13 M195.88 219.77 C267.66 138.52, 338.11 58.42, 387.43 0.52 M202.36 218.29 C248.26 167.95, 294.52 113.24, 391.98 1.29 M201.02 219.38 C253.4 160.12, 304.54 100.93, 391.96 0.08 M208.02 218.43 C280.87 132.71, 353.73 47.38, 398.43 -1.58 M206.64 218.92 C263.12 155.51, 319.03 91.13, 397.29 0.08 M213.84 220.18 C283.02 141.76, 351.87 62.79, 403.95 0.45 M212.7 219.18 C283.51 136.58, 354.1 53.95, 402.51 -0.31 M218.49 218.68 C284.81 138.41, 354.36 59.04, 409.09 1.19 M218.08 219.87 C284.42 143.02, 351.28 66.17, 408.36 -0.15 M223.17 218.54 C273.26 158.52, 326.02 101.68, 412.88 -1.02 M223.08 219.57 C289.64 141.18, 358.31 62.71, 412.98 -0.43 M227.89 219.53 C283.76 153.86, 340.71 87.54, 418.23 -1.31 M228.29 219.68 C294 144.44, 360.08 70.17, 419.04 0.47 M233.94 218.62 C299.41 143.61, 365.12 67.11, 425.33 0.45 M234.07 218.38 C286.19 158.1, 338.44 98.74, 423.5 0.17 M237.25 219.61 C316.29 131.22, 391.82 44.58, 431.02 -1.31 M237.93 219.04 C287.04 164.1, 335.56 108.69, 429.16 -0.2 M242.12 220.99 C302.08 151.48, 361.68 80.99, 434.19 0.76 M243.85 218.98 C305.3 148.85, 366.68 78.25, 434.49 0.36 M248.91 218.82 C293.23 169.86, 337.13 119.47, 441.15 -0.93 M249.43 220.06 C318.65 140.31, 386.49 61.92, 440.69 -0.25 M255.2 220.07 C317.31 146.24, 381.34 72.75, 444.09 -1.35 M254.71 219 C314.25 150.09, 375.61 80.94, 444.44 -0.36 M259.01 219.95 C309.6 160.85, 360.75 103.19, 450.37 -1.7 M260.3 219.46 C317.68 151.13, 377.76 81.97, 451.02 -0.51 M265.72 219.09 C322.44 155.15, 376.7 87.69, 454.99 0.18 M265.44 220.1 C309.99 169.97, 353.55 118.91, 455.1 0.41 M270.94 218.09 C338.64 139.59, 406.12 61.53, 460.95 -0.07 M269.81 219.89 C320.35 163.23, 368.04 107.73, 461.24 -0.8 M276.43 219.65 C342.73 142.26, 412.41 60.9, 466.63 -0.72 M276.09 219.7 C324.93 164.16, 374.72 106.56, 466.27 -0.29 M281.93 220.19 C331.43 164.72, 379.91 107.29, 470.55 -0.13 M281.27 218.62 C341.71 148.73, 402.03 78.29, 471.66 0.11 M286.12 220.92 C360.94 133.21, 431.62 48.62, 477.02 0.17 M286.68 220 C349.81 147.29, 413.44 74.13, 476.58 0.48 M290.45 219.51 C349.27 154.56, 403.74 91.28, 482.33 -0.18 M292.32 218.82 C352.06 150.29, 414.01 79.32, 482.25 0.68 M297.1 218.15 C353.58 155.39, 409.37 90.53, 486.98 0.94 M296.38 219.71 C342.07 170.08, 385.01 119.84, 487.14 0.31 M303.8 218.17 C358.25 153.52, 415.73 90.37, 493.55 1.34 M303.1 219.8 C352.38 162.48, 401.97 105.69, 492.44 0.41 M307.75 219.18 C372.51 145.59, 437.58 69.46, 498.61 1.01 M307.27 219.3 C357.09 163.5, 406.09 107.86, 497.91 -0.33 M312.53 219.63 C367.51 159.66, 419.07 98.67, 502.62 1.34 M312.57 219.29 C355.64 170.6, 398.01 122.85, 502.94 0.57 M316.97 218.95 C361.03 168.15, 402.26 118.27, 507.81 -0.36 M317.61 218.79 C383.51 144.24, 449.27 69.88, 508.36 -0.32 M325.02 218.15 C383.46 147.25, 446.88 75.25, 513.03 0.3 M323.73 218.63 C376.26 159.2, 429.66 97.45, 514.44 -0.3 M328.69 218.95 C402.52 135.49, 474.3 54.8, 520.74 0.39 M328.57 219.95 C401.75 135.47, 475.26 51.01, 519.76 -0.15 M332.9 218.36 C398.67 144.29, 464.07 66.36, 525.79 0.78 M333.86 219.07 C408.7 131.77, 483.9 44.91, 525.24 0.36 M338.4 219.8 C388.25 160.73, 440.84 101.92, 531.38 0.71 M338.99 219.56 C391.99 156.56, 445.07 95.58, 529.93 0.34 M345.63 218.72 C405.41 151.7, 464.93 82.89, 534.94 -0.06 M344.29 219.51 C404.26 150.57, 463.43 82.15, 535.09 0.87 M349.62 219.68 C409.55 152.03, 469.09 82.52, 541 -0.66 M350.62 219.18 C405.84 157.08, 460.84 94.18, 541.47 -0.27 M355.25 219.76 C430.24 131.07, 506.04 41.99, 547.08 0.02 M354.49 219.5 C404.65 164.69, 453.63 108.25, 545.9 0.57 M360.4 218.87 C430.38 139.65, 498.53 61.05, 550.63 0.89 M359.9 219.9 C416.81 155.03, 472.31 90.67, 552.05 0.19 M364.62 219.62 C414.49 161.78, 464.4 105.68, 555.84 0.84 M365.44 219.95 C414.95 164.52, 463.15 108.43, 556.51 0.59 M370.85 218.21 C445.6 130.32, 520.85 44.12, 562.6 -0.71 M370.68 218.57 C434.65 148.09, 496.94 76.14, 562.6 -0.68 M375.87 220 C440.35 144.26, 503.87 70.3, 567.38 1.33 M376.45 219.45 C450.41 131.49, 525.85 44.27, 566.41 0.05 M381.6 220.64 C430.7 164.87, 481.39 107.07, 573.06 0.3 M381.45 219.05 C425.91 169.87, 469.88 118.47, 572.11 -0.13 M385.59 218.7 C457.18 138.94, 529.28 56.81, 577.91 0.96 M387.01 219.47 C459.88 136.58, 532.61 53.94, 578.01 -0.13 M392.33 220.71 C449.44 152.55, 508.24 86.74, 581.75 -0.21 M392.16 219.49 C431.72 175.63, 470.43 129.47, 582.2 0.71 M397.68 220.86 C454.6 154.46, 510.59 89.13, 587.18 1.34 M396.93 219.89 C468.78 136.64, 541.76 52.19, 588.4 0.46 M403.25 218.02 C469.72 142.3, 536.14 67.22, 591.22 2.44 M403.41 219.03 C457.84 156.93, 512.14 95.39, 591.04 2.9 M406.77 219.45 C467.28 152.07, 522.19 85.31, 592.12 7.65 M408.55 219.71 C471.44 144.71, 535 70.98, 591.2 8.57 M413.61 218.77 C475.81 150.44, 535.41 76.94, 592.8 15.88 M414.22 218.6 C455.96 172.36, 496.78 124.38, 592.06 14.89 M417.86 220.85 C458.51 175.04, 498.3 128.57, 591.23 21.22 M418.46 219.32 C479.9 150.91, 538.56 81.85, 590.81 21.41 M423.13 219.3 C468.15 168.9, 514.26 117.91, 590.03 26.24 M424.21 218.67 C466.62 172.01, 507.79 124.01, 590.82 26.14 M429.81 218.93 C485.24 155.28, 540.89 91.36, 591.6 31.61 M428.86 219.84 C492.34 147.42, 556.31 73.95, 592.08 33.4 M433.77 219.42 C471.7 174.86, 510 132.32, 591.35 41.12 M434.54 218.41 C478.72 170.81, 521.82 120.53, 590.26 39.78 M439.34 218.42 C487.72 165.16, 536.36 107.26, 592.12 46.35 M439.21 219.05 C469.95 185, 501.39 148.25, 591.5 44.44 M444.92 217.9 C478.04 181.97, 511.69 142.9, 590.91 52.83 M445.54 219.79 C484.7 171.21, 526.99 124.95, 591.83 50.86 M449.5 220.99 C499.9 162.85, 548.15 106.81, 590.38 57.11 M450.1 218.67 C492.37 169.7, 534.13 121.91, 592 56.51 M454.74 217.61 C500.61 164.99, 548 113.53, 592.16 63.79 M455.74 218.24 C508.73 158.94, 559.82 100.07, 591.81 63.22 M461.78 219.3 C512.15 163.48, 558.36 106.61, 590.91 68.46 M460.69 218.66 C495.85 181.52, 528.86 143.11, 591.7 70.25 M465.38 220.8 C505.05 174.97, 544.59 129.4, 592.16 75.72 M466.02 219 C505.21 173.85, 543.77 131.07, 591.67 75.62 M473.72 219.79 C502.59 180.8, 535.6 147.62, 592.34 80.7 M471.52 220.09 C500.92 184.77, 531.94 148.55, 592.1 82.37 M477.93 219.53 C502.11 188.17, 525.74 161.31, 592.88 88.48 M476.94 219.64 C518.12 172.51, 558.2 126.24, 591.52 88.49 M484.11 219.78 C509.92 190.04, 533.56 160.72, 591.25 94.95 M483.36 219.57 C519.95 175.48, 558.41 131.26, 591.83 94.99 M487.56 217.85 C528.42 171.86, 568.14 126.88, 591.77 102.35 M487.67 220.3 C513.21 189.98, 538.42 160.52, 590.3 99.77 M491.58 220.16 C516.69 193.61, 538.59 169.3, 591.78 104.35 M492.48 218.64 C514.69 197.49, 535.08 172.07, 592.01 105.9 M498.37 219.04 C525.66 187.42, 549.61 159.36, 589.9 113.1 M497.37 219.85 C518.99 196.55, 539.11 171.95, 591.28 113.05 M504.5 219.58 C532.49 183.62, 564.75 150.78, 590.77 116.81 M503.49 218.73 C534.41 183.6, 564.46 148.7, 590.67 118.26 M507.83 220.4 C542.43 184.78, 571.91 147.27, 590.06 122.56 M508.75 219.75 C540.32 183.15, 571.73 148.61, 591.14 125.07 M514.95 220.48 C529.02 203.36, 544.69 183.99, 591.14 129.81 M514.43 220.11 C537.42 193.57, 558.46 168.63, 591.05 130.35 M520.13 219.99 C545.36 189.11, 568.94 160.72, 593.42 137.56 M518.39 219.85 C542.62 192.32, 566.75 165.26, 591.6 135.64 M524.75 219.08 C549.77 188.43, 574.89 159.57, 590.49 141.32 M525.71 218.92 C541.12 201.43, 558.26 183.43, 591.27 143.53 M528.2 218.7 C544.97 202.65, 557.84 185.19, 592.9 148.74 M529.8 219.32 C550.61 194.92, 572.39 170.26, 591.79 149.44 M535.4 219.39 C559.26 191.53, 578.22 169.05, 591.15 156.37 M535.13 218.15 C557.93 194.43, 579.38 168.12, 591.35 155.79 M539.65 218.15 C553.22 202.96, 569.91 188.2, 590.44 161.25 M540.33 219.73 C551.36 205.52, 563.9 192.3, 590.55 161.77 M546.14 219.19 C557.75 203.32, 570.89 189.02, 592.87 165.99 M546.89 218.66 C557.23 207.11, 567.64 193.68, 590.88 167.73 M550.84 218.78 C564.48 204.64, 576.69 191.93, 589.69 173.79 M550.27 219.97 C558.83 210.76, 567.58 199.91, 592.11 172.52 M555.95 220.04 C563.41 209.06, 572.08 201.57, 590.07 178.03 M556.58 218.15 C564.48 209.44, 572.66 202.36, 591.33 178.31 M560.84 217.79 C573.73 205.91, 581.17 197.93, 590.04 185.08 M561.76 219.32 C569.24 210.76, 575.24 202.6, 591.09 185.71 M569.49 217.29 C575.36 208.07, 583.7 198.22, 589.27 191.85 M568.18 218.21 C575.17 212.35, 581.44 202.84, 590.4 192.6 M573.42 219.16 C579 209.3, 587.56 201.64, 591.28 196.86 M571.85 220.4 C580.1 211.57, 585.69 203.81, 592.17 197.46 M579.15 218.07 C582.76 213.94, 586.04 210.29, 589.66 205.32 M579.05 219.27 C582.63 213.75, 588.78 206.46, 591.65 203.76 M583.11 219.56 C584.65 216.97, 587.44 213.75, 591.15 208.98 M583.36 219.91 C586.03 216.9, 588.05 214.04, 592.15 209.68" stroke="#ced4da" stroke-width="0.5" fill="none"></path><path d="M0.3 -0.03 C195.51 0.96, 390.56 2.47, 588.45 0.28 M-0.04 -0.31 C234.6 -1.7, 469.12 -2.11, 588.27 -0.02 M587.1 -1.62 C587.04 57.23, 586.97 114.63, 589.52 220.15 M588.5 0.63 C589.9 84.69, 589.42 167.45, 587.62 219.75 M589.02 218.99 C362.62 218.63, 135.76 218.29, -0.07 218.81 M588.6 219.12 C383.56 220.43, 178.17 220.81, 0.39 219.41 M1.15 220.76 C-0.18 166.24, -0.58 113.22, 0.73 -1.44 M0.08 219.05 C0.87 145.73, 1.29 71.01, -0.46 0.01" stroke="#000000" stroke-width="1" fill="none"></path></g><g transform="translate(20.78330600500476 21.040082727060053) rotate(0 40.82251559038144 9.242833718577003)"><text x="0" y="15.485667437153829" font-family="Cascadia, Segoe UI Emoji" font-size="15.404722864294856px" fill="#000000" text-anchor="start" style="white-space: pre;" direction="ltr">BaseBlock</text></g><g stroke-linecap="round" transform="translate(127.69427071269104 63.52754821626422) rotate(0 45.56729058198158 46.09983666537619)"><path d="M0 0 C0 0, 0 0, 0 0 M0 0 C0 0, 0 0, 0 0 M-0.52 5.86 C1.65 3.86, 2.65 2.2, 4.75 -0.21 M-0.44 6.1 C1.71 4.1, 3.41 2.02, 4.92 -0.01 M-0.64 10.73 C2.57 9.5, 4.89 6.18, 9.37 0.92 M-0.32 12.41 C3.25 9.38, 6.03 5.26, 10.31 0.3 M1.25 18.82 C2.79 12.07, 8.82 7.01, 17.42 0.32 M-0.97 17.85 C6.54 11.28, 11.09 4.31, 16.55 -0.51 M-1.67 23.75 C8.25 14.77, 13 8.53, 21.38 -0.84 M1.18 24.53 C4.46 18.65, 10.08 12.11, 20.76 -0.79 M-1.01 30.9 C6.66 22.97, 13.05 15.08, 28.1 0 M0.6 30.19 C7.74 21.27, 17.02 12.1, 25.62 0.66 M0.2 35.73 C9.43 26.22, 19.72 15.32, 31.49 -0.49 M-0.04 36.09 C11.42 23.68, 22.09 10.42, 32.26 0.7 M-0.47 42.6 C11.32 29.82, 20.19 19.53, 35.13 1.54 M-0.55 42.51 C9.45 31.4, 19.39 20.82, 37.4 0.03 M1.38 49.78 C13.77 31.33, 28.13 17.23, 43.7 -0.08 M-0.77 49.05 C10.44 38.84, 18.71 28.38, 41.92 0.25 M-0.22 53.03 C8.93 42.23, 20.69 31.31, 45.93 -0.7 M-0.58 54.51 C15.9 35.89, 33.74 16.6, 48.11 0.03 M1.28 62.4 C11.72 46.75, 26.29 29.72, 54.02 -2.09 M-0.73 60.93 C12.26 46, 23.78 33.06, 52.28 0.1 M-0.25 65.81 C22.05 41.46, 42.71 19.55, 58.62 0.43 M-0.88 67.5 C21.71 41.64, 42.61 18.14, 57.89 -0.54 M-1.37 74.1 C21.53 46.6, 45.57 18.24, 64.2 0.76 M0.88 72.84 C22.09 47.65, 42.96 22.59, 64.28 0.36 M-0.89 80.1 C19.27 56.55, 40.52 34.04, 68.06 -1.15 M-0.53 78.4 C23.27 52.46, 45.97 24.17, 69.76 0.49 M0.92 84.18 C23.79 57.7, 47.32 27.46, 75.7 -0.47 M-0.21 85.25 C25.36 56.14, 49.52 25.76, 74.28 -0.01 M-0.72 93.09 C26.1 61.72, 49.29 31.94, 79.81 1.27 M0.87 91.23 C23.86 64.63, 45.28 39.15, 78.61 -0.38 M4.3 94.46 C25.44 71.06, 44.48 44.78, 83.68 -0.94 M1.54 94.72 C32.31 60.95, 61.89 25.2, 84.99 -0.19 M7.94 93.94 C36.32 64.29, 62.53 33.41, 88.16 1.17 M8.58 94.07 C31.31 67.29, 56.02 40, 90.25 0.75 M14.25 96.26 C39.82 63.77, 64.3 34.77, 93.09 2.25 M13.18 93.91 C42.37 61.87, 70.53 29.03, 94.56 1.76 M19.37 94.7 C41.4 65.34, 67.11 39.78, 94.89 9.13 M18.17 94.95 C37.64 71.67, 58.61 47.24, 93.16 8.4 M23.87 95.02 C39.94 75.33, 56.29 54.95, 93.96 15.06 M24.57 95.16 C40.16 75.54, 56.35 56.89, 92.95 14.94 M28.17 94.17 C45.38 72.66, 62.79 54.21, 93.68 21.66 M30.22 94.75 C53.72 64.16, 80.59 34.79, 93.83 19.64 M35.51 93.18 C54.33 71.57, 75.89 43.33, 94.52 26.62 M34.96 94.39 C52.85 72.9, 71.44 51.21, 93.93 26.7 M39.32 95.91 C52.07 81.88, 63.27 68.81, 92.24 32.82 M39.3 94.18 C52.39 80.89, 63.71 66.34, 94.04 32.66 M46.23 93.93 C64.23 71.91, 83.42 50.72, 94.12 39.38 M45.52 93.87 C58.37 80.13, 70.99 64.62, 93.09 39.78 M51.47 93.27 C58.72 85.54, 68.55 72.31, 95.73 43.22 M50.39 93.82 C59.25 84.41, 69.7 72.35, 93.13 44.78 M53.83 95.27 C64.92 85.11, 75.8 71.41, 93.88 49.86 M56.29 95.22 C64.08 84.41, 71.26 74.63, 93.47 50.05 M63.04 95.38 C68.88 85.22, 76.06 76.26, 91.38 59.01 M61.87 95.09 C73.37 78.95, 86.55 65.12, 93.7 56.42 M66.8 95.96 C73.09 85.99, 80.72 78.59, 93.29 63.6 M65.22 94.43 C77.54 82.3, 87.73 69.19, 93.13 62.5 M70.14 93.14 C81.27 85.66, 86.48 78.21, 93.1 70.86 M72.5 93.29 C77.32 87.23, 85.16 79.87, 93.21 69.1 M78.38 93.56 C79.68 90.8, 83.56 86.05, 95.55 73.9 M77.13 94.86 C80.92 89.9, 84.78 84.93, 93.54 74.97 M80.87 93.38 C86.16 92.75, 86.02 89.21, 95.26 80.61 M82.42 94.51 C84.25 91.22, 86.86 88.78, 93.11 81.03 M87.91 94.47 C89.96 91.87, 90.69 91.54, 93.15 88.14 M87.11 94.38 C89.04 93.16, 90.67 91.17, 93.58 87.82" stroke="#fd7e14" stroke-width="0.5" fill="none"></path><path d="M1.63 -0.16 C22.04 1.3, 41.73 -1.7, 90 -1.3 M-0.12 0.56 C23.74 0.33, 47.29 0.35, 91.16 -0.11 M92.97 1.81 C92.45 20.58, 90.49 42.31, 91.58 90.33 M91 -0.66 C91.49 27.06, 91.54 53.1, 91.96 92.89 M92.47 91.65 C63.16 92.76, 32.5 91.12, 1.81 92.4 M91.36 92.21 C71.09 91.38, 52.78 90.99, -0.94 91.66 M1.44 93.92 C-0.16 73.54, 1.24 52.73, -1.28 0.62 M-0.33 92.48 C-0.41 72.95, 0.34 53.07, 0.66 -0.64" stroke="#000000" stroke-width="1" fill="none"></path></g><g stroke-linecap="round" transform="translate(122.0298812996765 56.60310339017178) rotate(0 45.56729058198158 46.09983666537619)"><path d="M0.2 -0.25 L89.88 -1.24 L89.9 91.37 L-1.83 92.55" stroke="none" stroke-width="0" fill="#fd7e14"></path><path d="M-0.16 0.84 C30.51 -1.41, 56.08 -1.88, 89.84 -0.89 M0.56 0.47 C33.45 0.85, 66.07 0.14, 91.03 -0.73 M92.94 1.49 C91.53 25.4, 92.37 52.16, 89.27 91.98 M90.48 0.27 C92.33 28.84, 91.72 57.88, 91.82 92.35 M90.59 92.96 C68.02 91.64, 43.54 94.62, 0.2 90.4 M91.14 91.3 C56.99 92.35, 22.52 91.46, -0.54 91.36 M1.72 91.28 C2.04 72.65, 1.17 50.86, 0.62 -1.66 M0.28 91.3 C0.35 69.28, 0.51 47.32, -0.64 0.62" stroke="#000000" stroke-width="1" fill="none"></path></g><g stroke-linecap="round" transform="translate(104.64440010163173 40.91353794825136) rotate(0 45.56729058198158 46.09983666537619)"><path d="M-0.25 -1.25 L89.89 -1.23 L90.3 90.37 L0.36 92.14" stroke="none" stroke-width="0" fill="#fd7e14"></path><path d="M0.84 1.95 C33.12 -0.98, 66.44 -1.23, 90.24 1.15 M0.47 0.86 C33.33 0.37, 65.21 -0.62, 90.4 -0.2 M92.63 -0.31 C91.52 35.26, 92.43 67.59, 90.92 92.39 M91.41 0.4 C91.33 35.42, 91.83 71.95, 91.29 91.71 M91.89 91.93 C54.24 90.03, 21.49 92.15, -1.8 93.68 M90.24 92.13 C71.21 91.74, 50.43 91.67, -0.84 91.37 M-0.92 93.47 C-0.19 72.62, -1.95 52.85, -1.66 -1.06 M-0.9 92.97 C0.16 61.26, 0.97 27.81, 0.62 0.1" stroke="#000000" stroke-width="1" fill="none"></path></g><g transform="translate(108.49558081770328 77.38542282343906) rotate(0 41.592751733596174 9.627951790184397)"><text x="41.59275173359616" y="13.255903580368585" font-family="Virgil, Segoe UI Emoji" font-size="15.404722864294866px" fill="#000000" text-anchor="middle" style="white-space: pre;" direction="ltr">Conv</text></g><g transform="translate(193.82980254071333 124.76516183325248) rotate(0 6.5470072173253016 9.627951790184397)"><text x="0" y="13.255903580368585" font-family="Virgil, Segoe UI Emoji" font-size="15.404722864294849px" fill="#000000" text-anchor="start" style="white-space: pre;" direction="ltr">...</text></g><g transform="translate(76.73377863925725 171.60960006067944) rotate(0 100.90093476113134 18.48566743715378)"><text x="0" y="13.485667437153829" font-family="Virgil, Segoe UI Emoji" font-size="14.55344230480365px" fill="#495057" text-anchor="start" style="white-space: pre;" direction="ltr">in_channels, out_channels,</text><text x="0" y="31.971334874307658" font-family="Virgil, Segoe UI Emoji" font-size="14.55344230480365px" fill="#495057" text-anchor="start" style="white-space: pre;" direction="ltr"> kernel_size, padding, stride</text></g><g stroke-linecap="round"><g transform="translate(224.92174678638662 103.59049322288138) rotate(0 51.471506283441386 0.12038883359332431)"><path d="M-1.02 0.41 C15.81 0.77, 84.37 0.87, 101.84 1.13 M0.64 -0.42 C17.76 -0.36, 86.82 -0.98, 103.96 -0.88" stroke="#000000" stroke-width="1" fill="none"></path></g><g transform="translate(224.92174678638662 103.59049322288138) rotate(0 51.471506283441386 0.12038883359332431)"><path d="M76.48 7.59 C86.66 7.31, 98.48 3.95, 102.16 0.99 M76.19 9.05 C86.09 6.49, 96.53 1.06, 103.87 -1.15" stroke="#000000" stroke-width="1" fill="none"></path></g><g transform="translate(224.92174678638662 103.59049322288138) rotate(0 51.471506283441386 0.12038883359332431)"><path d="M76.43 -12.94 C86.45 -5.62, 98.29 -1.41, 102.16 0.99 M76.14 -11.48 C85.85 -6.63, 96.31 -4.65, 103.87 -1.15" stroke="#000000" stroke-width="1" fill="none"></path></g></g><g transform="translate(256.98916628432187 78.55101674611478) rotate(0 18.87078550876123 9.627951790184397)"><text x="0" y="13.255903580368585" font-family="Virgil, Segoe UI Emoji" font-size="15.404722864294854px" fill="#1864ab" text-anchor="start" style="white-space: pre;" direction="ltr">ReLu</text></g><g stroke-linecap="round" transform="translate(358.25154848012073 70.459697010946) rotate(0 45.56729058198158 46.09983666537619)"><path d="M0 0 C0 0, 0 0, 0 0 M0 0 C0 0, 0 0, 0 0 M0.39 6.2 C2.04 4.19, 4.27 1.29, 5.58 0.93 M-0.36 6.43 C1.05 4.7, 2.33 3.69, 4.66 0.28 M0.61 11.52 C3.38 7.48, 8.07 4.77, 11.04 -0.8 M0.45 11.4 C2.86 9.56, 5.55 5.76, 9.98 0.56 M-0.77 18.72 C7.88 11.32, 13.11 3.62, 16.85 1.27 M-0.23 17.78 C4.24 14.16, 7.33 11.31, 14.78 -0.4 M0.56 24.4 C7.87 18.52, 14.09 10.64, 20.05 -1.4 M0.01 23.45 C7.59 14.32, 15.66 6.51, 20.3 -0.64 M0.99 31.8 C7.61 20.39, 17.03 12.28, 27.06 -0.4 M0.76 30.51 C6.32 22.42, 12.95 15.43, 27.15 0.11 M-1.27 38.08 C10.41 27.19, 18.32 18.63, 30.14 -0.44 M-0.05 37.26 C6.98 29.85, 13.67 20.87, 31.02 0.89 M-1.23 42.62 C9.61 33.69, 15.95 26.64, 34.99 -1.27 M0.02 41.72 C14.02 26.6, 25.87 11.12, 36.33 0.15 M-0.21 49.5 C9.13 37.39, 18.99 26.15, 40.92 -1.54 M-0.95 48.29 C12.47 34.57, 24.87 19, 41.59 -0.92 M1.47 56.39 C10.86 39.01, 25.23 27.39, 48.29 -0.62 M-0.53 53.88 C11.55 42.11, 21.37 28.23, 47.23 0.07 M0.12 60.76 C20.33 38.92, 35.1 19.5, 54.69 1.61 M-0.13 60.34 C11 48.43, 21.74 35.09, 52.97 0.09 M0.08 68.79 C17.15 44.99, 34.99 24.17, 58.4 -1.05 M-0.26 66.6 C16.6 48.55, 32.06 30.55, 57.64 1.11 M0.55 73.87 C26.09 45.06, 49.45 13.61, 62.53 -0.96 M0.51 73.33 C18.99 51.67, 39.33 27.64, 64.51 -0.52 M0.4 80.97 C21.02 54.31, 43.54 31.39, 70.54 1.57 M-0.22 78.62 C24.11 51.42, 49.12 21.65, 69.18 0.38 M-0.35 85.6 C27.36 54.6, 49.44 26.17, 74.31 -1.52 M0.92 85.07 C20.66 60.86, 42.07 37.47, 74.88 -0.82 M0.99 90.03 C26.4 61.17, 55.72 26.06, 77.71 0.1 M-0.05 91.31 C21.9 66.46, 42.63 40.86, 80.35 -0.1 M1.79 95.15 C27.35 66.85, 53.8 36.79, 84.67 -0.62 M1.86 94.01 C31.08 62.15, 60.74 28.14, 85.15 0.55 M9.75 95 C30.46 72.62, 46.91 48.6, 90.7 -1.91 M7.48 93.65 C29.25 71.25, 49.36 47.8, 89.52 -0.42 M13.68 95.18 C32.48 73.05, 51.75 51.51, 93.06 1.2 M12.58 95.18 C37.25 67.35, 59.31 41.64, 93.75 1.56 M20.22 95.74 C44.47 63.79, 74.26 32.43, 92.86 8.14 M17.84 94.09 C39.02 70.91, 60.85 46.79, 92.66 8.53 M22.73 96.41 C38.94 74.32, 55.61 58.76, 95.13 12.38 M24.05 93.89 C37.71 77.69, 53.05 62.18, 92.89 14.89 M29.38 92.76 C55.45 67.96, 78.68 37.53, 92.46 20.73 M29.48 93.46 C51.57 68.75, 75.62 42.35, 92.81 20.9 M34.67 94.45 C58.14 68.69, 79.15 41.78, 91.74 26.46 M33.68 95.51 C54.23 71.33, 72.99 49.83, 92.56 27 M39.56 93.33 C56.54 74.82, 74.26 52.31, 92.92 31.8 M40.85 93.95 C52.9 80.46, 64.65 64.97, 93.15 32.5 M42.99 93.68 C54.68 82.88, 64.74 71.01, 93.96 40.29 M45.7 94.32 C56.89 80.03, 71.38 63.64, 92.57 39.26 M49.93 92.38 C68.11 73.53, 85.93 56.97, 92.15 43.79 M50.75 95.15 C64.62 77.89, 78.21 61.99, 93.5 44.79 M54.98 93.14 C68.6 78.4, 82.5 64.98, 93.7 50.66 M56.22 94.46 C68.44 80.07, 81.88 66.04, 94.12 51.72 M62.4 94.61 C68.34 86.09, 79.83 76.08, 95.17 56.64 M61.33 95.04 C72.86 81.34, 83.31 68.77, 93.83 56.9 M65.7 92.64 C72.45 87.69, 82.18 79.6, 92.28 61.34 M66.2 94.98 C76.55 81.3, 87.81 69.85, 93.39 63.07 M71.68 92.41 C78.94 86.87, 87.87 76.3, 94.77 70.69 M71.12 94.99 C76.77 87.59, 81.78 82.72, 93.99 69.56 M76 94.67 C79.33 89.02, 83.19 85.82, 93.82 73.83 M76.47 94.83 C80.92 88.97, 83.91 85.49, 93.97 74.38 M83.13 95.63 C86.04 90.33, 90.02 88.34, 93.56 81.33 M82.06 94.66 C86.07 89.35, 90.8 85.49, 92.81 80.78 M87.01 94.5 C89.46 91.38, 91.51 90.17, 93.87 87 M87.09 94.23 C89.1 93.02, 90.38 91.08, 93.23 87.35" stroke="#fd7e14" stroke-width="0.5" fill="none"></path><path d="M-0.37 0.67 C26.02 -0.09, 48.89 -0.3, 92.38 -1.68 M0.35 -0.32 C35.92 -1.4, 71.88 -1.56, 91.45 -0.94 M92.48 -0.67 C90.94 21.98, 89.35 45.38, 90 92.84 M90.22 0.46 C91.6 20.63, 91.42 42.14, 90.67 91.92 M89.2 92.52 C71.36 90.77, 47.21 93.21, -0.7 90.36 M92.06 92.47 C64.62 91.22, 40.04 91.11, 0.54 93.05 M-1.52 91.4 C0.47 59.09, -2.07 22.77, -0.54 -0.49 M0.09 91.75 C-0.6 56.18, 0.25 18.9, 0.75 -0.16" stroke="#000000" stroke-width="1" fill="none"></path></g><g stroke-linecap="round" transform="translate(352.58715906710506 63.53525218484265) rotate(0 45.56729058198158 46.09983666537619)"><path d="M1.09 1.6 L91.55 0.4 L89.22 93.61 L-0.05 91.12" stroke="none" stroke-width="0" fill="#fd7e14"></path><path d="M0.67 1.69 C34.45 0.39, 68.86 1.42, 89.45 1.8 M-0.32 0.37 C25.3 0.46, 51.22 0, 90.2 -0.62 M90.46 -0.07 C91.94 24.73, 93.42 51.65, 91.77 90.8 M91.6 0.05 C90.04 31.7, 90.33 63.19, 90.85 91.51 M91.46 93.49 C56.11 89.53, 25.39 90.62, -1.84 91.87 M91.4 91.54 C66.68 93.66, 42.4 93.58, 0.85 92.96 M-0.8 92.76 C1.98 61.66, 0.34 34.54, -0.49 1.93 M-0.45 91.88 C0.38 62.24, -0.34 31.97, -0.16 -0.09" stroke="#000000" stroke-width="1" fill="none"></path></g><g stroke-linecap="round" transform="translate(335.201677869063 47.845686742923135) rotate(0 45.56729058198158 46.09983666537619)"><path d="M1.6 0.42 L91.54 -1.91 L92.54 92.15 L-1.08 92.86" stroke="none" stroke-width="0" fill="#fd7e14"></path><path d="M1.69 -0.17 C26.74 -0.69, 54.28 -1.99, 92.94 -0.28 M0.37 -0.78 C34.39 -0.63, 67.53 -0.64, 90.51 -0.14 M91.06 0.06 C90.1 36.61, 90.62 70.77, 89.74 93.1 M91.19 -0.6 C90.16 22.42, 89.83 45.19, 90.45 92.84 M92.42 90.33 C57.61 92.92, 26.97 90.51, -0.33 91.5 M90.47 91.9 C71.17 92.03, 50.52 93.3, 0.76 92.3 M0.56 93.77 C-1.28 68.6, 0.16 44.65, 1.93 0.61 M-0.32 92.75 C0.44 62.6, 0.67 33.16, -0.09 0.55" stroke="#000000" stroke-width="1" fill="none"></path></g><g transform="translate(339.05285858513184 84.31757161812993) rotate(0 41.592751733596174 9.627951790184397)"><text x="41.59275173359616" y="13.255903580368585" font-family="Virgil, Segoe UI Emoji" font-size="15.404722864294866px" fill="#000000" text-anchor="middle" style="white-space: pre;" direction="ltr">Conv</text></g><g transform="translate(424.3870803081437 131.6973106279288) rotate(0 6.5470072173253016 9.627951790184397)"><text x="0" y="13.255903580368585" font-family="Virgil, Segoe UI Emoji" font-size="15.404722864294849px" fill="#000000" text-anchor="start" style="white-space: pre;" direction="ltr">...</text></g><g transform="translate(311.675885441088 171.74959007509642) rotate(0 100.90093476113134 18.48566743715378)"><text x="0" y="13.485667437153829" font-family="Virgil, Segoe UI Emoji" font-size="14.55344230480365px" fill="#495057" text-anchor="start" style="white-space: pre;" direction="ltr">in_channels, out_channels,</text><text x="0" y="31.971334874307658" font-family="Virgil, Segoe UI Emoji" font-size="14.55344230480365px" fill="#495057" text-anchor="start" style="white-space: pre;" direction="ltr"> kernel_size, padding, stride</text></g><g stroke-linecap="round"><g transform="translate(457.35138277502347 99.42049943094344) rotate(0 58.35166128384407 -0.18951619225140348)"><path d="M-0.97 -1.15 C18.59 -1.44, 97.76 -0.97, 117.67 -0.99 M0.72 0.86 C20.07 0.64, 96.99 0.41, 116.54 0.17" stroke="#000000" stroke-width="1" fill="none"></path></g><g transform="translate(457.35138277502347 99.42049943094344) rotate(0 58.35166128384407 -0.18951619225140348)"><path d="M86.51 10.05 C96.33 8.28, 104.95 3.04, 114.61 1.15 M89.19 9.66 C96.92 7.27, 104.73 4.68, 117.23 0.32" stroke="#000000" stroke-width="1" fill="none"></path></g><g transform="translate(457.35138277502347 99.42049943094344) rotate(0 58.35166128384407 -0.18951619225140348)"><path d="M86.37 -10.48 C96.37 -5.56, 105.03 -4.12, 114.61 1.15 M89.04 -10.86 C96.62 -7.05, 104.47 -3.43, 117.23 0.32" stroke="#000000" stroke-width="1" fill="none"></path></g></g><g transform="translate(480.8711072377489 73.9295763810901) rotate(0 41.20763366198878 9.627951790184397)"><text x="0" y="13.255903580368585" font-family="Virgil, Segoe UI Emoji" font-size="15.404722864294856px" fill="#1864ab" text-anchor="start" style="white-space: pre;" direction="ltr">MaxPool2d</text></g><g stroke-linecap="round"><g transform="translate(55.18704145455308 101.47910808831693) rotate(0 17.733061478287482 0.36185211038400666)"><path d="M-1.09 0.79 C5.09 1.2, 30.41 1.47, 36.56 1.36 M0.53 0.17 C6.68 0.27, 30.28 -0.79, 36.03 -0.65" stroke="#000000" stroke-width="1" fill="none"></path></g><g transform="translate(55.18704145455308 101.47910808831693) rotate(0 17.733061478287482 0.36185211038400666)"><path d="M20.5 6.91 C23.89 4.34, 26.35 1.15, 35.3 0.96 M19.54 5.41 C22.51 3.97, 27.56 3.3, 36.71 -1.39" stroke="#000000" stroke-width="1" fill="none"></path></g><g transform="translate(55.18704145455308 101.47910808831693) rotate(0 17.733061478287482 0.36185211038400666)"><path d="M20.32 -5.32 C23.64 -4.81, 26.15 -4.91, 35.3 0.96 M19.36 -6.82 C22.48 -5.48, 27.57 -3.37, 36.71 -1.39" stroke="#000000" stroke-width="1" fill="none"></path></g></g></svg>