<svg version="1.1" xmlns="http://www.w3.org/2000/svg" viewBox="0 0 1055.2231643941318 538.3304597254382" width="1055.2231643941318" height="538.3304597254382">
  <!-- svg-source:excalidraw -->
  
  <defs>
    <style>
      @font-face {
        font-family: "Virgil";
        src: url("https://excalidraw.com/Virgil.woff2");
      }
      @font-face {
        font-family: "Cascadia";
        src: url("https://excalidraw.com/Cascadia.woff2");
      }
    </style>
  </defs>
  <rect x="0" y="0" width="1055.2231643941318" height="538.3304597254382" fill="#ffffff"></rect><g stroke-linecap="round" transform="translate(65.35569230598446 69.6691549293646) rotate(0 98.5 24)"><path d="M3.19 2.78 C3.19 2.78, 3.19 2.78, 3.19 2.78 M3.19 2.78 C3.19 2.78, 3.19 2.78, 3.19 2.78 M3.33 14.82 C8.21 11.47, 10.15 5.04, 14.48 1.99 M3.33 14.82 C5.71 12.08, 7.22 9.68, 14.48 1.99 M3.46 26.86 C9.4 22.97, 13.28 16.1, 25.11 1.95 M3.46 26.86 C7.84 21.64, 13.68 14.65, 25.11 1.95 M0.97 41.92 C9.19 32.73, 18.07 22.22, 35.74 1.92 M0.97 41.92 C13.53 28.09, 26.41 12.71, 35.74 1.92 M6.35 47.92 C16.81 36.69, 28.87 22.01, 46.37 1.88 M6.35 47.92 C18.54 33.72, 31.1 19.99, 46.37 1.88 M13.7 51.66 C23.36 40.22, 33.15 27.26, 57 1.85 M13.7 51.66 C26.59 36.66, 38.83 21.32, 57 1.85 M24.33 51.63 C40.33 30.65, 56.69 13.1, 67.63 1.81 M24.33 51.63 C37.67 34.83, 51.74 19.5, 67.63 1.81 M34.96 51.59 C48.76 34.95, 63.83 18.31, 78.26 1.78 M34.96 51.59 C44.49 39.87, 54.68 29.32, 78.26 1.78 M45.59 51.56 C62.23 32.78, 77.99 16.67, 88.23 2.5 M45.59 51.56 C57.43 36.78, 71.47 22.31, 88.23 2.5 M56.22 51.52 C67.47 39.97, 75.95 29.9, 98.86 2.47 M56.22 51.52 C65.99 39.23, 75.95 29.26, 98.86 2.47 M66.85 51.49 C82.54 30.26, 99.54 12.77, 109.5 2.43 M66.85 51.49 C78.59 37.41, 91.73 22.41, 109.5 2.43 M77.48 51.45 C85.69 39.9, 96.36 29.02, 120.13 2.4 M77.48 51.45 C87.66 39.7, 96.31 29.01, 120.13 2.4 M88.11 51.42 C98.77 40.62, 108.81 23.74, 130.76 2.36 M88.11 51.42 C100.32 37.2, 113.71 21.6, 130.76 2.36 M98.09 52.14 C107.64 42.37, 116.51 29.88, 141.39 2.33 M98.09 52.14 C115.15 33.86, 130.38 14.38, 141.39 2.33 M108.72 52.1 C125.69 32.43, 139.08 14.35, 152.02 2.29 M108.72 52.1 C124.01 32.94, 140.6 13.93, 152.02 2.29 M119.35 52.07 C129.5 39.01, 140.21 29.8, 162.65 2.26 M119.35 52.07 C132.41 38.48, 143.93 22.46, 162.65 2.26 M129.98 52.04 C138.07 41.46, 146.85 31.01, 173.28 2.22 M129.98 52.04 C142.44 37.72, 156.7 21.81, 173.28 2.22 M140.61 52 C150.3 38.58, 162.72 26.66, 183.91 2.19 M140.61 52 C149.24 42.65, 158.51 32.18, 183.91 2.19 M151.24 51.97 C167.06 31.95, 182.87 15.99, 193.88 2.91 M151.24 51.97 C163.59 36.88, 176.56 21.91, 193.88 2.91 M161.87 51.93 C176.71 37.52, 189.44 23.3, 199.26 8.91 M161.87 51.93 C170.62 42.51, 177.95 33.99, 199.26 8.91 M172.5 51.9 C183.34 42.17, 191.49 31.13, 199.39 20.95 M172.5 51.9 C181.83 41.74, 192.1 30.31, 199.39 20.95 M185.75 48.84 C190.24 41.74, 194.44 39.89, 199.53 33 M185.75 48.84 C188.36 45.59, 193.42 40.27, 199.53 33" stroke="#ced4da" stroke-width="1" fill="none"></path><path d="M12 0 M12 0 C52.74 -1.23, 91.85 2.16, 185 0 M12 0 C61.82 0.51, 109.35 0.58, 185 0 M185 0 C194.14 0.72, 196.59 2.92, 197 12 M185 0 C192.94 -1.1, 195.93 3.22, 197 12 M197 12 C196.81 16.7, 198.61 22.24, 197 36 M197 12 C197.96 20.94, 196.43 29.37, 197 36 M197 36 C198.46 43.57, 194.99 49.05, 185 48 M197 36 C198.28 43.24, 193.77 47.59, 185 48 M185 48 C145.76 48.8, 109.45 48, 12 48 M185 48 C133.47 48.6, 82.8 48.21, 12 48 M12 48 C4.36 47.71, 1.9 44.03, 0 36 M12 48 C3.74 49.89, -2.26 42.26, 0 36 M0 36 C0.32 30.09, -0.97 26.1, 0 12 M0 36 C0.1 30.99, 0.14 24.41, 0 12 M0 12 C1.61 5.74, 2.33 -0.57, 12 0 M0 12 C1.48 2.13, 3.93 1.27, 12 0" stroke="#5c940d" stroke-width="2" fill="none"></path></g><g transform="translate(70.35569230598446 74.6691549293646) rotate(0 93.5 19)"><text x="93.5" y="15" font-family="Cascadia, Segoe UI Emoji" font-size="16px" fill="#364fc7" text-anchor="middle" style="white-space: pre;" direction="ltr">BaseBlock</text><text x="93.5" y="34" font-family="Cascadia, Segoe UI Emoji" font-size="16px" fill="#364fc7" text-anchor="middle" style="white-space: pre;" direction="ltr">(3,32,4,0,1,3,1,0)</text></g><g stroke-linecap="round" transform="translate(328.38510240823166 69.44759522431377) rotate(0 82 23)"><path d="M0 0 C0 0, 0 0, 0 0 M0 0 C0 0, 0 0, 0 0 M0.25 13.25 C2.01 7.3, 7.78 3.17, 9.93 1.4 M-0.03 12.26 C2.14 9.08, 5.02 5.64, 10.94 -0.18 M-0.47 23.33 C9.42 15.68, 13.69 8.05, 20.54 0.15 M0.15 24.93 C8.62 14.31, 15.63 5.7, 21.74 0.15 M-0.72 35.57 C12.63 22.76, 21.07 11.42, 31.89 -0.34 M-0.37 37.14 C7.77 29.14, 15.11 19.6, 32.59 -0.8 M-0.66 45.56 C15.62 30.21, 30.11 16.69, 41.05 -1.62 M1.28 48.28 C18.2 28.97, 34.56 10.02, 41.71 -0.22 M10.93 46.57 C20.65 39.25, 29.26 26.05, 54.05 -1.29 M11.45 46.8 C22.78 34.09, 34.13 21.11, 53.61 0.07 M24.16 48.55 C37.32 30.62, 50.63 14.45, 64.12 -0.06 M23.23 46.56 C33.97 34.7, 45.44 22.05, 64.5 0.77 M32.03 49.27 C44.76 33.41, 56.97 18.18, 76.14 0.8 M33.28 46.67 C49.47 28.32, 64.41 10.98, 74.49 -0.63 M45.69 47.46 C53.34 37.11, 63.53 22.11, 85.07 0.06 M43 48.23 C59.03 31.01, 72.32 14.15, 84.95 -0.68 M52.86 47.35 C71.14 29.77, 86.83 11.02, 96.4 -0.99 M53.71 47.58 C69.68 29.85, 83.89 11.12, 94.72 0.27 M66.29 45.25 C71.33 38.41, 82.31 27.99, 104.57 -1.87 M65.03 46.51 C73.46 37.48, 83.61 26.8, 105.46 -0.7 M74.19 46.08 C91.44 31.43, 104.94 12.15, 116.76 0.31 M76.08 47.47 C87.25 36.27, 96.74 23.44, 117.21 -0.13 M84.67 45.99 C96.41 35.63, 105.07 22.03, 125.96 0.45 M85.82 47.81 C100.11 31.82, 113.58 16.46, 126.36 0.03 M96.16 48.88 C109.25 29.53, 123.71 13.5, 139.47 0.55 M96.31 46.96 C107.15 35.32, 117.18 21.9, 137.93 1.17 M105.89 48.96 C122.35 29.44, 138.07 14.97, 147.92 -0.77 M106.97 46.7 C116.91 34.74, 127.29 24.29, 147.52 0.22 M116.26 47.32 C129.14 32.28, 144.94 16.27, 157.13 -0.96 M117.9 46.33 C126.86 36.05, 137.18 24.76, 158.94 0.61 M127.34 46.54 C137.77 37.25, 144.85 29.51, 168.51 1.33 M128.14 46.93 C142.3 31.37, 154.04 17.25, 167.47 1.78 M139.29 47.15 C148.92 39.35, 157.42 27.92, 168.25 16.55 M138.94 46.54 C147.21 38.95, 153.16 30.04, 166.93 15.14 M148.77 46.3 C154.58 38.05, 161.35 32.54, 168.05 27.16 M150.07 46.41 C155 40.49, 159.33 36.82, 167.21 27.65 M160.03 46.57 C162.75 46.22, 164.01 43.01, 166.61 38.62 M160.86 46.55 C161.71 45.59, 163.78 43.24, 167.12 39.54" stroke="#ced4da" stroke-width="1" fill="none"></path><path d="M-0.36 -1.04 C61.32 0.51, 127.65 -0.82, 165.87 1.29 M-0.22 -0.25 C41.83 -1.04, 84.36 -0.89, 163.72 -0.76 M162.2 0.07 C164.45 19.35, 163.13 33.3, 165.61 47.44 M164.66 0.79 C164.4 16.9, 164.7 34.39, 163.81 46.02 M163.18 44.55 C104.87 46.39, 47.63 44.64, 1.91 47.45 M164.89 46.42 C102.26 45.47, 40 46.55, 0.13 46.41 M-1.83 46.85 C1.38 31.09, 1.82 19.46, -1.26 0.22 M-0.27 45.53 C-0.5 33.74, -0.07 23.93, -0.83 -0.07" stroke="#1864ab" stroke-width="2" fill="none"></path></g><g transform="translate(333.38510240823166 82.94759522431377) rotate(0 77 9.5)"><text x="77" y="15" font-family="Cascadia, Segoe UI Emoji" font-size="16px" fill="#495057" text-anchor="middle" style="white-space: pre;" direction="ltr">BatchNorm2d(32)</text></g><g stroke-linecap="round" transform="translate(65.35565939712734 166.2586166505016) rotate(0 101 24)"><path d="M3.19 2.78 C3.19 2.78, 3.19 2.78, 3.19 2.78 M3.19 2.78 C3.19 2.78, 3.19 2.78, 3.19 2.78 M3.33 14.82 C8.51 11.41, 11.74 5.77, 14.48 1.99 M3.33 14.82 C6.95 10.55, 9.98 6.08, 14.48 1.99 M3.46 26.86 C12.48 16.94, 21.85 9.54, 25.11 1.95 M3.46 26.86 C11.3 16.59, 21.67 6.7, 25.11 1.95 M0.97 41.92 C13.29 31.22, 23.76 19.22, 35.74 1.92 M0.97 41.92 C9.97 31.62, 17.36 22.96, 35.74 1.92 M6.35 47.92 C19.19 32.78, 33.17 19.92, 46.37 1.88 M6.35 47.92 C15.67 36.4, 26.6 25.06, 46.37 1.88 M13.7 51.66 C25.7 42.18, 33.07 29.04, 57 1.85 M13.7 51.66 C25.14 39.12, 35.76 26.9, 57 1.85 M24.33 51.63 C37.61 37.14, 51.42 20.18, 67.63 1.81 M24.33 51.63 C39.41 33.35, 56.56 14.78, 67.63 1.81 M34.96 51.59 C45.57 39.5, 55.43 30.36, 78.26 1.78 M34.96 51.59 C51.63 34.26, 67.05 14.61, 78.26 1.78 M45.59 51.56 C57.21 40.57, 63.67 28.76, 88.23 2.5 M45.59 51.56 C61.38 31.34, 79.95 13.03, 88.23 2.5 M56.22 51.52 C74.7 34.27, 90.05 12.86, 98.86 2.47 M56.22 51.52 C69.7 35.02, 84.38 20.19, 98.86 2.47 M66.85 51.49 C83.64 33.93, 99.24 11.73, 109.5 2.43 M66.85 51.49 C82.28 33.56, 98.98 14.37, 109.5 2.43 M77.48 51.45 C88.68 40.06, 96.44 26.87, 120.13 2.4 M77.48 51.45 C93.33 33.55, 108.04 15.16, 120.13 2.4 M88.11 51.42 C102.41 36.18, 115.84 16.22, 130.76 2.36 M88.11 51.42 C98.3 39.35, 108.64 29.19, 130.76 2.36 M98.09 52.14 C109.66 39.5, 117.39 28.41, 141.39 2.33 M98.09 52.14 C114.67 31.98, 132.23 13.66, 141.39 2.33 M108.72 52.1 C119.61 37.49, 130.25 25.62, 152.02 2.29 M108.72 52.1 C121.04 36.94, 134 23.52, 152.02 2.29 M119.35 52.07 C129.78 38.4, 137.94 28.81, 162.65 2.26 M119.35 52.07 C127.9 40.18, 137.57 29.68, 162.65 2.26 M129.98 52.04 C143.13 33.1, 160.88 16.79, 173.28 2.22 M129.98 52.04 C145.3 32.82, 162.62 13.68, 173.28 2.22 M140.61 52 C152.1 39.56, 165.47 23.33, 183.91 2.19 M140.61 52 C154.5 35.32, 170.03 18.12, 183.91 2.19 M151.24 51.97 C160.81 39.3, 173.31 27.67, 194.54 2.16 M151.24 51.97 C164.86 37.9, 176.57 22.87, 194.54 2.16 M161.87 51.93 C177.92 34.2, 190.36 19.61, 201.89 5.89 M161.87 51.93 C176.15 35.74, 190.76 19.91, 201.89 5.89 M172.5 51.9 C179.25 40.82, 187.93 33.11, 207.27 11.9 M172.5 51.9 C184.72 38.74, 196.87 23.52, 207.27 11.9 M183.13 51.86 C193.14 43.08, 199.9 31.74, 207.4 23.94 M183.13 51.86 C190.81 43.53, 200.08 34.18, 207.4 23.94" stroke="#ced4da" stroke-width="1" fill="none"></path><path d="M12 0 M12 0 C49.68 -0.09, 90.51 2.16, 190 0 M12 0 C53.45 -1.92, 94.34 -1.12, 190 0 M190 0 C198.48 0.51, 202.69 2.99, 202 12 M190 0 C195.83 -0.27, 201.14 3.58, 202 12 M202 12 C204 19.84, 202.98 31.69, 202 36 M202 12 C202.55 17.27, 201.17 23.72, 202 36 M202 36 C203.45 45.62, 198.39 48.26, 190 48 M202 36 C204.13 44.98, 199.18 46.25, 190 48 M190 48 C152.44 49.17, 117.1 49.78, 12 48 M190 48 C140.21 48.53, 89.99 47.04, 12 48 M12 48 C3.41 46.68, -0.22 45.71, 0 36 M12 48 C3.57 46.14, -2.27 46.11, 0 36 M0 36 C0.14 31.25, 0.61 25.13, 0 12 M0 36 C0.82 27.68, -0.46 17.41, 0 12 M0 12 C-1.22 3.76, 4.75 -0.81, 12 0 M0 12 C-0.15 3.87, 4.32 -1.31, 12 0" stroke="#5c940d" stroke-width="2" fill="none"></path></g><g transform="translate(70.35565939712734 171.2586166505016) rotate(0 96 19)"><text x="96" y="15" font-family="Cascadia, Segoe UI Emoji" font-size="16px" fill="#364fc7" text-anchor="middle" style="white-space: pre;" direction="ltr">BaseBlock</text><text x="96" y="34" font-family="Cascadia, Segoe UI Emoji" font-size="16px" fill="#364fc7" text-anchor="middle" style="white-space: pre;" direction="ltr">(32,64,4,0,1,3,1,0)</text></g><g stroke-linecap="round" transform="translate(335.22838755097087 164.59926897984678) rotate(0 77.5 23)"><path d="M0 0 C0 0, 0 0, 0 0 M0 0 C0 0, 0 0, 0 0 M1.48 12.13 C1.47 8.72, 6.51 7.85, 11.7 -1.39 M0.91 11.48 C2.4 9.23, 6.4 5.41, 10.64 0.16 M-1.28 25.04 C7.2 18.93, 14.6 9.71, 21.57 1.8 M0.09 23.3 C5.05 17.94, 11.08 11.02, 20.68 -0.54 M-2.17 36.07 C10.8 26.44, 19 15.03, 32.02 -1.2 M0.14 36.53 C9.13 26.19, 16.23 16.47, 31.24 0.86 M2.4 46.31 C14.03 32.69, 28.11 17.07, 40.52 0.65 M1.32 46.61 C17.83 29.08, 32.52 11.22, 43.37 -0.26 M11.63 46.34 C21.59 34.51, 30.86 23.47, 53.56 -1.45 M10.89 46.44 C24.09 32.47, 35.9 19.98, 52.24 -1.01 M24.06 46.91 C31.25 33.9, 43.97 23.38, 65.31 0.08 M22.57 46.63 C36.59 31.79, 50.61 15.22, 64.43 0.32 M33.66 46.09 C42.85 37.06, 51.49 23.33, 74.1 -0.21 M33.44 47.26 C42.76 37.02, 53.1 26.25, 74.22 0.41 M45.01 46.39 C58.1 31.17, 75 11.26, 84.87 -0.28 M43.03 46.65 C54.99 32.77, 66.22 19.41, 84.86 0.22 M55.8 47.35 C65.51 33.82, 76.92 19.06, 97.53 -0.02 M54.57 46.62 C68.31 32, 83.33 16.02, 94.87 -0.9 M65.23 48.07 C73.34 34.8, 85.8 26.28, 105.49 -0.68 M65.31 46.7 C77.94 30.84, 92.53 14.64, 107.28 0.12 M76.47 47.77 C86.32 34.39, 99.2 19.81, 115.38 -1.55 M75.8 47.3 C89.57 31.87, 102.54 15.29, 115.29 0.97 M85.07 48.41 C99.64 32.68, 113.25 17.28, 128.15 1.57 M86.12 47.99 C94.85 36.62, 102.72 28.37, 126.18 0.16 M97.42 47.15 C114.71 28.72, 129.16 11.6, 139.53 -0.55 M97.24 46.7 C109.51 32.79, 122.14 17.99, 137.63 -0.18 M107.19 47.03 C116.51 37.3, 125.84 24.67, 149.14 -0.98 M107.23 47.91 C121.9 31.39, 136.21 14.77, 147.64 -0.15 M117.76 45.45 C134.57 27.93, 148.12 11.56, 158.91 0.15 M118.58 47.92 C126.99 36.4, 136.53 27.43, 156.84 2.42 M130.63 48.74 C135.12 39.46, 144.27 30.54, 157.66 15.03 M128.48 47.02 C138.99 34.04, 150.23 21.16, 157.86 13.99 M139.93 48.76 C146.1 41.5, 150.02 34.33, 155.73 28.51 M140.09 46.75 C142.94 42.56, 147.15 39.66, 157.87 27.33 M149.32 46.11 C152.44 43.9, 154.87 41.05, 157.27 37.97 M150.45 46.45 C152.61 43.96, 154.4 40.97, 157.48 39.07" stroke="#ced4da" stroke-width="1" fill="none"></path><path d="M0.66 -0.74 C36.69 0.21, 74.97 0.65, 153.92 0.93 M0.68 0.85 C50.84 -0.19, 100.32 -0.55, 154.84 0.17 M153.63 1.55 C153.35 13.66, 155.55 27.7, 156.85 47.44 M154.22 -0.52 C155.98 17.8, 154.97 36.04, 154.46 46.86 M153.97 46.41 C99.13 47.64, 44.61 45.17, 1.36 46.16 M154.44 46.99 C114.63 45.82, 74.96 45.62, -0.52 46.01 M-1.8 44.58 C1.7 32.73, -0.57 16.13, -1.14 -0.19 M0.98 45.26 C-0.34 34.31, 0.28 22.21, 0.52 0.36" stroke="#1864ab" stroke-width="2" fill="none"></path></g><g transform="translate(340.22838755097087 178.09926897984678) rotate(0 72.5 9.5)"><text x="72.5" y="15" font-family="Cascadia, Segoe UI Emoji" font-size="16px" fill="#495057" text-anchor="middle" style="white-space: pre;" direction="ltr">BatchNorm2d(64)</text></g><g stroke-linecap="round" transform="translate(57.447661042027676 260.075680032498) rotate(0 100 24)"><path d="M3.19 2.78 C3.19 2.78, 3.19 2.78, 3.19 2.78 M3.19 2.78 C3.19 2.78, 3.19 2.78, 3.19 2.78 M3.33 14.82 C6.56 8.7, 10.65 3.78, 14.48 1.99 M3.33 14.82 C5.96 11.6, 10.43 6.51, 14.48 1.99 M3.46 26.86 C10.01 20.44, 14.61 10.81, 25.11 1.95 M3.46 26.86 C10.77 20.19, 16.08 13.48, 25.11 1.95 M0.97 41.92 C7.04 34.34, 15 25.42, 35.74 1.92 M0.97 41.92 C10.96 32.41, 19.31 21.52, 35.74 1.92 M6.35 47.92 C20.35 27.67, 38.76 12.14, 46.37 1.88 M6.35 47.92 C15.47 38.05, 23.99 28.24, 46.37 1.88 M13.7 51.66 C26.88 33.29, 42.52 16.15, 57 1.85 M13.7 51.66 C29.5 33.73, 46.46 13.42, 57 1.85 M24.33 51.63 C42.01 31.8, 60.36 12.32, 67.63 1.81 M24.33 51.63 C36.72 36.01, 49.78 20.61, 67.63 1.81 M34.96 51.59 C49.67 35.08, 63.27 18.16, 78.26 1.78 M34.96 51.59 C46.03 38.61, 57.08 26.31, 78.26 1.78 M45.59 51.56 C60.92 34, 75.27 19.24, 88.23 2.5 M45.59 51.56 C60.7 35.18, 75.45 18.07, 88.23 2.5 M56.22 51.52 C65.99 38.31, 77.17 25.28, 98.86 2.47 M56.22 51.52 C71.09 35.63, 85.04 17.32, 98.86 2.47 M66.85 51.49 C78.66 38.96, 87.04 28.45, 109.5 2.43 M66.85 51.49 C83.25 31.08, 100.03 13.68, 109.5 2.43 M77.48 51.45 C96.02 31.2, 111.34 13.97, 120.13 2.4 M77.48 51.45 C94 32.63, 110.12 12.89, 120.13 2.4 M88.11 51.42 C97.22 40.06, 110.03 29.5, 130.76 2.36 M88.11 51.42 C102.21 34.84, 115.85 18.36, 130.76 2.36 M98.09 52.14 C115.3 33.62, 132.44 12.53, 141.39 2.33 M98.09 52.14 C110.38 38.85, 121.75 24.62, 141.39 2.33 M108.72 52.1 C125.88 32.74, 142.74 13.26, 152.02 2.29 M108.72 52.1 C121.98 37.72, 136.12 20.88, 152.02 2.29 M119.35 52.07 C132.61 35.92, 151.24 18.23, 162.65 2.26 M119.35 52.07 C133 36.42, 146.49 22.25, 162.65 2.26 M129.98 52.04 C141.6 37.46, 153.4 24.94, 173.28 2.22 M129.98 52.04 C140.43 38.34, 153.58 24.77, 173.28 2.22 M140.61 52 C151.58 38.82, 160.27 28.02, 183.91 2.19 M140.61 52 C155.83 35.77, 170.6 18.17, 183.91 2.19 M151.24 51.97 C164.66 39.03, 176.76 21.83, 193.88 2.91 M151.24 51.97 C162.24 37.85, 173.67 25.5, 193.88 2.91 M161.87 51.93 C173.23 38.89, 186.83 24.16, 200.57 7.4 M161.87 51.93 C173.38 39.04, 184.65 26.7, 200.57 7.4 M172.5 51.9 C180.94 44.79, 188.6 36.11, 200.71 19.45 M172.5 51.9 C181.57 40.11, 191.8 29.52, 200.71 19.45 M183.13 51.86 C191.52 46.04, 196.58 36.31, 200.84 31.49 M183.13 51.86 C189.56 43.42, 196.41 35.82, 200.84 31.49" stroke="#ced4da" stroke-width="1" fill="none"></path><path d="M12 0 M12 0 C77.03 -0.65, 142.82 -0.14, 188 0 M12 0 C49.05 0.41, 84.97 0.28, 188 0 M188 0 C197.17 -0.71, 198.35 5.31, 200 12 M188 0 C194.48 -0.16, 199.35 4.28, 200 12 M200 12 C200.02 20.06, 199.05 27.14, 200 36 M200 12 C200.79 22.33, 200.7 31.81, 200 36 M200 36 C200.37 42.55, 195.32 47.49, 188 48 M200 36 C200.17 45.87, 194.82 48.46, 188 48 M188 48 C143.24 46.56, 96.51 44.7, 12 48 M188 48 C127.68 49.2, 66.04 48.61, 12 48 M12 48 C3.47 46.68, -0.46 42.94, 0 36 M12 48 C3.14 47.66, 0.84 42.13, 0 36 M0 36 C-0.22 25.7, -1.36 18.62, 0 12 M0 36 C0.27 30.01, 0.23 26.16, 0 12 M0 12 C-0.38 5.99, 2.75 -1.38, 12 0 M0 12 C-0.73 5.86, 2.62 0.18, 12 0" stroke="#5c940d" stroke-width="2" fill="none"></path></g><g transform="translate(62.447661042027676 265.075680032498) rotate(0 95 19)"><text x="95" y="15" font-family="Cascadia, Segoe UI Emoji" font-size="16px" fill="#364fc7" text-anchor="middle" style="white-space: pre;" direction="ltr">BaseBlock</text><text x="95" y="34" font-family="Cascadia, Segoe UI Emoji" font-size="16px" fill="#364fc7" text-anchor="middle" style="white-space: pre;" direction="ltr">(64,128,4,0,1,3,1,0)</text></g><g stroke-linecap="round" transform="translate(337.04425262574193 256.259650413439) rotate(0 84.5 23)"><path d="M0 0 C0 0, 0 0, 0 0 M0 0 C0 0, 0 0, 0 0 M0.91 11.04 C4.4 8.49, 7.86 3.52, 11.99 0.73 M-0.29 11.7 C4.62 7.19, 7.48 3, 10 0.31 M1.7 22.49 C3.49 17.67, 11.7 14.3, 23.05 -0.3 M-0.38 24.76 C5.4 16.18, 11.39 11.18, 22.13 -0.36 M0.44 37.36 C10.83 25.73, 16.83 14.46, 31.95 -1.83 M0.64 36.33 C8.28 28.7, 16.76 18.77, 32.79 0.51 M-0.17 49.33 C14.22 31.2, 30.54 14.62, 42.09 -0.07 M1.97 48.15 C12.5 34.13, 24.34 20.4, 41.78 -0.1 M11.89 46.18 C23.85 33.75, 36.69 22.37, 51.42 0.77 M12.27 48.19 C22.98 35.54, 32.75 22.79, 53.39 -0.95 M21.67 48.25 C36.22 30.23, 50.42 14.95, 63.21 1.23 M22.9 46.9 C32.6 34.92, 44.39 23.9, 63.48 -1.15 M31.19 47.58 C47.44 31.92, 60.09 15.3, 74.53 1.2 M32.71 47.03 C47.23 30.84, 60.4 14.04, 73.84 -0.03 M42.8 49.02 C56.88 33.02, 69.98 15.28, 86.63 0.44 M43.21 46.41 C56.74 33.04, 69.42 18.72, 85.36 0.15 M53.51 46.82 C63.79 37.66, 71.37 23.83, 97.43 1.14 M53.82 47.14 C67.36 30.99, 80.69 15.93, 96.43 0.37 M63.5 47.17 C76 31.78, 90.98 19.79, 107.92 0.53 M64.15 47.86 C79.22 29.8, 94.8 12.51, 106.12 0.12 M74.53 48.77 C91.25 29.61, 102.21 17.26, 117.97 2.15 M75.26 46.91 C91.19 30.33, 106.2 11.78, 115.88 0.32 M86.39 45.39 C95.55 37.3, 104.32 29.13, 127.34 1.41 M86 46.6 C96.67 34.96, 108.09 22, 127.39 -0.46 M95.3 46.44 C108.62 31.92, 121.78 17.56, 136.27 0.68 M96.23 46.41 C112.36 29.41, 127.81 10.58, 136.94 0.76 M106.42 47.52 C121.93 33.14, 133.49 18.34, 146.46 -1.15 M107.16 47.17 C116.77 36.08, 127.24 23.78, 147.33 -0.45 M116.2 47 C128.56 35.37, 142.33 21.68, 156.88 -1.38 M118.55 46.37 C132.41 31.65, 146 13.6, 159.48 1.08 M128.9 48.56 C144 30.19, 154.81 14.81, 170.22 -0.93 M129.08 46.27 C139.77 34.42, 151.93 20.76, 169.73 -0.72 M138.96 45.78 C144.35 39.42, 152.01 32.81, 170.82 10.32 M139.57 47.2 C150.88 35.13, 161.83 22.31, 169.61 13.17 M151.48 48.67 C158.08 39.13, 163.94 32.78, 169.92 26.59 M149.3 47.76 C157.03 39.81, 163.76 30.65, 169.96 24.63 M160.64 47.79 C162.05 43.18, 164.5 40.04, 169.24 37.67 M161.05 46.31 C162.79 43.79, 165.7 40.62, 168.64 37.53" stroke="#ced4da" stroke-width="1" fill="none"></path><path d="M1.86 0.29 C55.83 -1.68, 110.93 0.72, 167.78 -0.64 M-0.8 -0.59 C63.54 -1.97, 127.84 -1.11, 169.43 -0.68 M168.19 -0.34 C170.18 9.94, 169.91 19.6, 167.99 44.11 M169.98 0.47 C168.88 14.2, 167.98 26.96, 169.3 45.38 M168.11 44.07 C109.27 48.15, 50.01 47.09, 0.26 47.85 M168.02 46.59 C111.36 43.87, 53.48 44.14, 0.64 45.83 M1.25 47.22 C-1.71 29.17, -1.3 13.29, 1.71 -0.37 M-0.72 45.82 C1.41 35.96, 0.81 26.11, 0.03 0.88" stroke="#1864ab" stroke-width="2" fill="none"></path></g><g transform="translate(342.04425262574193 269.759650413439) rotate(0 79.5 9.5)"><text x="79.5" y="15" font-family="Cascadia, Segoe UI Emoji" font-size="16px" fill="#495057" text-anchor="middle" style="white-space: pre;" direction="ltr">BatchNorm2d(128)</text></g><g stroke-linecap="round" transform="translate(58.16658793368617 355.9063547219039) rotate(0 104.5 24)"><path d="M3.19 2.78 C3.19 2.78, 3.19 2.78, 3.19 2.78 M3.19 2.78 C3.19 2.78, 3.19 2.78, 3.19 2.78 M3.33 14.82 C5.96 11.44, 7.84 9.61, 14.48 1.99 M3.33 14.82 C7.54 9.62, 11.35 5.61, 14.48 1.99 M3.46 26.86 C8.43 20.53, 16.12 14.75, 25.11 1.95 M3.46 26.86 C11.63 18.21, 19.47 7.86, 25.11 1.95 M0.97 41.92 C15.28 27.49, 26.23 9.8, 35.74 1.92 M0.97 41.92 C14.21 27.53, 26.39 12.05, 35.74 1.92 M6.35 47.92 C22.1 30.1, 39.59 9.8, 46.37 1.88 M6.35 47.92 C15.34 36.61, 25.14 25.96, 46.37 1.88 M13.7 51.66 C25.91 36.35, 40.58 24.39, 57 1.85 M13.7 51.66 C26.49 36.52, 39.54 20.81, 57 1.85 M24.33 51.63 C38.78 36.56, 53.04 18.43, 67.63 1.81 M24.33 51.63 C33.36 40.79, 42.97 30.05, 67.63 1.81 M34.96 51.59 C51.08 33.28, 66.4 18.98, 78.26 1.78 M34.96 51.59 C45.74 40.87, 55.46 28.99, 78.26 1.78 M45.59 51.56 C55.61 42.13, 64.14 29.74, 88.23 2.5 M45.59 51.56 C57.25 39.22, 67.9 25.52, 88.23 2.5 M56.22 51.52 C72.88 34.65, 86.94 16.4, 98.86 2.47 M56.22 51.52 C67.67 37.84, 79.71 25.17, 98.86 2.47 M66.85 51.49 C76.42 40.69, 83.31 28.83, 109.5 2.43 M66.85 51.49 C77.82 38.7, 89.36 25.57, 109.5 2.43 M77.48 51.45 C92.82 30.67, 109.93 14.7, 120.13 2.4 M77.48 51.45 C88.13 40.05, 98.07 28.02, 120.13 2.4 M88.11 51.42 C99.15 39.6, 109.47 25.15, 130.76 2.36 M88.11 51.42 C98.27 40.09, 108.02 28.3, 130.76 2.36 M98.09 52.14 C111.63 33.58, 127.96 17.75, 141.39 2.33 M98.09 52.14 C108.71 40.55, 120.51 28.04, 141.39 2.33 M108.72 52.1 C118.96 40.82, 127.67 30.2, 152.02 2.29 M108.72 52.1 C121.48 37.03, 136.9 20.7, 152.02 2.29 M119.35 52.07 C130.14 42.96, 136.12 29.88, 162.65 2.26 M119.35 52.07 C129.48 40.94, 140.52 28.4, 162.65 2.26 M129.98 52.04 C141.43 40.51, 150.29 27.26, 173.28 2.22 M129.98 52.04 C138.25 41.64, 146.67 31.89, 173.28 2.22 M140.61 52 C153.2 36.5, 170.29 18.03, 183.91 2.19 M140.61 52 C155.19 36.23, 168.98 20.02, 183.91 2.19 M151.24 51.97 C168.13 33.98, 186.71 14.05, 194.54 2.16 M151.24 51.97 C164.96 37.06, 178.38 20.1, 194.54 2.16 M161.87 51.93 C179.18 33.86, 195.95 11.75, 205.17 2.12 M161.87 51.93 C178.83 33.16, 196.08 13.57, 205.17 2.12 M172.5 51.9 C179.29 42.63, 190.51 32.69, 210.55 8.12 M172.5 51.9 C185.26 35.25, 199.75 19.92, 210.55 8.12 M183.13 51.86 C190.33 43.02, 194.24 36.31, 210.68 20.17 M183.13 51.86 C191.86 41.03, 201.13 30.84, 210.68 20.17 M197.04 48.06 C200.58 43.73, 206.75 36.59, 210.81 32.21 M197.04 48.06 C200.44 43.07, 203.99 39.9, 210.81 32.21" stroke="#ced4da" stroke-width="1" fill="none"></path><path d="M12 0 M12 0 C83.26 0.89, 154.82 -0.46, 197 0 M12 0 C80.84 -1.89, 150.41 -1.78, 197 0 M197 0 C206.05 -0.43, 208.6 3.66, 209 12 M197 0 C203.35 1.41, 209.89 2.56, 209 12 M209 12 C208.51 21.63, 208.18 26.43, 209 36 M209 12 C209.4 19.04, 209.36 25.51, 209 36 M209 36 C208.33 42.83, 203.82 47.09, 197 48 M209 36 C209.56 45.85, 202.85 49.71, 197 48 M197 48 C153.26 48.86, 109.78 48.25, 12 48 M197 48 C128.41 49.38, 59.36 49.2, 12 48 M12 48 C3.28 46.89, -1.1 45.67, 0 36 M12 48 C4.05 50.08, 1.46 41.87, 0 36 M0 36 C-0.22 25.28, 0.23 17.92, 0 12 M0 36 C0.07 30.35, -0.68 25.44, 0 12 M0 12 C1.39 4.9, 3.28 -1.07, 12 0 M0 12 C1.77 4.84, 3.21 -2.19, 12 0" stroke="#5c940d" stroke-width="2" fill="none"></path></g><g transform="translate(63.16658793368617 360.9063547219039) rotate(0 99.5 19)"><text x="99.5" y="15" font-family="Cascadia, Segoe UI Emoji" font-size="16px" fill="#364fc7" text-anchor="middle" style="white-space: pre;" direction="ltr">BaseBlock</text><text x="99.5" y="34" font-family="Cascadia, Segoe UI Emoji" font-size="16px" fill="#364fc7" text-anchor="middle" style="white-space: pre;" direction="ltr">(128,256,4,0,1,3,1,0)</text></g><g stroke-linecap="round" transform="translate(337.01202765499 354.18742783024663) rotate(0 82 24)"><path d="M0 0 C0 0, 0 0, 0 0 M0 0 C0 0, 0 0, 0 0 M0.25 13.34 C1.74 9.64, 4.32 6.48, 9.22 0.81 M0.52 12.08 C3.78 9.18, 6.72 5.17, 10.33 -0.25 M-0.49 23.79 C5.96 16.91, 11.11 11.28, 21.75 -0.49 M-0.5 23.89 C3.92 19.47, 8.34 14.54, 22.13 -0.26 M-0.89 38.5 C11.61 22.49, 24.46 8.47, 32.14 0.19 M0.64 37.2 C9.52 26.39, 17.58 14.82, 31.33 -0.64 M-1.24 49.11 C13.12 32.21, 25.24 16.53, 42.14 -0.09 M0.04 48.8 C11.98 36.67, 20.67 23.63, 43.04 0.36 M11.58 49.93 C20.68 34.69, 33.82 25.37, 53.84 -2.04 M11.77 47.43 C20.59 35.44, 32.03 23.64, 52.94 0.57 M21.8 49.35 C37.12 32.5, 50.02 14.61, 61.79 0.55 M21.32 47.74 C33.16 35.59, 44.38 22.23, 64.46 0.16 M33.46 49.82 C44.6 36.36, 55.53 23.25, 75.65 -0.79 M32.98 48.13 C45.1 33.62, 58.47 18.61, 74.96 -1.11 M43.21 49.65 C59.81 27.77, 77.84 9.37, 84.7 -0.76 M42.26 47.35 C57.9 28.83, 74.33 12.27, 84.96 0.37 M52.81 47.41 C68.55 29.88, 81.27 15.79, 96.42 -1.84 M53.07 48.77 C63.2 36.5, 73.17 25.5, 96.4 -0.58 M63.06 49.13 C78.59 30.76, 93.2 13, 105.05 -1.87 M63.3 48.44 C78.81 30.24, 93.62 13.55, 105.78 0.27 M73 49.73 C86.71 33.62, 99.3 18.21, 117.5 1.15 M74.67 48.33 C84.87 36.33, 93.22 25.02, 115.81 0.64 M86.53 47.97 C98.18 30.28, 113.2 14.96, 128.52 -1.53 M85.01 48.14 C101.32 30.04, 116.73 13.56, 127.17 0.98 M95.57 47.88 C108.72 30.81, 125.88 15.41, 139.35 1.57 M96.07 48.59 C103.08 38.47, 112.69 27.43, 136.87 0.31 M105.99 49.96 C119.5 34.15, 129.75 22.35, 148.89 -0.42 M107.16 49.43 C113.38 38.91, 122.28 28.64, 148.03 -0.55 M118.2 47.59 C127.21 37.2, 134.98 25.18, 159.63 -1.55 M116.27 47.71 C129.84 34.17, 142.17 19.51, 159.47 1.05 M125.65 49.49 C139.99 33.38, 155.92 19.36, 168.19 3.66 M128.36 49.1 C135.38 38.46, 143.82 28.16, 166.97 2.2 M139.42 48.15 C148.08 37.97, 158.41 26.88, 168.68 14.46 M138.57 48.14 C147.23 39.84, 154.62 29.88, 166.2 15.4 M146.83 50.28 C151.11 42.63, 157.23 38.53, 167.5 26.61 M148.39 47.54 C152.56 44.03, 156.61 40.34, 166.22 27.22 M159.68 48.89 C160.71 46.05, 163.84 42.58, 166.71 38.85 M159.11 48.41 C161.68 46.31, 163.45 44.46, 167.8 39.33" stroke="#ced4da" stroke-width="1" fill="none"></path><path d="M-1.11 -1.57 C44.71 0.72, 84.94 -1.17, 164.78 0.79 M0.27 0.21 C35.98 -0.26, 72.85 0.5, 164.4 0.96 M165.06 -0.43 C163.09 13.4, 162.67 30.52, 164.52 49.57 M164.03 0.78 C163.62 17.45, 164.58 35.95, 164.07 48.63 M165.25 49.1 C109.58 48.29, 53.42 47.43, -1.3 49.9 M164.1 48.63 C126.72 46.96, 92.25 48.39, 0.2 47.56 M-0.81 46.57 C-0.32 28.61, 1.76 12.88, 0.12 -1.12 M-0.94 47.51 C0.58 35.69, 1.16 22.25, 0.68 0.59" stroke="#1864ab" stroke-width="2" fill="none"></path></g><g transform="translate(342.01202765499 368.68742783024663) rotate(0 77 9.5)"><text x="77" y="15" font-family="Cascadia, Segoe UI Emoji" font-size="16px" fill="#495057" text-anchor="middle" style="white-space: pre;" direction="ltr">BatchNorm2d(256)</text></g><g stroke-linecap="round" transform="translate(58.8071573967141 451.70987261420123) rotate(0 103.5 24)"><path d="M3.19 2.78 C3.19 2.78, 3.19 2.78, 3.19 2.78 M3.19 2.78 C3.19 2.78, 3.19 2.78, 3.19 2.78 M3.33 14.82 C8.1 9.59, 9.04 6.75, 14.48 1.99 M3.33 14.82 C6.11 12.33, 9.08 9.05, 14.48 1.99 M3.46 26.86 C10.85 17.52, 17.13 8.62, 25.11 1.95 M3.46 26.86 C12.4 16.18, 20.9 8.36, 25.11 1.95 M0.97 41.92 C13.66 28.36, 23.86 12.64, 35.74 1.92 M0.97 41.92 C10.62 29.94, 22.61 18.46, 35.74 1.92 M6.35 47.92 C17.9 34.76, 25.84 24.96, 46.37 1.88 M6.35 47.92 C17.89 32.98, 31.17 17.66, 46.37 1.88 M13.7 51.66 C24.73 36.36, 40.27 22.51, 57 1.85 M13.7 51.66 C26.65 36.99, 39.8 21.08, 57 1.85 M24.33 51.63 C37.02 36.54, 53.58 19.46, 67.63 1.81 M24.33 51.63 C36.96 36.5, 48.62 21.4, 67.63 1.81 M34.96 51.59 C51.76 35.8, 66.21 17.95, 78.26 1.78 M34.96 51.59 C44.63 41.34, 52.65 30.27, 78.26 1.78 M45.59 51.56 C57.77 38.14, 71.3 21.8, 88.23 2.5 M45.59 51.56 C61.5 34.05, 77.15 16.22, 88.23 2.5 M56.22 51.52 C66.51 39.92, 77.82 27.97, 98.86 2.47 M56.22 51.52 C70.82 33.93, 86.18 16.12, 98.86 2.47 M66.85 51.49 C78.62 35.07, 93.62 20.76, 109.5 2.43 M66.85 51.49 C81.5 36.44, 94.17 19.42, 109.5 2.43 M77.48 51.45 C92.63 33.48, 105.23 19.52, 120.13 2.4 M77.48 51.45 C89.14 37.6, 100.25 25.36, 120.13 2.4 M88.11 51.42 C99.73 36.12, 115.29 21.84, 130.76 2.36 M88.11 51.42 C101.16 37.28, 114.56 21.61, 130.76 2.36 M98.09 52.14 C113.67 33.23, 127.35 18.04, 141.39 2.33 M98.09 52.14 C108.18 41.3, 119.18 29.71, 141.39 2.33 M108.72 52.1 C119.26 39.37, 130.2 30.38, 152.02 2.29 M108.72 52.1 C124.13 35.28, 138.56 17.32, 152.02 2.29 M119.35 52.07 C134.14 33.64, 146.74 18.8, 162.65 2.26 M119.35 52.07 C133.25 35.36, 148.91 17.16, 162.65 2.26 M129.98 52.04 C147.58 32.54, 165.75 13.91, 173.28 2.22 M129.98 52.04 C141.31 40.07, 152.14 26.97, 173.28 2.22 M140.61 52 C154.98 34.13, 170.06 17.64, 183.91 2.19 M140.61 52 C153.23 37.29, 165.95 22.17, 183.91 2.19 M151.24 51.97 C166.37 35.41, 183.37 18.13, 194.54 2.16 M151.24 51.97 C165.79 36.24, 181.47 18.74, 194.54 2.16 M161.87 51.93 C173.47 38.04, 185.76 26.35, 203.85 3.63 M161.87 51.93 C173.63 37.04, 186.49 23.23, 203.85 3.63 M172.5 51.9 C187.41 34.82, 199.14 18.85, 209.24 9.63 M172.5 51.9 C182.82 40.9, 192.63 27.88, 209.24 9.63 M183.13 51.86 C189.52 42.31, 196.95 32.89, 209.37 21.67 M183.13 51.86 C189.82 46.34, 195.05 38.8, 209.37 21.67 M196.38 48.81 C199.8 41.93, 207.77 37.52, 209.5 33.72 M196.38 48.81 C199.12 45.75, 202.84 41.4, 209.5 33.72" stroke="#ced4da" stroke-width="1" fill="none"></path><path d="M12 0 M12 0 C80.4 0.64, 147.21 -1.24, 195 0 M12 0 C56.58 -0.32, 100.76 -0.9, 195 0 M195 0 C202.81 -0.13, 208.96 2.99, 207 12 M195 0 C202.3 -0.84, 206.35 5.17, 207 12 M207 12 C209.11 21.27, 208.73 30.56, 207 36 M207 12 C206.93 17.69, 206.13 22.89, 207 36 M207 36 C206.77 44.39, 202.14 48.67, 195 48 M207 36 C208.78 44.4, 204.63 45.93, 195 48 M195 48 C154.04 47.87, 110.18 49.02, 12 48 M195 48 C128.24 46.62, 63.02 48.36, 12 48 M12 48 C2.83 49.29, -0.56 44.07, 0 36 M12 48 C6.07 47.31, 1.4 43.65, 0 36 M0 36 C-1.73 26.38, -1.32 15.71, 0 12 M0 36 C0.95 29.81, 0.78 22.16, 0 12 M0 12 C-1.75 2.89, 2.2 -1.25, 12 0 M0 12 C-0.6 4.3, 1.84 -1.53, 12 0" stroke="#5c940d" stroke-width="2" fill="none"></path></g><g transform="translate(63.8071573967141 456.70987261420123) rotate(0 98.5 19)"><text x="98.5" y="15" font-family="Cascadia, Segoe UI Emoji" font-size="16px" fill="#364fc7" text-anchor="middle" style="white-space: pre;" direction="ltr">BaseBlock</text><text x="98.5" y="34" font-family="Cascadia, Segoe UI Emoji" font-size="16px" fill="#364fc7" text-anchor="middle" style="white-space: pre;" direction="ltr">(256,512,4,0,1,3,1,0)</text></g><g stroke-linecap="round" transform="translate(338.8093119752789 454.11523815590954) rotate(0 84.5 22)"><path d="M0 0 C0 0, 0 0, 0 0 M0 0 C0 0, 0 0, 0 0 M-0.29 12.54 C3.75 7.41, 7.4 4.82, 11.07 0.2 M-0.19 11.9 C3.67 7.18, 8.19 2.86, 11.35 0.45 M0.53 22.55 C6.91 16.75, 11.56 10.93, 19.58 -1.15 M-0.08 23.12 C7.73 16.72, 13.33 7.82, 21.53 -0.09 M-0.42 37.28 C10.21 23.25, 23.08 11.54, 29.93 0.77 M-0.67 36.28 C7.4 28.54, 15.64 18.33, 32.58 0.16 M2.44 46.95 C15.14 31.2, 30.14 12.41, 41.01 1.27 M2.26 46.5 C12.65 36.03, 20.69 23.83, 42.87 0.11 M13.97 45.79 C20.76 36.34, 31 25.03, 51.17 0.43 M12.35 45.48 C28.26 28.26, 44.29 9.75, 52.28 0.34 M23.61 45.71 C35.53 32.81, 47.72 21.06, 62.88 -0.39 M23.77 45.89 C33.32 35.37, 42.75 24.24, 63.61 -0.39 M34.36 45.31 C46.8 31.01, 58.39 17.39, 73.35 -0.15 M34.7 46.2 C45.41 30.86, 57.34 19.06, 74.82 0.05 M45.36 45.43 C56.71 34.25, 66.75 19.44, 87 -1.63 M45.72 45.06 C56 34, 65.75 20.79, 84.2 -0.49 M56.55 45.54 C68.99 28.87, 83.92 11.16, 94.1 -1.04 M55 45.55 C64.96 37.58, 72.73 27.11, 96.62 -1.19 M67.18 46.19 C73.75 37.01, 83.9 26.13, 107.3 0.43 M66.55 46.47 C77.22 34.27, 86.95 20.66, 106.73 0 M75.73 46.22 C88.02 34.67, 99.19 18.25, 115.54 -0.19 M76.75 47.4 C90.16 30.81, 104.4 13.32, 116.55 0.46 M85.08 46.15 C98.84 32.7, 110.59 21.91, 127.25 1.76 M87.22 46.91 C95.24 36.49, 104.21 27.82, 127.3 0.08 M99.18 45.18 C107.35 36.59, 114.26 29.6, 136.94 1.53 M98.08 45.42 C108.39 32.7, 119.18 20.2, 137.67 1.16 M108.19 44.56 C122.61 25.87, 138.39 8.83, 148.42 -1.61 M108.83 45.46 C117.78 35.07, 127.63 24.61, 147.68 -0.41 M120.4 44.85 C132.37 31.75, 148.81 16.1, 160.72 -1.16 M118.86 46.66 C134.12 29.22, 147.84 12.43, 158.22 0.93 M128.81 44.28 C144.09 29.52, 160.94 7.92, 168.59 0.99 M129.71 47.08 C141.95 31.08, 155.5 16.05, 170.31 0.69 M139.67 47.26 C150.22 36.68, 160.32 24.63, 170.64 13.14 M140.26 45.47 C146.45 37.95, 154.13 30.48, 168.78 11.66 M151.07 46.75 C154.53 40.01, 157.45 38.45, 168.67 26.69 M150.98 46.53 C155.34 40.76, 159.75 35.52, 168.34 24.77 M161.39 45.32 C164.12 41.75, 167.52 38.42, 169.33 36.34 M161.19 45.61 C164.05 42.24, 167.5 39.31, 169.03 37.35" stroke="#ced4da" stroke-width="1" fill="none"></path><path d="M0.53 1.03 C37.9 1.73, 74.67 0.12, 167.83 -1.18 M-0.93 0.74 C42.29 -2.2, 86.05 -1.86, 169.35 -0.87 M170.29 0.85 C169.69 14.16, 169.34 26.07, 167.89 42.9 M169.63 -0.93 C169.83 17.69, 169.54 33.75, 168.23 44.21 M169.01 43.82 C115.09 41.19, 62.67 44.26, 0.9 43.28 M168.65 43.05 C128.2 44.86, 86.71 45.47, -0.98 44.32 M-1.65 42.65 C-1.74 32.41, 1.43 22.58, 0.21 -0.39 M-0.9 43.98 C0.62 35.08, -0.28 24.57, 0.7 0.19" stroke="#1864ab" stroke-width="2" fill="none"></path></g><g transform="translate(343.8093119752789 466.61523815590954) rotate(0 79.5 9.5)"><text x="79.5" y="15" font-family="Cascadia, Segoe UI Emoji" font-size="16px" fill="#495057" text-anchor="middle" style="white-space: pre;" direction="ltr">BatchNorm2d(512)</text></g><g stroke-linecap="round" transform="translate(586.4328255515063 78.25793318917113) rotate(0 32.18084582525978 32.556944188486796)"><path d="M0 0 C0 0, 0 0, 0 0 M0 0 C0 0, 0 0, 0 0 M-0.6 6.8 C1 4.22, 2.87 3.42, 4.93 0.6 M-0.42 6.69 C0.85 5.06, 2.67 3.47, 5.33 0.48 M0.82 12.46 C4.63 8.47, 6.84 2.29, 9.29 0.58 M0.8 11.36 C3.77 7.35, 8.89 3.01, 11.15 -0.71 M-0.05 17.86 C4.35 13.89, 9.97 8.41, 14.75 0.72 M-0.34 18.66 C4.73 12.46, 10.86 4.84, 15.87 0.61 M2.24 23.49 C5.84 16.94, 15.06 8.49, 22.73 0.73 M1.11 24.44 C5.24 18.37, 11.24 13.34, 20.67 -0.41 M-0.78 28.55 C10.26 19.73, 21.92 7.36, 27.34 -0.53 M0.65 30.23 C8.82 20, 19.73 8.61, 25.29 -0.12 M-1.71 36.24 C8.51 23.74, 19.58 14.26, 30.79 0.86 M-0.02 36.59 C9.48 25.99, 18.44 15.16, 32.39 -1.08 M1.47 44.52 C8.98 32.1, 19.17 21.48, 36.35 -1.44 M0.52 43.44 C12.91 28.95, 25.93 12.97, 36.66 1.05 M-1.96 50.8 C16.69 29.76, 33.77 11.89, 42.19 -1.62 M-0.45 49.63 C13.94 33.36, 26.43 17.35, 43.25 -0.19 M1.63 55.15 C13.82 40.03, 27.09 23.97, 46.66 -1.3 M0.12 53.95 C14.85 37.79, 29.24 21.71, 46.76 -0.76 M-0.41 60.73 C17.63 39.99, 36.06 17.59, 54.12 0.91 M-0.02 60.4 C17.64 40.46, 36.89 17.94, 53.72 0.1 M-0.57 67.45 C25.17 38.3, 46.23 14.74, 56.28 1.9 M0.66 65.74 C14.96 48.36, 30.41 31.47, 57.52 -0.81 M4.75 65.41 C22.83 46.53, 44.04 23.15, 61.96 0.42 M5.16 65.75 C26.81 43.55, 47.44 19.7, 62.93 -0.36 M13.28 66.92 C32.19 43.7, 49.49 23.59, 68.46 3.83 M12.53 65.07 C26.72 47.24, 44.01 28.36, 67.07 2.45 M15.28 67.85 C36.64 43.24, 56.69 20.82, 66 7.51 M15.97 65.43 C28.4 53.51, 38.49 40.26, 66.5 7.71 M22.75 67.32 C34.82 52.84, 44.36 40.1, 66.96 14.76 M22.75 65.16 C37.13 48.52, 52.91 30.35, 66.13 15.44 M26.79 64.18 C38.75 53.63, 49.37 42.08, 67.19 21.05 M27.14 66.53 C40.33 51.31, 52.63 37.86, 67.18 21.58 M31.37 67.42 C45.34 53.01, 54.34 40.08, 65.83 26.93 M32.89 65.99 C40.06 57.18, 47.57 47.55, 66.68 25.81 M38.67 64.61 C47.52 55.74, 58.04 46.4, 67.95 32.75 M38.19 65.46 C47.89 54.4, 57.11 43.2, 66.73 32.08 M42.85 64.34 C50.64 58.67, 53.43 54.69, 67.7 39.78 M44.16 66.61 C53.04 56.39, 60.18 45.29, 67.34 38.59 M47.44 64.67 C52.97 58.93, 56.82 54.38, 67.62 44.71 M47.79 66.17 C54.5 59.3, 58.99 54.11, 66.33 44.15 M55.02 67.44 C58.72 62.19, 63.45 54.88, 65.8 52.73 M54.44 66.13 C57.77 61.21, 61.54 56.84, 66.26 52.1 M60.16 66.76 C60.55 62.88, 64.46 60.29, 66.62 56.75 M58.97 65.54 C61.39 62.98, 63.93 61.06, 67.32 57.04" stroke="#fd7e14" stroke-width="0.5" fill="none"></path><path d="M-0.36 -0.25 C13.6 -0.37, 29.62 1.26, 64.87 1.83 M0.18 -0.96 C18.5 0.94, 38.17 -0.15, 64.8 0.64 M64.04 -1.7 C65.35 18.73, 64.03 33.57, 62.71 66.41 M64.28 -0.04 C63.97 24.83, 63.29 50.69, 65.01 66.09 M62.76 65.93 C44.34 66.78, 26.39 64.15, -0.5 64.81 M63.59 65.16 C39.83 63.84, 13.19 64.25, -0.71 64.29 M-0.16 65.19 C-2.08 51.22, -1.89 40.17, -1.26 -0.22 M-0.39 65.91 C-1.02 38.32, -1.28 13.83, -0.61 0.67" stroke="#000000" stroke-width="1" fill="none"></path></g><g stroke-linecap="round" transform="translate(582.4324814435677 73.36770406807318) rotate(0 32.18084582525978 32.556944188486796)"><path d="M1.69 1.93 L65.12 -1.41 L63.49 63.95 L1.74 64.52" stroke="none" stroke-width="0" fill="#fd7e14"></path><path d="M-0.25 -0.31 C25.32 1.91, 52.34 0.62, 66.2 -0.15 M-0.96 -0.33 C17.41 0.41, 33.42 0.33, 65 -0.36 M62.66 1.48 C66.54 14.74, 64.18 27.51, 65.65 66.81 M64.32 -0.01 C64.65 14.99, 65.46 31.99, 65.34 65.07 M65.18 64.11 C46.03 64.66, 23.14 64.1, -0.3 66.91 M64.4 65.67 C43.6 63.62, 24.1 63.9, -0.83 64.14 M0.08 63.23 C-1.32 41.91, 0.82 20.83, -0.22 1.94 M0.8 64.53 C-1.36 40.35, -0.01 16.66, 0.67 0.32" stroke="#000000" stroke-width="1" fill="none"></path></g><g stroke-linecap="round" transform="translate(570.1543871595638 62.28731109094497) rotate(0 32.18084582525978 32.556944188486796)"><path d="M1.93 0.76 L62.95 -0.87 L63.2 66.86 L-0.59 63.7" stroke="none" stroke-width="0" fill="#fd7e14"></path><path d="M-0.31 -0.06 C24.21 1.65, 45.33 1.91, 64.21 -0.69 M-0.33 0.3 C13.48 -0.17, 26.35 1.25, 64 -0.76 M65.84 1.53 C64.42 25.14, 62.6 53.22, 66.06 63.93 M64.35 -0.23 C63.63 25.38, 64.96 50.6, 64.32 65.26 M63.36 67.05 C47.78 64.68, 30.57 65.07, 1.8 65.3 M64.92 64.25 C48.13 64.68, 33.17 64.31, -0.97 65.42 M-1.88 64.42 C-1.64 40.81, -1.21 13.4, 1.94 1.35 M-0.58 64.16 C-0.59 41.89, -0.35 18.56, 0.32 0.85" stroke="#000000" stroke-width="1" fill="none"></path></g><g transform="translate(572.8741945320498 88.04473684821369) rotate(0 29.37391962287171 6.799518431220349)"><text x="29.373919622871703" y="8.59903686244058" font-family="Virgil, Segoe UI Emoji" font-size="10.879229489952486px" fill="#000000" text-anchor="middle" style="white-space: pre;" direction="ltr">Conv</text></g><g transform="translate(633.1395163849286 121.50558248646576) rotate(0 4.623672533229808 6.799518431220349)"><text x="0" y="9.59903686244058" font-family="Virgil, Segoe UI Emoji" font-size="10.879229489952467px" fill="#000000" text-anchor="start" style="white-space: pre;" direction="ltr">...</text></g><g transform="translate(655.871656517975 92.1375693582695) rotate(0 55.167517645447276 20.12400014739569)"><text x="0" y="10.416000098263895" font-family="Cascadia, Segoe UI Emoji" font-size="11.102896633045992px" fill="#0b7285" text-anchor="start" style="white-space: pre;" direction="ltr">in_channels=512</text><text x="0" y="23.83200019652779" font-family="Cascadia, Segoe UI Emoji" font-size="11.102896633045992px" fill="#0b7285" text-anchor="start" style="white-space: pre;" direction="ltr">out_channels=1024</text><text x="0" y="37.24800029479169" font-family="Cascadia, Segoe UI Emoji" font-size="11.102896633045992px" fill="#0b7285" text-anchor="start" style="white-space: pre;" direction="ltr">kernel_size=2</text></g><g stroke-linecap="round" transform="translate(568.5891151217392 187.56951227820264) rotate(0 85 18)"><path d="M2.4 2.08 C2.4 2.08, 2.4 2.08, 2.4 2.08 M2.4 2.08 C2.4 2.08, 2.4 2.08, 2.4 2.08 M3.84 12.61 C8 10.06, 9.05 6.53, 12.37 2.8 M3.84 12.61 C5.29 10.74, 7.75 7.97, 12.37 2.8 M3.97 24.65 C11.01 15.27, 17.13 9.05, 23 2.77 M3.97 24.65 C8 19.69, 14.71 12.12, 23 2.77 M5.42 35.19 C15.25 23.8, 24.3 13.16, 33.63 2.73 M5.42 35.19 C14.3 23.87, 24 13.04, 33.63 2.73 M15.39 35.91 C24.43 23.66, 38.76 8.89, 44.26 2.7 M15.39 35.91 C24.67 24.91, 34.61 13.67, 44.26 2.7 M26.02 35.87 C36.37 26.89, 45.51 14.17, 54.89 2.66 M26.02 35.87 C32.87 28.14, 38.73 21.09, 54.89 2.66 M36.65 35.84 C42.13 29.27, 50.03 19.64, 64.86 3.38 M36.65 35.84 C44.05 27.3, 50.42 18.99, 64.86 3.38 M47.28 35.8 C57.35 26.61, 65.94 16.93, 75.49 3.35 M47.28 35.8 C54.34 28.27, 62.36 18.73, 75.49 3.35 M57.91 35.77 C66.81 24.94, 79.73 10.78, 86.12 3.32 M57.91 35.77 C66.27 25.07, 75.19 17.02, 86.12 3.32 M68.54 35.73 C78.65 25.75, 88.18 11.03, 96.75 3.28 M68.54 35.73 C77.03 25.18, 85.02 15.11, 96.75 3.28 M79.17 35.7 C89.12 22.02, 100.95 10.29, 107.38 3.25 M79.17 35.7 C88.85 24.18, 98.6 13.73, 107.38 3.25 M89.8 35.66 C97.77 28.25, 105.88 18.22, 118.01 3.21 M89.8 35.66 C96.69 27.9, 103.79 19.72, 118.01 3.21 M100.43 35.63 C106.71 29.39, 115.23 20.33, 128.64 3.18 M100.43 35.63 C112.73 22.78, 122.28 9.61, 128.64 3.18 M111.06 35.6 C121.08 23.98, 132.35 13.32, 139.27 3.14 M111.06 35.6 C117.28 28.46, 123.05 21.09, 139.27 3.14 M121.69 35.56 C131.48 23.83, 140.78 15.16, 149.9 3.11 M121.69 35.56 C131.33 25.26, 140.6 14.3, 149.9 3.11 M131.67 36.28 C143.83 23.44, 153.69 10.47, 160.53 3.07 M131.67 36.28 C143.78 22.7, 154.51 8.82, 160.53 3.07 M142.3 36.25 C146.79 27.8, 154.46 22.77, 169.85 4.55 M142.3 36.25 C151.34 23.87, 162.87 13.68, 169.85 4.55 M152.93 36.21 C158.94 30.07, 163.94 21.66, 175.23 10.55 M152.93 36.21 C161.99 26.25, 169.82 16.24, 175.23 10.55 M162.25 37.69 C164.91 35.32, 168.98 29.1, 175.37 22.59 M162.25 37.69 C166.91 33.51, 170.5 28.34, 175.37 22.59" stroke="#ced4da" stroke-width="1" fill="none"></path><path d="M9 0 M9 0 C43.24 2.92, 80.87 1.89, 161 0 M9 0 C46.83 0.44, 84.04 0.87, 161 0 M161 0 C166.81 1.88, 169.16 3.59, 170 9 M161 0 C168.36 -1.9, 168.79 1.78, 170 9 M170 9 C168.6 14.9, 170.53 17.54, 170 27 M170 9 C170.47 13.51, 170.21 17.12, 170 27 M170 27 C171.78 31.06, 165.43 34.5, 161 36 M170 27 C168.19 34.72, 167.15 34.22, 161 36 M161 36 C111.65 34.61, 58.56 35.2, 9 36 M161 36 C128.17 37.16, 96.92 37.09, 9 36 M9 36 C3.73 37.15, 0.67 34.35, 0 27 M9 36 C2.01 34.53, -1.12 33.18, 0 27 M0 27 C1.71 21.63, -0.09 14.74, 0 9 M0 27 C0.7 21.78, 0.39 16.52, 0 9 M0 9 C-0.65 1.66, 4.67 -1.23, 9 0 M0 9 C1.47 5.01, 1.59 -0.29, 9 0" stroke="#0b7285" stroke-width="2" fill="none"></path></g><g transform="translate(573.5891151217392 196.06951227820264) rotate(0 80 9.5)"><text x="80" y="15" font-family="Cascadia, Segoe UI Emoji" font-size="16px" fill="#0b7285" text-anchor="middle" style="white-space: pre;" direction="ltr">Flatten</text></g><g stroke-linecap="round" transform="translate(570.5518219773462 256.76842390921047) rotate(0 83 30)"><path d="M0 0 C0 0, 0 0, 0 0 M0 0 C0 0, 0 0, 0 0 M1.17 13.02 C5.21 8.44, 7.85 4.52, 10.46 -0.73 M0.03 12.03 C3.13 8.76, 4.8 7.27, 10.55 0.39 M1.88 25.97 C6.95 16.07, 11.56 8.67, 19.65 -0.84 M-0.68 24.49 C7.92 14.7, 14.35 7.61, 21.72 -0.66 M-1.92 37.89 C6.66 27.28, 15.2 16.7, 32.69 1.1 M0.27 36.17 C10.66 24.45, 23.64 9.45, 31.41 0.49 M0.51 49.82 C8.66 39.41, 20.23 25.78, 42.79 -1 M0.44 47.92 C10.99 35.77, 20.7 23.06, 41.74 0.79 M1.21 59.33 C17.34 40.25, 37.98 18.02, 51.99 -0.75 M0.99 60.48 C12.73 45.56, 24.82 32.47, 53.23 0.42 M12.64 59.24 C29.68 37.93, 47.44 17.11, 65.5 1.16 M11.35 60.59 C27.15 43.01, 41.74 23.4, 64.08 0.1 M21.95 58.64 C34.11 47.73, 43.29 36.12, 76.22 -0.54 M22.37 60.67 C33.84 46.16, 46.96 30.02, 74.42 -0.71 M32.3 60.26 C48.57 40.47, 64.69 23.03, 83.1 0.89 M33.43 59.83 C51.89 37.46, 71.66 14.1, 85.59 -0.53 M43.42 60.33 C53.63 47.3, 67.12 31.71, 95.62 -1.22 M43.85 60.4 C61.54 38.94, 78.91 17.42, 96.45 0.27 M51.39 59.91 C68.39 44.12, 80.66 27.93, 108.24 1.57 M52.6 60.93 C70.82 43.17, 85.48 23.71, 106.65 -1.23 M65.74 62.42 C80.25 44.39, 95.33 23.87, 116.13 0.18 M64.12 60.37 C75.2 47.88, 86.03 34.36, 116.25 0.44 M73.91 60.77 C87.22 44.03, 102.94 27.15, 128.27 1.51 M74.71 60.8 C90.8 40.68, 109.45 20.41, 127.61 1.32 M86.35 58.83 C100.75 42.9, 117.58 24.65, 135.97 -0.46 M84.41 61.68 C97.02 44.4, 110.29 30.15, 137.77 0.81 M96.27 58.84 C110.85 42.07, 125.39 25.11, 149.87 0.89 M96.66 60.76 C115.56 36.37, 136.58 12.45, 148.33 -0.17 M106.09 61.88 C118.25 47.43, 130.53 31.28, 159.77 0.13 M105.56 61.37 C123.14 41.15, 139.1 22.01, 159.08 -0.18 M115.86 62.53 C138.73 38.81, 155.67 15.81, 167.75 1.85 M116.13 60.56 C130.69 42.55, 146.47 26.9, 167.99 1.45 M125.76 61.32 C140.13 44.4, 154.86 26.16, 167.35 13.24 M127.65 60.39 C139.3 47.57, 150.09 36.08, 168.19 12.9 M136.43 59.4 C146.53 50.31, 158.91 38.94, 168.94 26.28 M137.86 60.11 C147.59 49.84, 156.12 40.19, 168.28 26.64 M147.53 59.03 C155.06 52.12, 160.84 46.23, 168.61 39.44 M148.33 61.39 C153.14 55.08, 157.78 50.51, 166.94 38.83 M158.55 61.57 C161.12 57.54, 163.99 56.24, 167.87 51.66 M158.95 60.49 C162.54 57.31, 165.49 54.34, 167.67 50.54" stroke="#ced4da" stroke-width="1" fill="none"></path><path d="M-0.43 -0.73 C59.56 -1.09, 121.46 -1.12, 165.06 1.47 M0.04 0.59 C65.73 0.45, 131.29 1.9, 166.54 -0.03 M165.07 -0.44 C167.6 15.41, 167.12 32.68, 166.99 59.55 M166.13 -0.65 C166.95 18.5, 165.9 37.65, 165.21 59.09 M166.25 61.97 C128.55 58.12, 89.16 58.16, -1.26 58.24 M165.95 60.33 C120.29 60.01, 74.38 60.13, 0.5 59.45 M-1.32 60.95 C1.36 37.07, 2.14 16.06, 0.26 0.44 M0.75 60.42 C-0.47 43.42, -1.14 29.02, 0.88 0.58" stroke="#495057" stroke-width="2" fill="none"></path></g><g transform="translate(575.5518219773462 261.76842390921047) rotate(0 78 25)"><text x="78" y="17" font-family="Virgil, Segoe UI Emoji" font-size="20px" fill="#495057" text-anchor="middle" style="white-space: pre;" direction="ltr">Linear</text><text x="78" y="42" font-family="Virgil, Segoe UI Emoji" font-size="20px" fill="#495057" text-anchor="middle" style="white-space: pre;" direction="ltr">(512,128)</text></g><g stroke-linecap="round" transform="translate(576.0867455792039 364.3652904376668) rotate(0 66 18)"><path d="M2.4 2.08 C2.4 2.08, 2.4 2.08, 2.4 2.08 M2.4 2.08 C2.4 2.08, 2.4 2.08, 2.4 2.08 M3.84 12.61 C4.54 10.41, 6.52 9.03, 12.37 2.8 M3.84 12.61 C5.57 9.84, 8.3 7.52, 12.37 2.8 M3.97 24.65 C8.48 18.6, 13.18 12.7, 23 2.77 M3.97 24.65 C10.55 17.92, 16.12 11.18, 23 2.77 M5.42 35.19 C14.54 26.26, 22.8 15.46, 33.63 2.73 M5.42 35.19 C16.22 23.17, 26.97 9.43, 33.63 2.73 M15.39 35.91 C22.07 25.55, 31 18.11, 44.26 2.7 M15.39 35.91 C26.03 22.05, 37.32 10.09, 44.26 2.7 M26.02 35.87 C33.51 25.71, 44.68 13.13, 54.23 3.42 M26.02 35.87 C33.86 27.36, 42.97 18.04, 54.23 3.42 M36.65 35.84 C46.9 22.56, 56.99 11.1, 64.86 3.38 M36.65 35.84 C44.92 25.76, 54.63 15.45, 64.86 3.38 M47.28 35.8 C56.14 24.23, 68.93 11.85, 75.49 3.35 M47.28 35.8 C55.54 26.39, 65.29 14.81, 75.49 3.35 M57.91 35.77 C64.06 29.65, 71.82 21.91, 86.12 3.32 M57.91 35.77 C65.35 26.98, 72.25 19.34, 86.12 3.32 M68.54 35.73 C78.83 24.1, 85.85 13.83, 96.75 3.28 M68.54 35.73 C75.32 27.31, 82.88 20.24, 96.75 3.28 M79.17 35.7 C83.88 28.79, 90.17 20.25, 107.38 3.25 M79.17 35.7 C86.75 28.02, 93.71 19.09, 107.38 3.25 M89.8 35.66 C102.75 22.56, 110.36 10.81, 118.01 3.21 M89.8 35.66 C98.54 24.19, 109.35 14.44, 118.01 3.21 M100.43 35.63 C111.64 22.69, 122.41 8.46, 129.3 2.42 M100.43 35.63 C108.31 26.73, 115.76 18.68, 129.3 2.42 M110.41 36.35 C117.54 25.23, 126.86 16.24, 134.68 8.43 M110.41 36.35 C116.55 28.7, 121.69 22.37, 134.68 8.43 M121.04 36.32 C122.82 33.69, 126.58 26.54, 134.82 20.47 M121.04 36.32 C124.82 30.38, 130.89 25.55, 134.82 20.47" stroke="#ced4da" stroke-width="1" fill="none"></path><path d="M9 0 M9 0 C39.68 0.79, 71.08 -0.22, 123 0 M9 0 C44.76 -0.1, 80.25 0.12, 123 0 M123 0 C128.01 -0.28, 132.93 2.85, 132 9 M123 0 C130.33 -1.36, 130.45 4.15, 132 9 M132 9 C132.36 16.75, 130.98 21.92, 132 27 M132 9 C131.89 15.96, 131.56 22.86, 132 27 M132 27 C133.34 33.1, 129.32 37.35, 123 36 M132 27 C132.26 31.24, 127.11 34.25, 123 36 M123 36 C76.68 34.94, 35.75 35.03, 9 36 M123 36 C96.63 35.97, 72.47 36.96, 9 36 M9 36 C2.19 35.89, 1.87 31.13, 0 27 M9 36 C4.87 37.6, 1.47 32.05, 0 27 M0 27 C0.17 18.97, -0.5 13.27, 0 9 M0 27 C-0.5 21.89, 0.29 15.99, 0 9 M0 9 C-0.52 4.89, 1.59 -1.89, 9 0 M0 9 C1.76 3.68, 5.06 -1.06, 9 0" stroke="#862e9c" stroke-width="2" fill="none"></path></g><g transform="translate(581.0867455792039 369.8652904376668) rotate(0 61 12.5)"><text x="61" y="17" font-family="Virgil, Segoe UI Emoji" font-size="20px" fill="#5f3dc4" text-anchor="middle" style="white-space: pre;" direction="ltr">DropOut</text></g><g stroke-linecap="round" transform="translate(577.4821334809733 444.41258829391245) rotate(0 74 30)"><path d="M0 0 C0 0, 0 0, 0 0 M0 0 C0 0, 0 0, 0 0 M-1.04 11.72 C2.11 10.36, 5.17 5.96, 9.43 0.91 M0.23 12.2 C3.87 8.36, 6.3 4.34, 10.06 0.76 M-1.69 23.3 C6.81 17.25, 14.21 9.26, 22.13 1.46 M0.64 23.95 C8.07 16.02, 14.6 7.79, 21.63 -0.72 M-0.73 38.21 C11 23.56, 25.87 9.51, 30.48 1.78 M0.02 36.93 C10.44 23.95, 20.22 13.3, 31.06 -0.43 M0.1 50.67 C14.4 34.12, 28.05 19.37, 41.12 -1.94 M-0.94 49.71 C11.22 35.78, 24.28 20.71, 41.6 -0.84 M1.51 61.11 C17.24 40.1, 35.18 18.86, 54.4 -0.06 M0.64 61 C12.21 48.41, 22.66 35.63, 53.72 -0.98 M13.29 58.6 C32.08 35.28, 50.36 13.19, 62.48 -0.66 M10.66 59.81 C30.59 38.1, 50.15 14.97, 64.22 -1.05 M20.54 61.87 C40.71 42.23, 57.56 21.68, 73.81 0.99 M21.06 59.17 C32.74 47.29, 42.15 35.79, 74.54 -0.17 M32.97 60.62 C45.09 44.12, 60.05 28.63, 83.56 -0.99 M33.03 61.09 C50.11 38.91, 68.19 16.94, 86.04 -1.15 M41.5 59.46 C63.48 35.91, 84.7 15.29, 94 -0.53 M42.43 59.13 C62.6 38.11, 83.6 14.23, 96.25 -0.31 M54.04 61.2 C67.25 46.77, 81.62 28.58, 105.04 0.93 M53.37 61.36 C73.86 36.46, 95.13 13.3, 106.2 -0.23 M64.56 60.38 C80.63 43.75, 96.14 25.57, 117.92 1.82 M64.18 60.59 C83.5 38.47, 103.29 15.68, 116 1.2 M73.56 62.39 C89.4 44.77, 103.8 23.35, 128.32 1.88 M73.71 61.05 C95.93 37.43, 116.48 13.14, 126.77 1.01 M85.18 61 C95.97 48.29, 109.31 34.72, 138.85 1.37 M85.27 60.66 C101.89 41.16, 118.25 22.32, 136.98 -0.12 M94.95 61.67 C113.97 43.96, 126.67 24, 148.09 -1.49 M96.23 59.98 C108.95 45.46, 120.31 30.18, 148.36 0.32 M108.22 62.13 C115.35 50.13, 126.63 36.39, 147.93 12.96 M107.3 61.41 C116.94 47.49, 127.29 34.52, 149 11.76 M116.64 58.92 C126.61 51.36, 135.24 41.57, 149.43 26.07 M116.82 61.43 C128.92 47.34, 141.49 33.07, 148.18 23.51 M128.54 59.98 C132.44 57.09, 134.85 48.81, 147.16 36.49 M128.06 59.8 C135.28 52.27, 142.84 43.54, 148.45 37.97 M137.61 59.51 C142.06 58.1, 143.51 53.42, 147.06 49.52 M137.65 59.99 C140.35 57.98, 143.2 55.2, 148.05 48.87" stroke="#ced4da" stroke-width="1" fill="none"></path><path d="M1.7 -0.63 C29.7 0.97, 61.74 2.65, 148.52 0.98 M0.41 -0.52 C38.5 0.17, 74.25 -0.38, 148.11 -0.3 M147.7 0.72 C148.31 13.72, 146.37 29.23, 148.04 60.61 M148.59 -0.93 C147.68 18.99, 147.31 36.76, 147.85 60.01 M149.98 61.39 C95.58 59.42, 42.19 59.48, -0.18 58.24 M148.88 59.35 C107.87 59.82, 66.83 60.4, -0.5 59.59 M1.07 58.43 C0.73 42.73, -1.41 25.3, -1.6 -0.23 M0.14 59.3 C-0.44 36.82, 0.16 13.96, -0.66 0.84" stroke="#495057" stroke-width="2" fill="none"></path></g><g transform="translate(582.4821334809733 449.41258829391245) rotate(0 69 25)"><text x="69" y="17" font-family="Virgil, Segoe UI Emoji" font-size="20px" fill="#495057" text-anchor="middle" style="white-space: pre;" direction="ltr">Linear</text><text x="69" y="42" font-family="Virgil, Segoe UI Emoji" font-size="20px" fill="#495057" text-anchor="middle" style="white-space: pre;" direction="ltr">(128,10)</text></g><g stroke-linecap="round" transform="translate(777.0718584729673 233.57948408119864) rotate(0 50 43.5)"><path d="M5.13 5.79 C5.13 5.79, 5.13 5.79, 5.13 5.79 M5.13 5.79 C5.13 5.79, 5.13 5.79, 5.13 5.79 M3.95 19.34 C6.48 17.37, 8.34 10.62, 16.42 5 M3.95 19.34 C8.28 13.74, 12.42 8.9, 16.42 5 M3.43 32.13 C11.67 21.28, 22.77 9.32, 27.05 4.96 M3.43 32.13 C8.6 26.24, 13.24 21.86, 27.05 4.96 M3.56 44.17 C11.88 35.73, 19.71 25.26, 37.68 4.93 M3.56 44.17 C14.25 31.98, 22.99 20.63, 37.68 4.93 M3.7 56.21 C16.92 41.58, 33.49 26.22, 48.31 4.89 M3.7 56.21 C11.88 45.07, 22.77 34.51, 48.31 4.89 M1.21 71.27 C21.09 45.6, 40.82 24.04, 58.94 4.86 M1.21 71.27 C19.88 51.92, 37.62 30.3, 58.94 4.86 M4.62 79.54 C27.28 53.84, 50.07 27.66, 69.57 4.83 M4.62 79.54 C28.94 49.99, 53.43 20.76, 69.57 4.83 M10 85.55 C39.39 54.25, 64.62 21.46, 83.48 1.02 M10 85.55 C37.33 54.14, 65.11 23.16, 83.48 1.02 M18.66 87.77 C38.72 66.65, 55.84 47.01, 91.49 4 M18.66 87.77 C41.84 61.64, 66.06 34.16, 91.49 4 M28.64 88.49 C45.82 64.63, 65.43 43.84, 98.18 8.5 M28.64 88.49 C54.87 58.58, 79.99 30.33, 98.18 8.5 M39.27 88.46 C61.67 64.19, 79.98 39.43, 102.25 16.01 M39.27 88.46 C56.8 68.79, 72.36 49.71, 102.25 16.01 M49.9 88.43 C68.97 66.9, 83.87 47.26, 104.35 25.79 M49.9 88.43 C69.06 65.62, 87.23 44.09, 104.35 25.79 M60.53 88.39 C74.79 71.61, 86.84 56.46, 104.48 37.83 M60.53 88.39 C75.71 70.59, 91.25 51.01, 104.48 37.83 M71.16 88.36 C84.92 72.41, 96.11 61.86, 104.62 49.87 M71.16 88.36 C79.73 77.28, 90.63 65.71, 104.62 49.87 M81.13 89.08 C86.25 79.82, 96.87 72.33, 104.09 62.66 M81.13 89.08 C86.62 83.9, 91.96 77.53, 104.09 62.66" stroke="#ced4da" stroke-width="1" fill="none"></path><path d="M21.75 0 M21.75 0 C41.89 -1.21, 58.25 -1.73, 78.25 0 M21.75 0 C39.51 1.13, 56.23 -0.29, 78.25 0 M78.25 0 C94.45 -1.26, 99.96 6.38, 100 21.75 M78.25 0 C91.17 -1.79, 101.15 5.85, 100 21.75 M100 21.75 C99.84 31.9, 99.44 46.59, 100 65.25 M100 21.75 C100.23 34, 100.45 47.6, 100 65.25 M100 65.25 C100.93 81.08, 91.5 86.82, 78.25 87 M100 65.25 C99.46 78.61, 91.09 87.02, 78.25 87 M78.25 87 C56.78 86.93, 35.97 85.19, 21.75 87 M78.25 87 C66.29 85.94, 54.14 86.16, 21.75 87 M21.75 87 C7.7 87.65, 1.27 81.61, 0 65.25 M21.75 87 C6.16 89.06, 0.2 80.2, 0 65.25 M0 65.25 C-0.55 48.66, 2.06 34.26, 0 21.75 M0 65.25 C-0.06 55.97, 0.79 45.87, 0 21.75 M0 21.75 C-0.73 5.82, 8.53 1.61, 21.75 0 M0 21.75 C-1.51 9.09, 5.18 -1.02, 21.75 0" stroke="#5f3dc4" stroke-width="2" fill="none"></path></g><g transform="translate(782.0718584729673 264.57948408119864) rotate(0 45 12.5)"><text x="45" y="17" font-family="Virgil, Segoe UI Emoji" font-size="20px" fill="#5f3dc4" text-anchor="middle" style="white-space: pre;" direction="ltr">SoftMax</text></g><g stroke-linecap="round"><g transform="translate(267.36796199685887 93.39298545037673) rotate(0 29.603129750958715 0.46777835691409564)"><path d="M1.17 0.48 C10.45 0.77, 47.41 1.49, 56.61 1.51 M0.33 -0.32 C9.91 -0.38, 49.14 -0.78, 58.87 -0.45" stroke="#495057" stroke-width="1" fill="none"></path></g><g transform="translate(267.36796199685887 93.39298545037673) rotate(0 29.603129750958715 0.46777835691409564)"><path d="M32.58 7.72 C42.54 3.45, 51.3 2.45, 60.31 -2.19 M30.95 8.24 C42.5 4.37, 52.21 1.33, 58.03 -0.16" stroke="#495057" stroke-width="1" fill="none"></path></g><g transform="translate(267.36796199685887 93.39298545037673) rotate(0 29.603129750958715 0.46777835691409564)"><path d="M32.75 -11.94 C42.6 -8.78, 51.3 -2.36, 60.31 -2.19 M31.12 -11.42 C42.49 -7.58, 52.14 -2.92, 58.03 -0.16" stroke="#495057" stroke-width="1" fill="none"></path></g></g><g stroke-linecap="round"><g transform="translate(402.52207111264283 119.99245772030918) rotate(0 -123.32674306377544 18.14987456717381)"><path d="M-0.28 0.38 C-2.17 3.69, 10.73 16.99, -11.02 19.94 C-32.77 22.9, -95.48 18.64, -130.78 18.11 C-166.09 17.58, -202.82 13.68, -222.84 16.74 C-242.86 19.8, -246.42 32.98, -250.89 36.47 M1.77 -0.46 C0.23 2.47, 13.41 14.77, -8.81 18.1 C-31.02 21.43, -95.89 19.52, -131.52 19.5 C-167.15 19.47, -202.99 15.08, -222.58 17.96 C-242.18 20.83, -244.24 33.56, -249.07 36.76" stroke="#495057" stroke-width="1" fill="none"></path></g><g transform="translate(402.52207111264283 119.99245772030918) rotate(0 -123.32674306377544 18.14987456717381)"><path d="M-242.7 19.48 C-244.37 26.08, -246.83 31.22, -248.78 35.76 M-243.54 21.37 C-245.58 25.8, -245.71 30.42, -248.72 37.11" stroke="#495057" stroke-width="1" fill="none"></path></g><g transform="translate(402.52207111264283 119.99245772030918) rotate(0 -123.32674306377544 18.14987456717381)"><path d="M-233.82 26.95 C-238.39 31.1, -243.74 33.8, -248.78 35.76 M-234.66 28.84 C-239.25 31.22, -241.91 33.73, -248.72 37.11" stroke="#495057" stroke-width="1" fill="none"></path></g></g><g stroke-linecap="round"><g transform="translate(269.5246768541199 190.44515402712113) rotate(0 28.406793600889557 0.11824862982393824)"><path d="M-0.98 -0.46 C8.57 -0.38, 47.7 0.41, 57.79 1 M0.7 -1.74 C10 -1.6, 46.76 1.47, 56.54 1.98" stroke="#495057" stroke-width="1" fill="none"></path></g><g transform="translate(269.5246768541199 190.44515402712113) rotate(0 28.406793600889557 0.11824862982393824)"><path d="M27.72 9.11 C36.3 9.5, 49.45 2.9, 55.34 1.03 M29.4 9.72 C39.14 7.29, 50.8 3.25, 57.18 1.81" stroke="#495057" stroke-width="1" fill="none"></path></g><g transform="translate(269.5246768541199 190.44515402712113) rotate(0 28.406793600889557 0.11824862982393824)"><path d="M29.09 -10.82 C37.28 -3.6, 49.96 -3.37, 55.34 1.03 M30.76 -10.21 C39.92 -4.95, 51.05 -1.3, 57.18 1.81" stroke="#495057" stroke-width="1" fill="none"></path></g></g><g stroke-linecap="round"><g transform="translate(403.9599248959596 213.45009056533308) rotate(0 -124.76238762294315 21.147720396550085)"><path d="M0.29 -1.18 C0.68 2.05, 22.35 16.69, 1.58 20.28 C-19.19 23.87, -91.34 19.87, -124.33 20.34 C-157.32 20.82, -175.94 22, -196.37 23.11 C-216.81 24.22, -236.33 23.6, -246.95 27 C-257.56 30.39, -257.88 40.79, -260.06 43.48 M-1.02 0.81 C-0.65 4.12, 21.69 18.03, 1.08 21.52 C-19.53 25.01, -91.88 21.38, -124.7 21.77 C-157.51 22.17, -175.76 23.47, -195.8 23.89 C-215.85 24.31, -234.43 21.19, -244.95 24.31 C-255.47 27.44, -256.47 39.71, -258.92 42.62" stroke="#495057" stroke-width="1" fill="none"></path></g><g transform="translate(403.9599248959596 213.45009056533308) rotate(0 -124.76238762294315 21.147720396550085)"><path d="M-259.15 32.64 C-258.72 35.09, -258.21 37.5, -259.48 42.29 M-258.31 31.86 C-258.14 36.32, -258.32 40.52, -259.29 42.74" stroke="#495057" stroke-width="1" fill="none"></path></g><g transform="translate(403.9599248959596 213.45009056533308) rotate(0 -124.76238762294315 21.147720396550085)"><path d="M-252.44 35.69 C-253.61 37.44, -254.69 39.12, -259.48 42.29 M-251.6 34.91 C-254.05 38.19, -256.87 41.19, -259.29 42.74" stroke="#495057" stroke-width="1" fill="none"></path></g></g><g stroke-linecap="round"><g transform="translate(260.17889053341753 286.0595017294054) rotate(0 37.43575721341932 0.25743332738420577)"><path d="M-0.94 0.2 C11.64 0.15, 63.2 0.04, 75.81 0.32 M0.77 -0.75 C13.18 -0.74, 62.29 1.18, 75.03 1.26" stroke="#495057" stroke-width="1" fill="none"></path></g><g transform="translate(260.17889053341753 286.0595017294054) rotate(0 37.43575721341932 0.25743332738420577)"><path d="M46.92 11.37 C54.12 6.59, 66.13 3.13, 75.29 2.41 M47.22 9.85 C56.53 8.32, 68.36 4.03, 75.73 1.4" stroke="#495057" stroke-width="1" fill="none"></path></g><g transform="translate(260.17889053341753 286.0595017294054) rotate(0 37.43575721341932 0.25743332738420577)"><path d="M47.42 -9.14 C54.55 -7.12, 66.41 -3.77, 75.29 2.41 M47.72 -10.66 C56.91 -4.39, 68.55 -0.87, 75.73 1.4" stroke="#495057" stroke-width="1" fill="none"></path></g></g><g stroke-linecap="round"><g transform="translate(408.9922156844258 306.1888294275559) rotate(0 -126.09698607720085 21.256598171734367)"><path d="M0 0.09 C-0.23 4.66, 20.14 22.62, -2.08 26.56 C-24.31 30.5, -95.01 24.27, -133.35 23.73 C-171.69 23.19, -211.11 20.09, -232.11 23.32 C-253.11 26.54, -254.67 39.65, -259.37 43.07 M-1.46 -0.91 C-1.72 3.39, 19.53 20.52, -2.61 24.79 C-24.75 29.05, -96.04 24.77, -134.3 24.67 C-172.57 24.57, -211.18 21.08, -232.19 24.21 C-253.21 27.33, -255.92 40.26, -260.38 43.42" stroke="#495057" stroke-width="1" fill="none"></path></g><g transform="translate(408.9922156844258 306.1888294275559) rotate(0 -126.09698607720085 21.256598171734367)"><path d="M-254.46 28.22 C-255.13 30.52, -258.55 34.09, -260.97 44.69 M-254.87 27.76 C-256.37 32.6, -257.6 37.58, -260.23 43.51" stroke="#495057" stroke-width="1" fill="none"></path></g><g transform="translate(408.9922156844258 306.1888294275559) rotate(0 -126.09698607720085 21.256598171734367)"><path d="M-245.3 35.76 C-248.14 36.24, -253.77 37.98, -260.97 44.69 M-245.71 35.3 C-249.9 37.98, -253.83 40.73, -260.23 43.51" stroke="#495057" stroke-width="1" fill="none"></path></g></g><g stroke-linecap="round"><g transform="translate(273.11917967698355 380.23606146608745) rotate(0 30.508157934431267 1.2523398652588185)"><path d="M-1 1.19 C9.04 1.17, 49.39 0.47, 59.68 0.7 M0.67 0.77 C11.15 0.82, 52.11 1.83, 62.02 1.85" stroke="#495057" stroke-width="1" fill="none"></path></g><g transform="translate(273.11917967698355 380.23606146608745) rotate(0 30.508157934431267 1.2523398652588185)"><path d="M35.67 10.51 C39.58 9.96, 49.94 5.81, 63.88 0.86 M34.58 11.18 C42 9.36, 49.46 5.23, 61.96 2.39" stroke="#495057" stroke-width="1" fill="none"></path></g><g transform="translate(273.11917967698355 380.23606146608745) rotate(0 30.508157934431267 1.2523398652588185)"><path d="M35.97 -10.01 C39.94 -5.35, 50.23 -4.29, 63.88 0.86 M34.88 -9.34 C42.23 -5.22, 49.6 -3.42, 61.96 2.39" stroke="#495057" stroke-width="1" fill="none"></path></g></g><g stroke-linecap="round"><g transform="translate(410.43006946774256 408.27335461048006) rotate(0 -128.9482124271673 18.061332049371686)"><path d="M0.72 1.15 C-0.52 4.95, 18.38 18.84, -6.6 22.09 C-31.58 25.34, -110.88 22.16, -149.15 20.66 C-187.43 19.15, -217.06 10.62, -236.27 13.06 C-255.49 15.51, -259.78 31.34, -264.44 35.34 M-0.36 0.71 C-1.3 4.76, 20.63 20, -4.33 23.53 C-29.29 27.06, -111.57 23.48, -150.1 21.87 C-188.63 20.26, -216.29 11.6, -235.52 13.86 C-254.75 16.11, -260.4 31.62, -265.47 35.41" stroke="#495057" stroke-width="1" fill="none"></path></g><g transform="translate(410.43006946774256 408.27335461048006) rotate(0 -128.9482124271673 18.061332049371686)"><path d="M-257.42 17.39 C-261.87 24.4, -264.22 32.57, -266.36 36.65 M-259.83 19.3 C-260.17 22.84, -261.32 26.3, -266.3 36.04" stroke="#495057" stroke-width="1" fill="none"></path></g><g transform="translate(410.43006946774256 408.27335461048006) rotate(0 -128.9482124271673 18.061332049371686)"><path d="M-248.14 25.38 C-255.99 29.48, -261.78 34.68, -266.36 36.65 M-250.55 27.29 C-253.27 28.92, -256.73 30.39, -266.3 36.04" stroke="#495057" stroke-width="1" fill="none"></path></g></g><g stroke-linecap="round"><g transform="translate(271.6813917113809 476.5693031511737) rotate(0 30.68488827768755 -1.2122017628898902)"><path d="M1.14 -0.12 C11.07 -0.33, 48.93 -1.85, 58.83 -2.3 M0.28 -1.23 C10.65 -1.16, 51.11 -0.74, 61.09 -0.84" stroke="#495057" stroke-width="1" fill="none"></path></g><g transform="translate(271.6813917113809 476.5693031511737) rotate(0 30.68488827768755 -1.2122017628898902)"><path d="M32.82 7.92 C39.5 8.06, 45.29 3.23, 60.72 -2.54 M34.01 9.3 C42.49 6.48, 51.87 2, 60.85 -1.48" stroke="#495057" stroke-width="1" fill="none"></path></g><g transform="translate(271.6813917113809 476.5693031511737) rotate(0 30.68488827768755 -1.2122017628898902)"><path d="M32.85 -12.5 C39.35 -7.54, 45.13 -7.55, 60.72 -2.54 M34.04 -11.12 C42.62 -7.36, 51.99 -5.26, 60.85 -1.48" stroke="#495057" stroke-width="1" fill="none"></path></g></g><g stroke-linecap="round"><g transform="translate(515.3901705818727 472.2558734366521) rotate(0 23.888653849719446 -178.30228636223592)"><path d="M-0.87 -0.86 C1.69 -3.76, 15.05 28.21, 16.14 -17.53 C17.22 -63.27, 7.54 -221.47, 5.66 -275.31 C3.78 -329.14, -2.29 -326.21, 4.87 -340.53 C12.04 -354.84, 41.46 -357.7, 48.65 -361.19 M0.87 1.3 C3.17 -1.89, 14.25 26.89, 14.98 -19.05 C15.7 -64.99, 6.88 -220.42, 5.22 -274.35 C3.57 -328.27, -2 -327.66, 5.04 -342.58 C12.07 -357.5, 40.05 -360.62, 47.43 -363.87" stroke="#495057" stroke-width="1" fill="none"></path></g><g transform="translate(515.3901705818727 472.2558734366521) rotate(0 23.888653849719446 -178.30228636223592)"><path d="M26.66 -350.4 C37.08 -353.69, 41.06 -360.15, 49.02 -363.06 M28.41 -349.73 C36.33 -354.47, 42.88 -360.84, 47.75 -364.11" stroke="#495057" stroke-width="1" fill="none"></path></g><g transform="translate(515.3901705818727 472.2558734366521) rotate(0 23.888653849719446 -178.30228636223592)"><path d="M22.1 -366.14 C34.17 -363.67, 39.8 -364.39, 49.02 -363.06 M23.85 -365.47 C33.55 -364.03, 41.9 -364.19, 47.75 -364.11" stroke="#495057" stroke-width="1" fill="none"></path></g></g><g stroke-linecap="round"><g transform="translate(616.0368419814807 144.43521513298128) rotate(0 0.1845126057340849 19.161617066350118)"><path d="M0.42 0.57 C0.64 6.67, 1.13 30.91, 1.19 37.35 M-0.82 -0.18 C-0.77 5.99, 0.03 32.22, 0.11 38.5" stroke="#495057" stroke-width="1" fill="none"></path></g><g transform="translate(616.0368419814807 144.43521513298128) rotate(0 0.1845126057340849 19.161617066350118)"><path d="M-5.92 20.35 C-5.88 24.86, -0.83 29.32, 0.7 39.08 M-6.61 19.92 C-4.98 25.36, -3.02 31.72, -0.04 38.61" stroke="#495057" stroke-width="1" fill="none"></path></g><g transform="translate(616.0368419814807 144.43521513298128) rotate(0 0.1845126057340849 19.161617066350118)"><path d="M7.12 20.05 C3.37 24.69, 4.64 29.23, 0.7 39.08 M6.43 19.62 C4.11 25.09, 2.1 31.54, -0.04 38.61" stroke="#495057" stroke-width="1" fill="none"></path></g></g><g stroke-linecap="round"><g transform="translate(618.9124837304001 228.54709456616) rotate(0 0.16775419827661153 13.452991798696985)"><path d="M0.67 1.11 C0.94 5.45, 0.57 22.28, 0.63 26.26 M-0.43 0.65 C-0.18 4.6, -0.2 20.15, 0.01 24.33" stroke="#495057" stroke-width="1" fill="none"></path></g><g transform="translate(618.9124837304001 228.54709456616) rotate(0 0.16775419827661153 13.452991798696985)"><path d="M-3.49 12.96 C-3.24 16.02, -3.61 16.79, -0.85 23.29 M-4.56 12.46 C-3.16 15.91, -1.07 20.13, -0.17 24.5" stroke="#495057" stroke-width="1" fill="none"></path></g><g transform="translate(618.9124837304001 228.54709456616) rotate(0 0.16775419827661153 13.452991798696985)"><path d="M5.36 12.76 C3.68 15.91, 1.36 16.72, -0.85 23.29 M4.29 12.26 C2.66 15.84, 1.73 20.13, -0.17 24.5" stroke="#495057" stroke-width="1" fill="none"></path></g></g><g stroke-linecap="round"><g transform="translate(620.3502716960027 319.84804546278065) rotate(0 -1.403168161917165 21.348727502251677)"><path d="M-0.22 0.24 C-0.64 7.54, -2.48 36.33, -2.59 43.38 M-1.79 -0.68 C-1.86 6.33, -0.55 34.34, -0.48 41.76" stroke="#495057" stroke-width="1" fill="none"></path></g><g transform="translate(620.3502716960027 319.84804546278065) rotate(0 -1.403168161917165 21.348727502251677)"><path d="M-7.92 20.12 C-4.46 28.78, -3.6 33.15, 1.01 43.14 M-9.25 22.49 C-7.02 28.42, -4.01 33.61, -1.11 40.87" stroke="#495057" stroke-width="1" fill="none"></path></g><g transform="translate(620.3502716960027 319.84804546278065) rotate(0 -1.403168161917165 21.348727502251677)"><path d="M6.59 19.7 C5.75 28.46, 2.33 32.95, 1.01 43.14 M5.26 22.07 C3.41 28.07, 2.34 33.38, -1.11 40.87" stroke="#495057" stroke-width="1" fill="none"></path></g></g><g stroke-linecap="round"><g transform="translate(613.1612660502756 404.67885178761753) rotate(0 -0.03253906317985411 18.408388068403838)"><path d="M0.51 -0.05 C0.61 6.17, 0.6 31.58, 0.61 37.93 M-0.68 -1.11 C-0.68 4.69, -0.15 29.89, -0.02 36.1" stroke="#495057" stroke-width="1" fill="none"></path></g><g transform="translate(613.1612660502756 404.67885178761753) rotate(0 -0.03253906317985411 18.408388068403838)"><path d="M-6.84 19.62 C-3.8 24.78, -1.53 29.8, -0.11 34.45 M-7.16 18.64 C-4.02 25.38, -2.79 30.85, -0.11 36.88" stroke="#495057" stroke-width="1" fill="none"></path></g><g transform="translate(613.1612660502756 404.67885178761753) rotate(0 -0.03253906317985411 18.408388068403838)"><path d="M5.94 19.36 C5.15 24.65, 3.58 29.74, -0.11 34.45 M5.62 18.37 C4.28 25.32, 1.03 30.89, -0.11 36.88" stroke="#495057" stroke-width="1" fill="none"></path></g></g><g stroke-linecap="round"><g transform="translate(736.0940129141519 475.1315151855715) rotate(0 16.27125473902612 -85.5865791637284)"><path d="M0.65 0.38 C2.52 -3.81, 7.82 -1.09, 10.58 -24.79 C13.35 -48.49, 13.55 -117.68, 17.25 -141.82 C20.94 -165.96, 30.28 -164.94, 32.74 -169.62 M-0.46 -0.47 C1.34 -4.99, 7.02 -2.43, 9.9 -26.33 C12.79 -50.24, 13 -119.69, 16.85 -143.89 C20.7 -168.09, 30.17 -167.37, 33 -171.55" stroke="#495057" stroke-width="1" fill="none"></path></g><g transform="translate(736.0940129141519 475.1315151855715) rotate(0 16.27125473902612 -85.5865791637284)"><path d="M25.09 -156.82 C28.14 -160.11, 29.46 -164.55, 34.62 -172.49 M24.14 -157.32 C27.3 -162.89, 30.55 -167.94, 33.31 -171.65" stroke="#495057" stroke-width="1" fill="none"></path></g><g transform="translate(736.0940129141519 475.1315151855715) rotate(0 16.27125473902612 -85.5865791637284)"><path d="M18.04 -165.52 C22.88 -166.67, 25.97 -168.94, 34.62 -172.49 M17.09 -166.02 C22.94 -168.27, 28.85 -170.04, 33.31 -171.65" stroke="#495057" stroke-width="1" fill="none"></path></g></g><g stroke-linecap="round" transform="translate(912.2255068647526 96.98752118209813) rotate(0 23.72386342987079 24.083310421271563)"><path d="M12.27 2.72 C12.27 2.72, 12.27 2.72, 12.27 2.72 M12.27 2.72 C12.27 2.72, 12.27 2.72, 12.27 2.72 M5.75 19.68 C6.09 15.03, 9.15 10.71, 16.2 4.29 M4.95 17.3 C8.2 13.98, 12.04 9.72, 17.17 2.87 M5.43 25.81 C12.19 18.45, 17.8 10.7, 23.69 1.21 M4.73 23.67 C11.79 15.87, 19.61 5.87, 23.56 0.76 M2.35 34.1 C10.71 26.36, 15.85 18.1, 30.36 1.39 M1.89 32.88 C10.74 23.66, 18.1 12.81, 28.98 2.94 M4.95 33.81 C13.96 28.21, 20.5 18.11, 31.4 3.89 M6.13 34.46 C11.73 27.86, 17.42 19.6, 32.76 4.34 M6.66 37.04 C14.03 30.94, 23.34 20.44, 35.38 7.62 M8.21 37.77 C15.61 30.64, 21.68 22.07, 35.33 6.56 M11.29 41.67 C21.32 28.61, 29.95 18.99, 38.66 7.85 M9.29 42.53 C19.66 29.54, 29.06 20.15, 39.49 7.13 M13.63 42.7 C24.7 31.55, 37.15 17.06, 41.85 10.82 M12.34 44.91 C19.65 37.75, 25.93 30.07, 42.72 9.73 M15.22 47.6 C26.94 33.97, 36.47 25.51, 44.88 13.52 M17.72 46.45 C25.57 35.66, 36.38 22.46, 45.09 14.63 M19.4 48.09 C30.7 37.87, 39.93 26.63, 46.09 19.24 M21.15 46.57 C28.7 38.19, 36.07 29.31, 46.16 17.92 M27.17 47.48 C33.97 37.5, 43.23 28.33, 46.75 20.96 M25.32 49.5 C34 38.6, 42 29.56, 48.38 21.49 M28.85 51.69 C37.62 42.7, 42.88 33.38, 49.38 25.04 M30.48 50.01 C34.37 43.65, 39.97 38.92, 51.29 26.48" stroke="#ced4da" stroke-width="0.5" fill="none"></path><path d="M27.63 1.16 C32.37 1.67, 37.16 4.84, 40.6 8.61 C44.03 12.38, 47.89 18.78, 48.23 23.78 C48.57 28.77, 45.83 34.44, 42.64 38.59 C39.45 42.74, 34.19 47.76, 29.09 48.7 C23.98 49.63, 16.5 47.01, 12.01 44.23 C7.52 41.44, 3.78 36.65, 2.13 32 C0.48 27.35, 0.41 21.22, 2.11 16.33 C3.81 11.43, 7.33 4.98, 12.35 2.63 C17.36 0.28, 28.37 2, 32.19 2.22 C36.01 2.45, 35.48 3.87, 35.25 3.97 M34.31 1.09 C39.14 2.83, 44.13 10.08, 46.16 14.85 C48.2 19.62, 47.98 24.96, 46.54 29.7 C45.09 34.45, 41.57 40.35, 37.49 43.31 C33.4 46.28, 27.34 47.74, 22.02 47.5 C16.69 47.26, 9.14 45.46, 5.54 41.89 C1.95 38.32, 0.47 31.59, 0.46 26.05 C0.44 20.52, 2.51 12.77, 5.43 8.69 C8.36 4.6, 13.41 2.54, 18 1.54 C22.58 0.55, 30.49 2.73, 32.96 2.72 C35.43 2.71, 32.82 1.1, 32.84 1.5" stroke="#495057" stroke-width="1" fill="none"></path></g><g stroke-linecap="round" transform="translate(911.5066457908085 185.7722773211999) rotate(0 23.72386342987079 24.083310421271563)"><path d="M2.44 11.4 C2.44 11.4, 2.44 11.4, 2.44 11.4 M2.44 11.4 C2.44 11.4, 2.44 11.4, 2.44 11.4 M2.92 17.73 C5.98 14.86, 10.4 9.02, 14.57 2.82 M2.52 18.37 C6.22 13.28, 12.89 6.95, 15.72 1.54 M2.46 27.32 C5.5 18.97, 13.71 10.46, 20.9 2.64 M0.9 25.19 C6.64 17.34, 14.72 10.47, 21.46 1.3 M2.77 30.89 C10.22 20.75, 22.06 7.72, 27.41 0.78 M1.81 30.46 C10.62 20.26, 18.71 9.4, 27.32 1.46 M6.07 31.71 C14.12 23.65, 19.09 13.6, 33.88 1.37 M5.25 33.5 C9.65 26.08, 16.95 19.46, 31.87 1.15 M4.75 35.9 C16.56 26.7, 26.34 15.34, 36.91 4.41 M5.92 36.59 C13.24 30.3, 18.17 23.01, 35.64 4.43 M9.77 42.69 C15.9 30.36, 24.86 23.68, 36.92 8.35 M8.42 39.9 C17.71 31.12, 26.37 21.26, 37.84 6.48 M9.9 45.02 C19.78 31.9, 31.61 18.54, 40.04 8.39 M10.28 45.75 C18.52 34.43, 27.43 24.45, 41.2 8.58 M13.29 45.81 C23.45 38.09, 28 28.9, 45.17 12.06 M14.48 45.54 C22.44 38.13, 29.11 29.1, 44.79 11.34 M16.84 49.34 C26.72 39.29, 31.53 32.88, 44.44 18.03 M18.59 48.79 C30.24 36.31, 39.72 23.66, 45.41 16.18 M23.07 49.76 C28.74 39.62, 37.66 31.2, 46.24 19.16 M22.48 50.28 C32.1 39.03, 40.43 27.37, 46.36 22 M24 50.92 C33.48 40.56, 44.43 32.54, 49.08 24.83 M26.11 51.55 C33.33 40.55, 43.68 30.77, 48.25 26.19" stroke="#ced4da" stroke-width="0.5" fill="none"></path><path d="M15.19 1.39 C19.65 -0.57, 26.71 -0.82, 31.41 0.81 C36.11 2.43, 40.63 6.47, 43.4 11.11 C46.18 15.74, 48.8 23.45, 48.06 28.62 C47.33 33.79, 43.12 38.77, 38.97 42.13 C34.82 45.49, 28.23 48.72, 23.15 48.79 C18.06 48.87, 12.25 46.07, 8.47 42.59 C4.69 39.11, 1.52 33.06, 0.47 27.92 C-0.58 22.77, -1.2 16.45, 2.16 11.72 C5.53 6.99, 17 1.48, 20.65 -0.45 C24.3 -2.37, 24.03 -0.5, 24.08 0.15 M16.87 -0.37 C21.63 -1.93, 30.4 -0.73, 34.89 1.74 C39.37 4.21, 41.61 9.96, 43.78 14.45 C45.96 18.93, 48.94 23.72, 47.95 28.65 C46.96 33.57, 42.1 40.64, 37.82 43.98 C33.54 47.32, 27.56 48.96, 22.27 48.66 C16.98 48.37, 9.7 45.71, 6.1 42.21 C2.5 38.7, 1.17 32.71, 0.69 27.63 C0.2 22.56, 0.3 16, 3.21 11.75 C6.12 7.5, 15.59 3.82, 18.15 2.14 C20.72 0.46, 18.42 1.55, 18.6 1.66" stroke="#495057" stroke-width="1" fill="none"></path></g><g stroke-linecap="round" transform="translate(914.3822217220129 264.13287325654073) rotate(0 23.72386342987079 24.083310421271563)"><path d="M3.79 11.24 C3.79 11.24, 3.79 11.24, 3.79 11.24 M3.79 11.24 C3.79 11.24, 3.79 11.24, 3.79 11.24 M0.08 21.46 C6.75 15.97, 10.45 6.94, 18.83 2.35 M0.72 20.02 C6.14 16.09, 10.36 9.95, 17.55 0.9 M2.92 25.03 C6.67 21.03, 10.3 13.4, 24.03 1.76 M0.78 25.59 C6.49 20.15, 13.2 12.54, 22.69 2.19 M4.05 29.01 C10.93 24.17, 14.93 16.4, 26.8 2.82 M3.63 30.34 C12.25 19.65, 20.23 10.62, 27.48 1.73 M3.2 35.91 C14.06 21.56, 22.93 14.19, 33.43 -0.17 M5 33.68 C15.88 21.68, 27.62 8.1, 33.21 1.51 M4.97 39.55 C12.94 32.74, 18.76 25.12, 36.21 3.16 M5.66 39.33 C16.8 26.38, 26.96 15.94, 36.23 4.17 M10.09 43.04 C16.95 32.02, 29.51 16.06, 39.89 8.08 M7.29 43.15 C18.93 31.28, 29.47 18.84, 38.02 8.73 M12.62 42.16 C20.92 33.02, 28.99 22.92, 40.32 10.52 M13.34 43.4 C23.24 30.83, 34.49 18.63, 40.51 10.14 M15.96 47.66 C26.6 33.58, 35.78 23.34, 43.73 12.77 M15.69 46.82 C26.06 35.32, 34.82 23.61, 43.01 13.87 M21.3 48.31 C25.62 39.24, 33.55 33.55, 47.83 18.62 M20.75 48.59 C25.91 41.19, 30.87 35.21, 45.98 16.86 M23.53 48.68 C31.56 39.07, 41.33 27.29, 45.22 24.1 M24.04 49.9 C30.72 40.65, 36.97 32.98, 48.06 23.12 M30.43 46.26 C34.68 43.25, 41.24 36.43, 47.05 29.08 M31.06 45.96 C36.77 39.87, 43.68 31.58, 48.41 27.18" stroke="#ced4da" stroke-width="0.5" fill="none"></path><path d="M17.73 0.39 C22.36 -1.21, 28.89 -0.93, 33.35 1.53 C37.8 3.98, 42.18 10.27, 44.45 15.1 C46.72 19.93, 48.27 25.81, 46.99 30.51 C45.71 35.21, 40.93 40.4, 36.77 43.32 C32.61 46.23, 27.03 48.38, 22.04 48 C17.04 47.62, 10.52 44.87, 6.79 41.03 C3.06 37.19, 0.12 29.96, -0.34 24.95 C-0.8 19.93, 0.88 15.04, 4.06 10.94 C7.23 6.83, 15.9 1.92, 18.7 0.33 C21.51 -1.25, 20.55 1.11, 20.88 1.43 M24.36 1.55 C29.28 1.49, 36.06 2.09, 40.04 5.67 C44.01 9.25, 47.91 17.67, 48.23 23.06 C48.54 28.44, 44.91 33.88, 41.94 37.97 C38.96 42.05, 34.98 46.4, 30.39 47.55 C25.8 48.7, 18.93 46.96, 14.39 44.86 C9.84 42.76, 5.2 39.58, 3.11 34.95 C1.02 30.33, 0.5 22.06, 1.84 17.13 C3.19 12.19, 7 8, 11.17 5.37 C15.34 2.74, 24.41 1.9, 26.86 1.32 C29.32 0.75, 26.19 1.71, 25.89 1.91" stroke="#495057" stroke-width="1" fill="none"></path></g><g stroke-linecap="round" transform="translate(919.7742721360225 364.06081521762826) rotate(0 23.72386342987079 24.083310421271563)"><path d="M10.76 5.38 C10.76 5.38, 10.76 5.38, 10.76 5.38 M10.76 5.38 C10.76 5.38, 10.76 5.38, 10.76 5.38 M2.15 21.14 C9.75 14.98, 12.72 9.31, 17.53 4.27 M2.83 20.06 C7.16 16.08, 11.07 11.19, 18.39 3.42 M3.53 24.19 C9.89 22.52, 13.53 16.2, 22.89 2 M3.31 25.87 C9.62 18.18, 16.35 9.37, 25.09 1.51 M2.37 32.05 C13.01 23.35, 21.12 9.13, 29.59 4.4 M2.4 33.06 C8.31 27.82, 13.9 21.35, 28.45 2.51 M6.05 36.96 C16.32 23.89, 25.83 10.24, 32.64 6.12 M4.18 37.61 C13 26.59, 21.48 17.07, 31.13 5.15 M6.48 39.41 C16.35 32.85, 21.48 25.24, 35.25 6.41 M6.68 39.03 C15.23 31.93, 20.89 23.21, 37.27 6.62 M10.55 40.9 C19.84 34.37, 26.1 22.76, 42.67 8.07 M9.83 42 C21.47 27.9, 32.98 16.42, 40.99 7.37 M14 47.51 C16.59 37.51, 24.79 33.9, 44.18 12.59 M12.15 45.75 C22.01 37.03, 29.77 26.75, 41.95 11.19 M15.98 47.7 C26.19 35.67, 35.53 27.79, 45.44 15.6 M18.82 46.72 C23.47 40.11, 28.17 33.07, 44.43 14.36 M21.74 48.15 C34.37 35.99, 42.81 23.87, 45.24 16.57 M23.11 46.25 C32.93 35.57, 40.46 25.92, 47.74 18.29 M29.73 46.35 C34.19 38.97, 41.06 30.96, 48.69 21.99 M27.11 46 C33.38 39.81, 38.68 35.31, 50.01 22.52 M32.21 47.56 C34.35 43.9, 35.94 43.13, 47.17 31.35 M31.03 48.74 C37.33 43.1, 42.59 35.71, 45.83 31.56" stroke="#ced4da" stroke-width="0.5" fill="none"></path><path d="M25.94 1.03 C30.46 1.22, 35.92 3.78, 39.63 7.14 C43.34 10.5, 47.69 15.98, 48.22 21.21 C48.74 26.44, 45.94 34.19, 42.78 38.5 C39.62 42.81, 34.24 45.91, 29.26 47.07 C24.29 48.22, 17.52 47.65, 12.93 45.44 C8.34 43.22, 3.86 38.39, 1.73 33.78 C-0.4 29.16, -1.4 22.53, 0.15 17.75 C1.7 12.96, 5.46 7.71, 11.03 5.07 C16.61 2.42, 28.92 1.55, 33.61 1.87 C38.3 2.18, 39.52 6.57, 39.17 6.96 M24.26 0.4 C29.11 0.05, 36.45 1.44, 40.08 4.79 C43.71 8.14, 45.17 15.37, 46.04 20.49 C46.91 25.61, 47.46 30.89, 45.28 35.51 C43.1 40.12, 37.94 46.47, 32.96 48.18 C27.98 49.89, 20.13 47.58, 15.39 45.77 C10.66 43.96, 6.91 41.67, 4.56 37.31 C2.21 32.95, 0.76 24.91, 1.3 19.61 C1.84 14.3, 4.24 8.55, 7.82 5.48 C11.39 2.4, 19.9 1.8, 22.77 1.17 C25.65 0.54, 25.06 1.45, 25.05 1.7" stroke="#495057" stroke-width="1" fill="none"></path></g><g stroke-linecap="round" transform="translate(919.7741405005947 434.15391644318606) rotate(0 23.72386342987079 24.083310421271563)"><path d="M4.64 10.66 C4.64 10.66, 4.64 10.66, 4.64 10.66 M4.64 10.66 C4.64 10.66, 4.64 10.66, 4.64 10.66 M2.16 22.03 C6.07 15.18, 10.47 11.28, 17.63 1.55 M1.07 21.11 C4.85 17.26, 7.74 12.9, 16.79 1.77 M-0.04 28.28 C8.43 21.64, 12.28 12.73, 21.6 4.33 M1.64 25.75 C9.03 17.42, 15.3 10.35, 21.11 4.6 M1.61 31.46 C10.14 22.91, 13.16 18.34, 27.77 1.79 M2.63 31.24 C12.28 21.48, 20.71 11.5, 25.89 4.42 M4.86 35.55 C12.14 25.02, 18.82 17.46, 32.61 4.15 M5.51 34.73 C14.41 23.21, 24.81 11.26, 31.64 3.25 M6.38 40.49 C15.91 29.61, 24.35 19.8, 37.43 2.33 M6 39.59 C17.13 26.84, 26.61 16.98, 37.63 3.06 M7.62 43.44 C18.52 32.2, 24.36 25.35, 40.34 8.39 M8.72 41.42 C14.35 34.13, 22.62 27.73, 39.64 5.8 M14.52 42.16 C22.86 31.05, 37.57 19.42, 43.09 9.72 M12.76 45.05 C22.29 34.67, 30.27 23.63, 41.69 10.3 M18.03 45.8 C23.55 37.98, 33.19 28.98, 45.08 11.67 M17.05 45.94 C24.37 36.18, 31.22 28.14, 43.84 14.53 M21.79 49.71 C29 39.11, 36.3 27.13, 45.03 18.35 M19.9 48.73 C25.75 40.08, 32.64 34.24, 46.75 17.08 M23.31 49.48 C33.19 38.51, 42.42 27.19, 47.47 21.47 M22.95 49.86 C28.93 43.06, 36.59 36.5, 48 21.62 M29.61 47.75 C34.41 40.51, 42.1 37.41, 45.09 32.34 M30.78 48.12 C37.62 40.97, 42.68 34.18, 45.29 29.61" stroke="#ced4da" stroke-width="0.5" fill="none"></path><path d="M34.97 1.44 C39.49 3.43, 43.57 10.24, 45.35 15.05 C47.13 19.87, 46.95 25.58, 45.65 30.33 C44.35 35.07, 41.66 40.68, 37.56 43.52 C33.46 46.37, 26.23 47.9, 21.02 47.39 C15.81 46.88, 9.86 44.15, 6.3 40.44 C2.75 36.74, 0 30.1, -0.3 25.17 C-0.6 20.23, 1.34 14.77, 4.5 10.82 C7.66 6.86, 13.05 2.34, 18.68 1.46 C24.31 0.58, 34.32 4.36, 38.27 5.52 C42.23 6.68, 42.64 8.19, 42.42 8.43 M32.23 2.6 C36.84 3.71, 40.87 6.56, 43.46 11 C46.04 15.43, 48.58 23.8, 47.74 29.24 C46.9 34.67, 42.17 40.48, 38.42 43.59 C34.67 46.7, 30.37 47.84, 25.22 47.89 C20.07 47.94, 11.47 47, 7.52 43.89 C3.56 40.78, 2.27 34.63, 1.49 29.23 C0.71 23.82, 0.5 16.22, 2.82 11.44 C5.14 6.66, 10.37 2, 15.4 0.57 C20.43 -0.87, 30.09 2.78, 33 2.84 C35.91 2.9, 33.17 0.69, 32.88 0.95" stroke="#495057" stroke-width="1" fill="none"></path></g><g transform="translate(930.198218432213 323.0694735324032) rotate(0 8.5 12.5)"><text x="0" y="18" font-family="Virgil, Segoe UI Emoji" font-size="20px" fill="#495057" text-anchor="start" style="white-space: pre;" direction="ltr">...</text></g><g stroke-linecap="round"><g transform="translate(889.2208994151104 259.90924893247575) rotate(0 8.87091678322713 -18.80589716902068)"><path d="M-0.42 -0.89 C2.42 -7.21, 15.25 -30.94, 18.16 -37.05 M1.56 1.25 C4.21 -5.5, 15.18 -32.62, 17.61 -38.87" stroke="#495057" stroke-width="1" fill="none"></path></g><g transform="translate(889.2208994151104 259.90924893247575) rotate(0 8.87091678322713 -18.80589716902068)"><path d="M15.51 -16.89 C18.07 -26.91, 17.42 -35.55, 15.82 -40.06 M17.12 -17.57 C17.22 -26.42, 18.34 -33.57, 17.75 -39.79" stroke="#495057" stroke-width="1" fill="none"></path></g><g transform="translate(889.2208994151104 259.90924893247575) rotate(0 8.87091678322713 -18.80589716902068)"><path d="M2.33 -22.13 C10.13 -30.03, 14.68 -36.61, 15.82 -40.06 M3.94 -22.82 C8.92 -29.6, 14.97 -34.8, 17.75 -39.79" stroke="#495057" stroke-width="1" fill="none"></path></g></g><g stroke-linecap="round"><g transform="translate(886.3451918484768 285.0195285781765) rotate(0 10.961896044681339 -0.42700677779430407)"><path d="M-0.5 -1.15 C3.29 -1.06, 18.52 -0.27, 22.42 -0.2 M1.44 0.86 C5.12 0.72, 18.06 -1.1, 21.57 -1.71" stroke="#495057" stroke-width="1" fill="none"></path></g><g transform="translate(886.3451918484768 285.0195285781765) rotate(0 10.961896044681339 -0.42700677779430407)"><path d="M10.73 3.82 C15.59 2.86, 17.71 -0.08, 21.15 -2.64 M11.27 3.24 C14.03 1.96, 16.46 0.91, 21.46 -1.51" stroke="#495057" stroke-width="1" fill="none"></path></g><g transform="translate(886.3451918484768 285.0195285781765) rotate(0 10.961896044681339 -0.42700677779430407)"><path d="M9.58 -3.72 C14.7 -2.61, 17.14 -3.51, 21.15 -2.64 M10.11 -4.29 C13.16 -3.92, 15.84 -3.31, 21.46 -1.51" stroke="#495057" stroke-width="1" fill="none"></path></g></g><g stroke-linecap="round"><g transform="translate(884.9074697005883 263.88263068999186) rotate(0 17.783146337075777 53.99367708458021)"><path d="M-0.46 -0.2 C5.42 18.13, 30.19 91.17, 36.02 109.34 M1.5 -1.35 C7.21 16.66, 29.46 88.81, 35.38 107.37" stroke="#495057" stroke-width="1" fill="none"></path></g><g transform="translate(884.9074697005883 263.88263068999186) rotate(0 17.783146337075777 53.99367708458021)"><path d="M16.83 84.48 C24.09 90.7, 29.77 99.5, 33.83 109.05 M17.96 84.3 C21.99 88.28, 24.19 92.73, 36.15 107.56" stroke="#495057" stroke-width="1" fill="none"></path></g><g transform="translate(884.9074697005883 263.88263068999186) rotate(0 17.783146337075777 53.99367708458021)"><path d="M36.42 78.35 C36.58 86.71, 35.19 97.72, 33.83 109.05 M37.54 78.17 C37.61 83.55, 35.78 89.26, 36.15 107.56" stroke="#495057" stroke-width="1" fill="none"></path></g></g><g stroke-linecap="round"><g transform="translate(887.7830456317936 273.7760958202316) rotate(0 13.90425424868397 84.47737397075798)"><path d="M-1.12 0.53 C3.76 28.89, 23.98 141.28, 28.93 169.19 M0.5 -0.23 C5.26 27.88, 23.55 139.32, 28.08 167.56" stroke="#495057" stroke-width="1" fill="none"></path></g><g transform="translate(887.7830456317936 273.7760958202316) rotate(0 13.90425424868397 84.47737397075798)"><path d="M14.32 141.71 C18.81 148.36, 20.82 156.71, 26.89 165.81 M12.47 141.81 C17.29 149.01, 23.45 157.69, 28.17 167.67" stroke="#495057" stroke-width="1" fill="none"></path></g><g transform="translate(887.7830456317936 273.7760958202316) rotate(0 13.90425424868397 84.47737397075798)"><path d="M34.57 138.41 C33.49 145.78, 29.96 155.04, 26.89 165.81 M32.73 138.51 C31.07 146.87, 30.72 156.61, 28.17 167.67" stroke="#495057" stroke-width="1" fill="none"></path></g></g><g stroke-linecap="round"><g transform="translate(884.188476991216 277.76061007340377) rotate(0 11.50307768868231 -76.07929448689447)"><path d="M-0.44 0.9 C3.46 -24.54, 19.49 -125.76, 23.44 -151.46 M1.54 0.33 C5.28 -24.93, 19.03 -127.6, 22.52 -153.06" stroke="#495057" stroke-width="1" fill="none"></path></g><g transform="translate(884.188476991216 277.76061007340377) rotate(0 11.50307768868231 -76.07929448689447)"><path d="M30.4 -123.66 C28.32 -132.86, 23.31 -140.27, 21.31 -153.32 M28.18 -123.67 C26.56 -132.39, 26.36 -138.95, 21.67 -152.1" stroke="#495057" stroke-width="1" fill="none"></path></g><g transform="translate(884.188476991216 277.76061007340377) rotate(0 11.50307768868231 -76.07929448689447)"><path d="M10.07 -126.41 C14.21 -134.71, 15.39 -141.27, 21.31 -153.32 M7.85 -126.42 C11.75 -134.26, 17.09 -140.08, 21.67 -152.1" stroke="#495057" stroke-width="1" fill="none"></path></g></g><g transform="translate(917.2255068647526 108.5708316033697) rotate(0 18.5 12.5)"><text x="18.5" y="17" font-family="Virgil, Segoe UI Emoji" font-size="20px" fill="#495057" text-anchor="middle" style="white-space: pre;" direction="ltr">1</text></g><g transform="translate(916.5066457908085 197.35558774247147) rotate(0 18.5 12.5)"><text x="18.5" y="17" font-family="Virgil, Segoe UI Emoji" font-size="20px" fill="#495057" text-anchor="middle" style="white-space: pre;" direction="ltr">2</text></g><g transform="translate(919.3822217220129 275.7161836778123) rotate(0 18.5 12.5)"><text x="18.5" y="17" font-family="Virgil, Segoe UI Emoji" font-size="20px" fill="#495057" text-anchor="middle" style="white-space: pre;" direction="ltr">3</text></g><g transform="translate(924.7742721360225 375.6441256388998) rotate(0 18.5 12.5)"><text x="18.5" y="17" font-family="Virgil, Segoe UI Emoji" font-size="20px" fill="#495057" text-anchor="middle" style="white-space: pre;" direction="ltr">9</text></g><g transform="translate(924.7741405005947 445.7372268644576) rotate(0 18.5 12.5)"><text x="18.5" y="17" font-family="Virgil, Segoe UI Emoji" font-size="20px" fill="#495057" text-anchor="middle" style="white-space: pre;" direction="ltr">10</text></g><g transform="translate(915.1012144313861 54.91780561380983) rotate(0 20.5 14.5)"><text x="0" y="21" font-family="Virgil, Segoe UI Emoji" font-size="20px" fill="#495057" text-anchor="start" style="white-space: pre;" direction="ltr"></text></g><g stroke-linecap="round" transform="translate(10 10) rotate(0 517.6115821970659 259.1652298627191)"><path d="M129.58 0 M129.58 0 C372.4 -1.63, 614.19 -2.16, 905.64 0 M129.58 0 C317.95 -0.71, 505.65 -0.68, 905.64 0 M905.64 0 C992.47 -0.47, 1036.38 43.5, 1035.22 129.58 M905.64 0 C990.51 1.56, 1033.88 43.73, 1035.22 129.58 M1035.22 129.58 C1037.24 201.26, 1038.01 275, 1035.22 388.75 M1035.22 129.58 C1037.94 190.52, 1037.46 249.88, 1035.22 388.75 M1035.22 388.75 C1035.92 475.51, 993.83 518.95, 905.64 518.33 M1035.22 388.75 C1035.85 475.2, 990.19 516.95, 905.64 518.33 M905.64 518.33 C650.53 519.26, 394.55 520.06, 129.58 518.33 M905.64 518.33 C714.93 515.1, 524.74 514.98, 129.58 518.33 M129.58 518.33 C42.38 516.92, 1.82 474.86, 0 388.75 M129.58 518.33 C44.2 520.23, -1.52 475.87, 0 388.75 M0 388.75 C0.62 327.21, 1.76 263.18, 0 129.58 M0 388.75 C2.27 305.84, 0.93 223.16, 0 129.58 M0 129.58 C0.26 44.11, 41.63 -0.34, 129.58 0 M0 129.58 C1.01 44.85, 45.37 -1.76, 129.58 0" stroke="#495057" stroke-width="1" fill="none"></path></g><g transform="translate(482.3205208312994 18.253718858087268) rotate(0 35.5 12)"><text x="0" y="19" font-family="Cascadia, Segoe UI Emoji" font-size="20px" fill="#495057" text-anchor="start" style="white-space: pre;" direction="ltr">Model1</text></g></svg>