<svg version="1.1" xmlns="http://www.w3.org/2000/svg" viewBox="0 0 389.9682630965451 479.60055013165857" width="389.9682630965451" height="479.60055013165857">
  <!-- svg-source:excalidraw -->
  
  <defs>
    <style>
      @font-face {
        font-family: "Virgil";
        src: url("https://excalidraw.com/Virgil.woff2");
      }
      @font-face {
        font-family: "Cascadia";
        src: url("https://excalidraw.com/Cascadia.woff2");
      }
    </style>
  </defs>
  <rect x="0" y="0" width="389.9682630965451" height="479.60055013165857" fill="#ffffff"></rect><g stroke-linecap="round" transform="translate(14.598558766166661 94.8003251494938) rotate(0 56.69278475457344 27.938086778664)"><path d="M3.72 3.23 C3.72 3.23, 3.72 3.23, 3.72 3.23 M3.72 3.23 C3.72 3.23, 3.72 3.23, 3.72 3.23 M1.49 11.89 C2.96 8.93, 4.97 7.33, 9.36 2.84 M1.49 11.89 C4.64 8.8, 7.64 4.28, 9.36 2.84 M1.23 18.29 C7.32 12.49, 13 5.41, 15.66 1.69 M1.23 18.29 C4.69 14.1, 7.19 11.96, 15.66 1.69 M1.62 23.94 C11.09 14.08, 18.03 6.37, 21.3 1.29 M1.62 23.94 C8.2 16.04, 16 7.96, 21.3 1.29 M1.36 30.33 C8.77 22.94, 15.27 13.46, 26.29 1.65 M1.36 30.33 C6.27 25.33, 10.73 18.44, 26.29 1.65 M1.75 35.98 C11.83 26.99, 16.39 18.34, 31.93 1.26 M1.75 35.98 C11.44 23.49, 23.17 12.52, 31.93 1.26 M1.49 42.37 C11.86 31.75, 20.37 19.49, 36.92 1.62 M1.49 42.37 C9.41 33.23, 16.77 25, 36.92 1.62 M2.54 47.26 C16.2 32.88, 28.33 17.01, 42.56 1.22 M2.54 47.26 C15.76 31.33, 28.3 16.62, 42.56 1.22 M3.59 52.15 C15.61 37.78, 29.78 22.49, 47.55 1.58 M3.59 52.15 C14.84 40.52, 25.51 27.45, 47.55 1.58 M6.61 54.77 C25.95 34.51, 41.41 14.82, 53.19 1.19 M6.61 54.77 C19.99 39.48, 34.26 24.74, 53.19 1.19 M10.94 55.89 C28.04 34.9, 44.3 18.82, 58.18 1.55 M10.94 55.89 C25 40.75, 39.84 23.66, 58.18 1.55 M15.28 57 C30.71 37.6, 45.3 21.07, 63.17 1.91 M15.28 57 C30.11 40.84, 44.89 24.12, 63.17 1.91 M20.26 57.36 C36.18 39.63, 53.27 17.57, 68.81 1.52 M20.26 57.36 C30.82 43.99, 43.06 28.83, 68.81 1.52 M25.91 56.97 C39.58 41.56, 51.99 26.13, 73.8 1.88 M25.91 56.97 C44.26 35.28, 63.06 14.29, 73.8 1.88 M30.89 57.33 C42.73 42.42, 53.46 30.55, 79.44 1.48 M30.89 57.33 C48.05 38.73, 63.74 19.36, 79.44 1.48 M36.54 56.94 C49.14 43.58, 58.1 29.83, 84.43 1.84 M36.54 56.94 C54.07 36.75, 72.57 14.77, 84.43 1.84 M41.52 57.3 C56.9 39.55, 73 19.17, 90.07 1.45 M41.52 57.3 C57.71 39.31, 71.59 21.39, 90.07 1.45 M47.17 56.9 C66.81 36.32, 82.85 14.45, 95.06 1.81 M47.17 56.9 C58.69 43.96, 69.26 32.46, 95.06 1.81 M52.15 57.26 C67.97 37.98, 86.73 17.82, 100.7 1.41 M52.15 57.26 C66.58 40.77, 80.76 24.33, 100.7 1.41 M57.8 56.87 C76.39 35.85, 96.25 14.96, 105.03 2.53 M57.8 56.87 C74.47 38.5, 91.14 19.05, 105.03 2.53 M62.78 57.23 C74.85 46.07, 85.42 34.28, 109.36 3.64 M62.78 57.23 C76.99 41.05, 89.19 25.18, 109.36 3.64 M68.43 56.83 C81.11 39.59, 97.22 23.36, 112.38 6.27 M68.43 56.83 C78.82 43.69, 92.13 31.4, 112.38 6.27 M73.41 57.19 C82.76 44.22, 93.42 34.63, 113.43 11.15 M73.41 57.19 C85.4 44.24, 96.53 31.67, 113.43 11.15 M79.06 56.8 C90.37 41.59, 105.01 25.73, 113.83 16.8 M79.06 56.8 C91.16 42.59, 102.78 29.75, 113.83 16.8 M84.04 57.16 C94.79 46.03, 102.03 35.76, 113.57 23.2 M84.04 57.16 C94.01 45.08, 104.36 33.41, 113.57 23.2 M89.69 56.76 C97.58 49.33, 104.62 41.77, 113.96 28.84 M89.69 56.76 C97.36 48.03, 104.56 39.55, 113.96 28.84 M94.67 57.12 C102.61 50.02, 107.56 42.88, 113.7 35.24 M94.67 57.12 C99.49 49.93, 107.07 44.25, 113.7 35.24 M100.32 56.73 C103.99 51.23, 107.2 47.55, 113.44 41.63 M100.32 56.73 C102.96 52.05, 106 49.53, 113.44 41.63 M107.93 54.07 C111.95 49.91, 114.58 45.69, 116.46 44.26 M107.93 54.07 C111.09 50, 113.72 47.4, 116.46 44.26" stroke="#228be6" stroke-width="0.5" fill="none"></path><path d="M13.97 0 M13.97 0 C36.33 0.22, 58.82 -1.22, 99.42 0 M13.97 0 C35.01 -0.2, 56.33 0.22, 99.42 0 M99.42 0 C109.35 -0.38, 113.73 4.33, 113.39 13.97 M99.42 0 C107.68 1.03, 115.33 5.83, 113.39 13.97 M113.39 13.97 C112.37 24.46, 112.41 34.37, 113.39 41.91 M113.39 13.97 C112.62 25.19, 112.84 33.95, 113.39 41.91 M113.39 41.91 C114.16 53.05, 107.01 54.1, 99.42 55.88 M113.39 41.91 C114.24 50.64, 107.37 54.82, 99.42 55.88 M99.42 55.88 C69.22 53.93, 41.52 57.33, 13.97 55.88 M99.42 55.88 C81.02 56.61, 64.22 56.03, 13.97 55.88 M13.97 55.88 C3.76 53.97, 1.48 52.22, 0 41.91 M13.97 55.88 C4.57 57.2, 0.88 49.9, 0 41.91 M0 41.91 C0.21 35.58, 0.6 28.44, 0 13.97 M0 41.91 C0.26 34.1, -0.18 26.49, 0 13.97 M0 13.97 C-1.79 2.67, 4.01 -1.94, 13.97 0 M0 13.97 C-1.35 6.31, 2.81 0.59, 13.97 0" stroke="#495057" stroke-width="1" fill="none"></path></g><g transform="translate(19.59855876616666 112.2384119281578) rotate(0 51.69278475457344 10.5)"><text x="51.69278475457344" y="17" font-family="Cascadia, Segoe UI Emoji" font-size="18.13781921213104px" fill="#495057" text-anchor="middle" style="white-space: pre;" direction="ltr">Model A</text></g><g stroke-linecap="round" transform="translate(258.32222974459626 98.41583093333611) rotate(0 56.69278475457344 27.938086778664)"><path d="M3.72 3.23 C3.72 3.23, 3.72 3.23, 3.72 3.23 M3.72 3.23 C3.72 3.23, 3.72 3.23, 3.72 3.23 M1.49 11.89 C4.91 9.27, 7.65 5.37, 9.36 2.84 M1.49 11.89 C3.18 10.28, 4.47 8.36, 9.36 2.84 M1.23 18.29 C4.58 14, 9.93 8.25, 15.66 1.69 M1.23 18.29 C6.04 13.59, 9.29 8.02, 15.66 1.69 M1.62 23.94 C4.15 17.67, 10.83 13.48, 21.3 1.29 M1.62 23.94 C8.25 16.02, 16.5 7.7, 21.3 1.29 M1.36 30.33 C9.58 22.88, 16.72 11.82, 26.29 1.65 M1.36 30.33 C9.83 20.2, 18.63 11.23, 26.29 1.65 M1.75 35.98 C11.31 26, 17.89 15.3, 31.93 1.26 M1.75 35.98 C11.79 23.49, 24.33 11.6, 31.93 1.26 M1.49 42.37 C11.15 29.04, 22.43 14.8, 36.92 1.62 M1.49 42.37 C11.23 30.31, 22.99 18.23, 36.92 1.62 M2.54 47.26 C14.29 31.54, 29.5 16.89, 42.56 1.22 M2.54 47.26 C13.7 33.55, 24.87 21.37, 42.56 1.22 M3.59 52.15 C14.17 41.79, 22.49 30.11, 47.55 1.58 M3.59 52.15 C17.32 34.98, 32.03 18.24, 47.55 1.58 M6.61 54.77 C23.4 38.94, 34.28 21.95, 53.19 1.19 M6.61 54.77 C18.25 42.39, 29.77 28.49, 53.19 1.19 M10.94 55.89 C26.65 41.09, 39.26 22.64, 58.18 1.55 M10.94 55.89 C22.63 41.34, 35.53 27.72, 58.18 1.55 M15.28 57 C27.26 44.89, 36.46 33.44, 63.17 1.91 M15.28 57 C26.96 45.09, 37.38 30.87, 63.17 1.91 M20.26 57.36 C30.84 45.48, 43.34 29.97, 68.81 1.52 M20.26 57.36 C31.68 44.64, 43.13 31.01, 68.81 1.52 M25.91 56.97 C42.42 37.65, 57.75 21.29, 73.8 1.88 M25.91 56.97 C39.5 42.06, 52.3 26.87, 73.8 1.88 M30.89 57.33 C45.29 38.92, 62.66 21.83, 79.44 1.48 M30.89 57.33 C43.36 42.82, 56.76 28.32, 79.44 1.48 M36.54 56.94 C51.49 43.79, 63.73 29.21, 84.43 1.84 M36.54 56.94 C55.89 36.05, 73.76 13.15, 84.43 1.84 M41.52 57.3 C50.82 44.04, 60.61 34.22, 90.07 1.45 M41.52 57.3 C54.6 40.37, 68.93 26.35, 90.07 1.45 M47.17 56.9 C66.07 34.96, 83.04 14.32, 95.06 1.81 M47.17 56.9 C62.47 40.12, 77.77 22.46, 95.06 1.81 M52.15 57.26 C67.93 38.53, 81.29 23.12, 100.7 1.41 M52.15 57.26 C64.56 42.26, 77.56 26.77, 100.7 1.41 M57.8 56.87 C75.02 38.07, 91.98 15.83, 105.03 2.53 M57.8 56.87 C75.59 36.77, 91.94 17.17, 105.03 2.53 M62.78 57.23 C73.67 46.35, 83.87 34.72, 109.36 3.64 M62.78 57.23 C79.15 38.85, 95.06 20.03, 109.36 3.64 M68.43 56.83 C77.71 46.75, 88.78 33.49, 112.38 6.27 M68.43 56.83 C83.4 38, 98.49 22.08, 112.38 6.27 M73.41 57.19 C88.18 39.37, 102.51 21.33, 113.43 11.15 M73.41 57.19 C86.49 43.07, 96.43 29.35, 113.43 11.15 M79.06 56.8 C89.69 45.12, 100.36 31.25, 113.83 16.8 M79.06 56.8 C88.74 47.09, 95.68 36.41, 113.83 16.8 M84.04 57.16 C92.49 45.44, 103.18 34.02, 113.57 23.2 M84.04 57.16 C90.6 50.09, 96.58 43.34, 113.57 23.2 M89.69 56.76 C98.09 47.1, 104.99 38.96, 113.96 28.84 M89.69 56.76 C97.93 45.53, 107.83 35.35, 113.96 28.84 M94.67 57.12 C99.63 51.37, 103.19 46.93, 113.7 35.24 M94.67 57.12 C100.47 50.8, 103.35 46.64, 113.7 35.24 M100.32 56.73 C104.86 52.93, 106.79 47.56, 113.44 41.63 M100.32 56.73 C102.26 53.06, 106.85 49.49, 113.44 41.63 M107.93 54.07 C109.88 49.89, 114.02 48.78, 116.46 44.26 M107.93 54.07 C110.03 50.93, 112.89 48.45, 116.46 44.26" stroke="#fa5252" stroke-width="0.5" fill="none"></path><path d="M13.97 0 M13.97 0 C42.07 -0.86, 67.83 -1.07, 99.42 0 M13.97 0 C42.56 -0.84, 70.9 -0.27, 99.42 0 M99.42 0 C106.79 -1.17, 114.83 3.05, 113.39 13.97 M99.42 0 C109.32 -1.88, 111.9 4.57, 113.39 13.97 M113.39 13.97 C114.28 22.2, 113 33.93, 113.39 41.91 M113.39 13.97 C113.92 24.33, 113.69 34.54, 113.39 41.91 M113.39 41.91 C112.12 51, 107.63 53.93, 99.42 55.88 M113.39 41.91 C114.4 51.25, 107.48 57.05, 99.42 55.88 M99.42 55.88 C80.82 54.82, 61.16 53.65, 13.97 55.88 M99.42 55.88 C74.5 56.6, 50.12 55.69, 13.97 55.88 M13.97 55.88 C2.81 55.57, -0.42 53.18, 0 41.91 M13.97 55.88 C4.61 58.01, -0.53 51.97, 0 41.91 M0 41.91 C0.41 32.54, 1.67 20.52, 0 13.97 M0 41.91 C0.36 32.33, 0.15 22.11, 0 13.97 M0 13.97 C1.84 3.16, 4.25 -1.32, 13.97 0 M0 13.97 C1.75 5.79, 3.59 -1.78, 13.97 0" stroke="#495057" stroke-width="1" fill="none"></path></g><g transform="translate(263.32222974459626 115.85391771200011) rotate(0 51.69278475457344 10.5)"><text x="51.69278475457344" y="17" font-family="Cascadia, Segoe UI Emoji" font-size="18.13781921213104px" fill="#495057" text-anchor="middle" style="white-space: pre;" direction="ltr">Model B</text></g><g stroke-linecap="round" transform="translate(117.8051813509486 10) rotate(0 65.07928466015636 25.96597972054542)"><path d="M0 0 C0 0, 0 0, 0 0 M0 0 C0 0, 0 0, 0 0 M0.11 7.04 C2.31 3.87, 3.57 2.44, 4.55 0.52 M0.03 6.61 C1.71 4.1, 3.65 2.44, 5 0.1 M1.23 10.79 C3.05 8.58, 5.46 6.19, 11.91 -1.24 M0.69 11.29 C3.64 6.91, 8.79 2.89, 11.15 -0.54 M-1.9 19.83 C3.85 14.58, 7.66 5.87, 17.15 -1.47 M-0.79 18.69 C3.85 13.79, 5.5 11.68, 15.66 0.05 M-0.98 25.31 C7.5 14.98, 15.22 6.51, 19.83 0.27 M0.89 23.18 C4.26 18.81, 9.94 13.58, 20.96 0.21 M1.82 32 C8.43 21.87, 18.54 10.01, 25.47 0.76 M0.18 30.94 C7.99 22.06, 14.32 12.68, 27.03 0.57 M-1.86 36 C8.4 24.96, 17.77 15.71, 31.07 -0.7 M0.3 36.21 C8.33 26.16, 16.51 16.75, 32.25 -0.48 M-1.7 41.11 C11.53 32.17, 18.63 21, 36.77 -0.17 M-0.4 42.63 C9.54 32.01, 19.86 20.92, 37.47 -0.57 M-2.04 49.55 C13.21 34.6, 25.17 18.16, 41.68 -0.62 M0.81 49.8 C12.02 35.48, 22.92 20.88, 43.49 -0.16 M2.48 53.59 C17.55 34.78, 31.6 17.41, 47.14 -1.51 M1.17 53.76 C18.5 34.77, 34.8 14.93, 47.03 -0.14 M6.34 54.04 C24.99 31.39, 43.69 12.11, 52.57 1.66 M6.4 53.33 C24.85 32.89, 41.63 11.73, 52.18 -0.67 M13.01 53.69 C27.39 35.43, 43.59 14.92, 58.8 -0.18 M12.31 52.38 C23.52 40.63, 34.24 28.1, 58.4 -0.8 M16.78 51.7 C33.3 33.78, 52.74 12.87, 63.82 -1.33 M17.23 54.08 C27.03 41.45, 38.93 27.75, 63.97 0.72 M22.64 52.58 C31.37 41.75, 43.29 32.97, 70.15 1.24 M23.58 52.71 C39.86 33.85, 57.11 12.73, 67.97 -0.17 M29.6 52.61 C43.24 35.09, 61.15 15.04, 72.63 0.24 M27.8 53.92 C41.13 39.3, 54.05 22.14, 73.72 0.33 M34.47 52.26 C48.16 34.84, 62.39 18.31, 77.73 0.54 M33.87 52.01 C44.75 38.44, 57.13 24.86, 78.79 0.24 M39.22 54.67 C54.02 36.65, 69.81 16.08, 83.38 -0.42 M39.22 54.25 C52.34 35.98, 67.99 17.39, 84.43 -0.96 M42.75 54.04 C57.81 39.03, 70.12 23.21, 90.25 1.83 M44.26 52.1 C60.12 34.44, 77.21 15.52, 89.57 -0.02 M48.23 54.12 C64.5 36.68, 79.04 22.42, 97.61 -0.78 M48.29 53.57 C64.16 36.3, 78.27 19.59, 96.28 -0.67 M54.88 52.59 C66.14 39.18, 79.74 24.87, 102.57 1.58 M55 52.4 C71.14 33.99, 87.92 14.54, 99.72 0.69 M61.35 51.55 C77.45 33.84, 97.56 11.63, 107.99 1.05 M60.44 52.45 C74.03 34.99, 89.87 18.46, 105.63 0.24 M65.44 53.91 C77.8 39.66, 91 22.68, 109.71 -1.43 M64.5 52.89 C83.31 33.16, 101.1 12.25, 110.3 -0.93 M71.48 53.87 C84.43 32.45, 103.79 16.74, 115.73 1.03 M70.82 52.54 C84.12 37.8, 95.82 22.79, 115.36 1.15 M73.47 54.1 C85.13 38.35, 97.07 23.99, 120.83 -0.03 M75.69 53.88 C89.44 36.75, 106.05 18.52, 121.05 -0.09 M81.66 52.38 C92.83 41.37, 102.54 30.43, 127.13 0.25 M81.23 53.57 C98.33 34.84, 114.28 16.15, 126.47 -0.24 M87.17 54.36 C102.89 36.33, 115.85 19.34, 131.96 0.77 M85.66 54.01 C99.45 38.99, 111.92 22.97, 132.06 0.6 M91.1 52.68 C105.14 37.51, 119.89 22.16, 129.79 6.15 M91.13 52.34 C107.26 36.79, 121.72 20.13, 131.27 6.39 M97.91 55.48 C106.01 40.17, 119.02 30.35, 130.7 11.86 M96.68 53.75 C104.42 44.38, 112.4 35.19, 131.55 14.13 M101.17 52.74 C109.19 45.8, 115.21 37.56, 130.34 20.48 M102.68 53.73 C108.1 45.43, 115.87 37.27, 132.12 18.9 M108.89 52.83 C114.65 45.12, 123.84 31.19, 129.88 26.87 M107.85 53.39 C114.17 45.51, 118.67 38.53, 132.46 24.96 M113.36 52.86 C120.71 47.16, 126.04 39.26, 131.17 31.33 M113.68 53.71 C116.51 48.74, 122.95 42.26, 131.17 31.69 M116.44 55.15 C123.22 48.59, 127.38 43.23, 131.3 38.31 M117.44 52.82 C121.85 49.26, 126.37 42.99, 131.2 38.19 M123.42 53.42 C125.52 51.15, 126.4 48.74, 131.29 44.66 M122.98 52.6 C126.28 51.04, 127.5 47.86, 131.82 44.46 M128.38 53.67 C130.04 52, 130.44 51.18, 132.06 49.47 M128.35 53.17 C129.4 52.16, 130.8 50.72, 131.8 49.72" stroke="#ced4da" stroke-width="0.5" fill="none"></path><path d="M1.12 0.55 C44.6 2.51, 85.93 -0.7, 128.43 0.3 M0.77 0.37 C50.45 -1.1, 100.74 -1.2, 130.77 0.13 M129.25 1.35 C129.71 15.43, 131.2 32.77, 130.08 52.16 M130.4 -0.26 C129.91 20.05, 130.05 38.77, 129.18 51.78 M129.12 51.69 C84.42 51.88, 36.07 54.08, 1.31 53.87 M129.67 52.54 C100.31 51.28, 70.75 52.62, 0.01 52.36 M0.59 50.82 C0.14 32.11, 1.32 15.77, 1.57 -1.03 M-0.67 51.89 C-0.55 38.27, -0.81 22.88, -0.98 -0.94" stroke="#495057" stroke-width="1" fill="none"></path></g><g transform="translate(122.8051813509486 25.465979720544965) rotate(0 60.07928466015636 10.5)"><text x="60.079284660156375" y="17" font-family="Cascadia, Segoe UI Emoji" font-size="18.205843836411038px" fill="#495057" text-anchor="middle" style="white-space: pre;" direction="ltr">Data</text></g><g stroke-linecap="round" transform="translate(14.518886270320763 194.5556080425722) rotate(0 56.69278475457344 27.938086778664)"><path d="M3.72 3.23 C3.72 3.23, 3.72 3.23, 3.72 3.23 M3.72 3.23 C3.72 3.23, 3.72 3.23, 3.72 3.23 M1.49 11.89 C4.98 7.56, 7.63 6.25, 9.36 2.84 M1.49 11.89 C3.04 9.87, 4.45 8.1, 9.36 2.84 M1.23 18.29 C7.66 13.41, 12.59 4.63, 15.66 1.69 M1.23 18.29 C7.27 11.85, 11.47 5.13, 15.66 1.69 M1.62 23.94 C7.53 19.55, 11.28 10.28, 21.3 1.29 M1.62 23.94 C8.28 15.45, 16.53 7.11, 21.3 1.29 M1.36 30.33 C6.72 26.25, 10.76 17.01, 26.29 1.65 M1.36 30.33 C7.52 23.27, 13.21 16.65, 26.29 1.65 M1.75 35.98 C10.98 25.05, 18.82 16.41, 31.93 1.26 M1.75 35.98 C10.18 24.55, 19.45 14.32, 31.93 1.26 M1.49 42.37 C10.73 33.07, 20.04 24.16, 36.92 1.62 M1.49 42.37 C14.51 26.75, 26.78 11.96, 36.92 1.62 M2.54 47.26 C16.73 33.88, 26.4 18.01, 42.56 1.22 M2.54 47.26 C13.29 34.46, 25.2 22.25, 42.56 1.22 M3.59 52.15 C13.64 41.92, 21.96 28.5, 47.55 1.58 M3.59 52.15 C20.72 33.03, 36.59 12.75, 47.55 1.58 M6.61 54.77 C20.76 37.03, 37.03 20.85, 53.19 1.19 M6.61 54.77 C20.47 39.6, 33.5 25.84, 53.19 1.19 M10.94 55.89 C28.65 33.19, 46.95 13.31, 58.18 1.55 M10.94 55.89 C26.27 38.36, 42.44 19.28, 58.18 1.55 M15.28 57 C29.21 40.26, 43.26 25.79, 63.17 1.91 M15.28 57 C29.04 40.23, 41.01 25.55, 63.17 1.91 M20.26 57.36 C31.23 43.13, 43.34 30.45, 68.81 1.52 M20.26 57.36 C39.69 34.66, 57.89 14.34, 68.81 1.52 M25.91 56.97 C45.55 36.07, 63.4 14.24, 73.8 1.88 M25.91 56.97 C43.69 36.36, 62.78 15.72, 73.8 1.88 M30.89 57.33 C46.91 37.07, 66.81 16.35, 79.44 1.48 M30.89 57.33 C49.5 34.48, 70.26 12.23, 79.44 1.48 M36.54 56.94 C50.32 42.22, 64.27 25.27, 84.43 1.84 M36.54 56.94 C46.94 46.3, 56.91 34.84, 84.43 1.84 M41.52 57.3 C52.94 44.77, 62.95 33.31, 90.07 1.45 M41.52 57.3 C56.09 40.63, 71.14 22.08, 90.07 1.45 M47.17 56.9 C57.3 45.63, 70.42 30.56, 95.06 1.81 M47.17 56.9 C62.35 38.37, 78.45 21.12, 95.06 1.81 M52.15 57.26 C68.48 40.14, 81.85 21.72, 100.7 1.41 M52.15 57.26 C69.5 37.34, 86.57 17.92, 100.7 1.41 M57.8 56.87 C74.25 38.37, 91.52 20.57, 105.03 2.53 M57.8 56.87 C71.81 41.5, 85.79 25.65, 105.03 2.53 M62.78 57.23 C79.21 35.74, 98.34 16.84, 109.36 3.64 M62.78 57.23 C75.97 42.56, 87.51 28.23, 109.36 3.64 M68.43 56.83 C84.65 40.01, 97.54 23.81, 112.38 6.27 M68.43 56.83 C83.41 40.33, 97.59 22.29, 112.38 6.27 M73.41 57.19 C82.07 46.52, 91.69 37.29, 113.43 11.15 M73.41 57.19 C85.81 43.58, 95.77 30.88, 113.43 11.15 M79.06 56.8 C87.27 48.86, 93.38 37.7, 113.83 16.8 M79.06 56.8 C90.56 45.42, 100 31.51, 113.83 16.8 M84.04 57.16 C92.12 44.46, 103.37 35.22, 113.57 23.2 M84.04 57.16 C93.48 46.23, 102.76 36.55, 113.57 23.2 M89.69 56.76 C96.83 45.59, 107.15 36.6, 113.96 28.84 M89.69 56.76 C96.66 48.72, 104.2 39.84, 113.96 28.84 M94.67 57.12 C99.88 49.68, 108.68 41.13, 113.7 35.24 M94.67 57.12 C101.04 49.66, 108.32 42, 113.7 35.24 M100.32 56.73 C101.3 51.77, 107.45 49, 113.44 41.63 M100.32 56.73 C103.64 53.35, 106.47 47.72, 113.44 41.63 M107.93 54.07 C110.44 50.68, 111.02 49.92, 116.46 44.26 M107.93 54.07 C110.37 51.45, 112.78 48.13, 116.46 44.26" stroke="#228be6" stroke-width="0.5" fill="none"></path><path d="M13.97 0 M13.97 0 C37.18 2.03, 55.21 2.45, 99.42 0 M13.97 0 C46.42 0.03, 79.75 -0.29, 99.42 0 M99.42 0 C107.31 1.72, 114.73 4.47, 113.39 13.97 M99.42 0 C110.36 -0.97, 113.01 5.49, 113.39 13.97 M113.39 13.97 C112.72 21.42, 113.18 32.66, 113.39 41.91 M113.39 13.97 C113.81 21.7, 113.69 30.64, 113.39 41.91 M113.39 41.91 C113.25 51.87, 109.29 55.99, 99.42 55.88 M113.39 41.91 C112.42 50.54, 108.57 57.18, 99.42 55.88 M99.42 55.88 C73.52 54, 52.82 57.23, 13.97 55.88 M99.42 55.88 C81.69 57.06, 62.18 55.62, 13.97 55.88 M13.97 55.88 C4.24 56.99, 1.51 50.9, 0 41.91 M13.97 55.88 C2.89 57.9, 1.32 50.56, 0 41.91 M0 41.91 C-1.32 30.81, -1.38 23.67, 0 13.97 M0 41.91 C0.56 32.62, 0.1 21.77, 0 13.97 M0 13.97 C0.87 5.86, 3.08 0.7, 13.97 0 M0 13.97 C1.97 5.21, 5.97 -0.16, 13.97 0" stroke="#495057" stroke-width="1" fill="none"></path></g><g transform="translate(19.518886270320763 211.9936948212362) rotate(0 51.69278475457344 10.5)"><text x="51.69278475457344" y="17" font-family="Cascadia, Segoe UI Emoji" font-size="18.13781921213104px" fill="#495057" text-anchor="middle" style="white-space: pre;" direction="ltr">Model A</text></g><g stroke-linecap="round" transform="translate(259.5572702109524 192.9121717020398) rotate(0 56.69278475457344 27.938086778664)"><path d="M3.72 3.23 C3.72 3.23, 3.72 3.23, 3.72 3.23 M3.72 3.23 C3.72 3.23, 3.72 3.23, 3.72 3.23 M1.49 11.89 C4.53 9.79, 6.02 5.4, 9.36 2.84 M1.49 11.89 C4.08 8.6, 7.68 5.94, 9.36 2.84 M1.23 18.29 C6.98 11.15, 13.25 5.38, 15.66 1.69 M1.23 18.29 C4.62 12.86, 8.93 9.65, 15.66 1.69 M1.62 23.94 C7.64 14.46, 16.81 7.41, 21.3 1.29 M1.62 23.94 C8.81 16.22, 15.05 7.51, 21.3 1.29 M1.36 30.33 C9.52 18.28, 17.75 10.75, 26.29 1.65 M1.36 30.33 C10.11 20.4, 17.77 10.84, 26.29 1.65 M1.75 35.98 C8.39 28.13, 14.44 20.78, 31.93 1.26 M1.75 35.98 C11.43 24.09, 21.89 12.01, 31.93 1.26 M1.49 42.37 C14.24 30.37, 24.83 16.75, 36.92 1.62 M1.49 42.37 C14.65 26.33, 29.68 10.88, 36.92 1.62 M2.54 47.26 C16.47 29.35, 33.7 8.35, 42.56 1.22 M2.54 47.26 C12.61 36.53, 21.29 26, 42.56 1.22 M3.59 52.15 C18.71 32.49, 39.17 13.83, 47.55 1.58 M3.59 52.15 C12.59 40.06, 23.67 29.5, 47.55 1.58 M6.61 54.77 C20.66 40.23, 33.81 22.4, 53.19 1.19 M6.61 54.77 C23.11 37.34, 39.06 17.95, 53.19 1.19 M10.94 55.89 C24.27 39.92, 41.17 21.23, 58.18 1.55 M10.94 55.89 C25.34 38.77, 39.91 21.82, 58.18 1.55 M15.28 57 C30.05 40.81, 44.5 25.24, 63.17 1.91 M15.28 57 C31.94 36.89, 50.47 15.07, 63.17 1.91 M20.26 57.36 C33.55 41.79, 51.96 25.27, 68.81 1.52 M20.26 57.36 C33.45 42.79, 48.06 26.44, 68.81 1.52 M25.91 56.97 C44.82 35.56, 63.81 12.85, 73.8 1.88 M25.91 56.97 C36.93 45.07, 46.73 34.17, 73.8 1.88 M30.89 57.33 C49.98 36.41, 68.45 15.94, 79.44 1.48 M30.89 57.33 C47.47 39.12, 61.78 21.54, 79.44 1.48 M36.54 56.94 C51.72 39.04, 63.72 21.36, 84.43 1.84 M36.54 56.94 C53.7 37.69, 68.94 17.12, 84.43 1.84 M41.52 57.3 C60.13 36.16, 77.84 15.03, 90.07 1.45 M41.52 57.3 C58.08 37.13, 74.81 17.14, 90.07 1.45 M47.17 56.9 C67.29 33.94, 84.12 13.09, 95.06 1.81 M47.17 56.9 C59.19 43.43, 72.02 30.01, 95.06 1.81 M52.15 57.26 C59.93 46.33, 72.49 33.64, 100.7 1.41 M52.15 57.26 C62.42 45.3, 73.23 33.37, 100.7 1.41 M57.8 56.87 C76.11 38.16, 90.55 20.11, 105.03 2.53 M57.8 56.87 C67.83 45.89, 77.99 34.1, 105.03 2.53 M62.78 57.23 C82.16 36.4, 98.95 16.84, 109.36 3.64 M62.78 57.23 C77.57 39.69, 94.65 20.1, 109.36 3.64 M68.43 56.83 C80.46 42.84, 94.96 28.67, 112.38 6.27 M68.43 56.83 C78.81 43.73, 90.35 30.94, 112.38 6.27 M73.41 57.19 C84.31 46.09, 95.15 30.07, 113.43 11.15 M73.41 57.19 C82.52 45.4, 92.52 34.87, 113.43 11.15 M79.06 56.8 C89.48 42.21, 101.73 30.44, 113.83 16.8 M79.06 56.8 C87.78 44.81, 98.57 34.97, 113.83 16.8 M84.04 57.16 C91.83 49.23, 100.22 39.75, 113.57 23.2 M84.04 57.16 C92.17 48.72, 99.82 39.04, 113.57 23.2 M89.69 56.76 C96.44 49.09, 103.92 40.41, 113.96 28.84 M89.69 56.76 C96.22 48.95, 104.48 40.71, 113.96 28.84 M94.67 57.12 C102.85 48.2, 109.31 40.76, 113.7 35.24 M94.67 57.12 C102.47 48.8, 107.86 42.05, 113.7 35.24 M100.32 56.73 C104.96 52.21, 106.15 51, 113.44 41.63 M100.32 56.73 C104.33 50.31, 109.12 46.67, 113.44 41.63 M107.93 54.07 C109.2 52.09, 111.87 50.18, 116.46 44.26 M107.93 54.07 C111.05 50.21, 113.91 46.89, 116.46 44.26" stroke="#fa5252" stroke-width="0.5" fill="none"></path><path d="M13.97 0 M13.97 0 C30.14 1.15, 51.83 -1.12, 99.42 0 M13.97 0 C39.36 -0.33, 63.23 0.89, 99.42 0 M99.42 0 C110.07 -0.19, 114.8 3.81, 113.39 13.97 M99.42 0 C108.35 0.84, 113.62 6.02, 113.39 13.97 M113.39 13.97 C112.9 22.37, 113.38 26.7, 113.39 41.91 M113.39 13.97 C114.05 20.71, 113.49 28.61, 113.39 41.91 M113.39 41.91 C113.94 51.34, 107.89 55.29, 99.42 55.88 M113.39 41.91 C113.22 52.52, 108.33 54.76, 99.42 55.88 M99.42 55.88 C79.74 57.03, 54.99 54.96, 13.97 55.88 M99.42 55.88 C67.31 55.46, 35.37 56.9, 13.97 55.88 M13.97 55.88 C6.17 55.56, -1.54 52.98, 0 41.91 M13.97 55.88 C5.98 55.21, 0.74 52.71, 0 41.91 M0 41.91 C-1.04 32.39, 1.42 21.04, 0 13.97 M0 41.91 C-0.17 33.38, 0.33 25.15, 0 13.97 M0 13.97 C-1.58 5.36, 6.37 0.48, 13.97 0 M0 13.97 C1.31 4.5, 5.86 -2.08, 13.97 0" stroke="#495057" stroke-width="1" fill="none"></path></g><g transform="translate(264.5572702109524 210.35025848070381) rotate(0 51.69278475457344 10.5)"><text x="51.69278475457344" y="17" font-family="Cascadia, Segoe UI Emoji" font-size="18.13781921213104px" fill="#495057" text-anchor="middle" style="white-space: pre;" direction="ltr">Model B</text></g><g stroke-linecap="round" transform="translate(14.190162891993623 291.18845517337377) rotate(0 56.69278475457344 27.938086778664)"><path d="M3.72 3.23 C3.72 3.23, 3.72 3.23, 3.72 3.23 M3.72 3.23 C3.72 3.23, 3.72 3.23, 3.72 3.23 M1.49 11.89 C4.99 8.34, 5.52 7.02, 9.36 2.84 M1.49 11.89 C4.14 8.38, 7.82 5.08, 9.36 2.84 M1.23 18.29 C4.81 14.08, 11.04 8.7, 15.66 1.69 M1.23 18.29 C4.05 14.42, 7.95 10.9, 15.66 1.69 M1.62 23.94 C8.19 16.56, 13.09 12.9, 21.3 1.29 M1.62 23.94 C8.31 16.84, 14.52 8.84, 21.3 1.29 M1.36 30.33 C8.06 24.09, 14.32 13.03, 26.29 1.65 M1.36 30.33 C10.53 19.94, 20.67 7.66, 26.29 1.65 M1.75 35.98 C14.29 21.53, 22.37 8.65, 31.93 1.26 M1.75 35.98 C12.98 21.53, 26.06 8.27, 31.93 1.26 M1.49 42.37 C14.87 27.58, 26.17 12, 36.92 1.62 M1.49 42.37 C13.7 28.23, 25.11 17.13, 36.92 1.62 M2.54 47.26 C13.37 35.66, 23.58 20.95, 42.56 1.22 M2.54 47.26 C18.4 29.1, 32.98 12.11, 42.56 1.22 M3.59 52.15 C16.1 35.46, 30.19 22.36, 47.55 1.58 M3.59 52.15 C17.99 36.08, 31.3 21.01, 47.55 1.58 M6.61 54.77 C20.22 38.09, 33.17 23.08, 53.19 1.19 M6.61 54.77 C22.83 35.01, 39.22 17.62, 53.19 1.19 M10.94 55.89 C31.23 36.44, 49.23 13.35, 58.18 1.55 M10.94 55.89 C21.78 44, 30.23 33.57, 58.18 1.55 M15.28 57 C33.85 38.19, 48.54 15.64, 63.17 1.91 M15.28 57 C26.09 43.58, 38.57 31.12, 63.17 1.91 M20.26 57.36 C35.64 39.17, 49.4 26.06, 68.81 1.52 M20.26 57.36 C36.19 38.41, 50.57 20.77, 68.81 1.52 M25.91 56.97 C38.94 44.38, 51.79 28.16, 73.8 1.88 M25.91 56.97 C43.98 36.08, 61.45 16.04, 73.8 1.88 M30.89 57.33 C44.34 43.28, 57.24 28.17, 79.44 1.48 M30.89 57.33 C45.12 41.43, 59.18 25.77, 79.44 1.48 M36.54 56.94 C44.88 46.94, 56.45 34.66, 84.43 1.84 M36.54 56.94 C53.2 38.6, 67.58 19.52, 84.43 1.84 M41.52 57.3 C58.17 37.58, 74.59 20.2, 90.07 1.45 M41.52 57.3 C57.85 37.31, 74.64 18.82, 90.07 1.45 M47.17 56.9 C57.57 45.12, 71.57 32.01, 95.06 1.81 M47.17 56.9 C65.48 35.68, 83.11 15.54, 95.06 1.81 M52.15 57.26 C68.21 37.99, 85.08 20.28, 100.7 1.41 M52.15 57.26 C70.38 37.18, 87.28 17.43, 100.7 1.41 M57.8 56.87 C66.31 44.43, 76.07 34.45, 105.03 2.53 M57.8 56.87 C74.55 36.21, 92.73 14.15, 105.03 2.53 M62.78 57.23 C74.19 41.92, 88.73 26.65, 109.36 3.64 M62.78 57.23 C78.7 38.31, 95.94 19.05, 109.36 3.64 M68.43 56.83 C80.59 44.69, 91.14 30.49, 112.38 6.27 M68.43 56.83 C79.19 44.26, 91.29 31.54, 112.38 6.27 M73.41 57.19 C83.86 44.99, 96.48 27.94, 113.43 11.15 M73.41 57.19 C88.39 40.99, 101.58 24.12, 113.43 11.15 M79.06 56.8 C88.55 45.74, 98.52 32.4, 113.83 16.8 M79.06 56.8 C90.54 42.53, 104.75 28.55, 113.83 16.8 M84.04 57.16 C91.15 46.62, 99.31 41.08, 113.57 23.2 M84.04 57.16 C95.08 42.77, 107.04 30.06, 113.57 23.2 M89.69 56.76 C99.16 47.13, 104.12 39.91, 113.96 28.84 M89.69 56.76 C97.04 47.52, 104.25 40.72, 113.96 28.84 M94.67 57.12 C98.97 53.36, 101.24 47.76, 113.7 35.24 M94.67 57.12 C99.27 50.73, 104.01 44.78, 113.7 35.24 M100.32 56.73 C105.41 52.68, 110.1 48.91, 113.44 41.63 M100.32 56.73 C104.36 51.35, 108.76 46.86, 113.44 41.63 M107.93 54.07 C110.99 49.2, 114.04 47.84, 116.46 44.26 M107.93 54.07 C111.42 50.45, 114.69 46.31, 116.46 44.26" stroke="#228be6" stroke-width="0.5" fill="none"></path><path d="M13.97 0 M13.97 0 C45.73 0.69, 75.81 0.28, 99.42 0 M13.97 0 C41.6 -1.65, 68.26 -0.33, 99.42 0 M99.42 0 C106.83 -1.74, 115.12 4.19, 113.39 13.97 M99.42 0 C109.82 2.07, 115.43 5.85, 113.39 13.97 M113.39 13.97 C113.43 22.81, 111.65 30.43, 113.39 41.91 M113.39 13.97 C113.2 24.17, 112.99 32.89, 113.39 41.91 M113.39 41.91 C114.08 52.43, 109.31 55.69, 99.42 55.88 M113.39 41.91 C115.52 52.14, 107.31 54.64, 99.42 55.88 M99.42 55.88 C68.08 55.07, 40.9 57.57, 13.97 55.88 M99.42 55.88 C65.38 55.35, 33.11 55.37, 13.97 55.88 M13.97 55.88 C3.45 54.68, -0.2 52.77, 0 41.91 M13.97 55.88 C2.54 57.7, -0.55 51.52, 0 41.91 M0 41.91 C0.98 33.51, 0.44 23.97, 0 13.97 M0 41.91 C-0.04 33.82, 0.34 25.23, 0 13.97 M0 13.97 C-1.77 6.65, 2.85 -0.04, 13.97 0 M0 13.97 C-1.5 4.16, 6.9 -1.66, 13.97 0" stroke="#495057" stroke-width="1" fill="none"></path></g><g transform="translate(19.190162891993623 308.62654195203777) rotate(0 51.69278475457344 10.5)"><text x="51.69278475457344" y="17" font-family="Cascadia, Segoe UI Emoji" font-size="18.13781921213104px" fill="#495057" text-anchor="middle" style="white-space: pre;" direction="ltr">Model A</text></g><g stroke-linecap="round" transform="translate(265.8022921947485 294.8040211409125) rotate(0 56.69278475457344 27.938086778664)"><path d="M3.72 3.23 C3.72 3.23, 3.72 3.23, 3.72 3.23 M3.72 3.23 C3.72 3.23, 3.72 3.23, 3.72 3.23 M1.49 11.89 C3.7 9.1, 8.15 4.93, 9.36 2.84 M1.49 11.89 C3.55 9.98, 5.14 7.71, 9.36 2.84 M1.23 18.29 C6.65 13.77, 9.85 6.45, 15.66 1.69 M1.23 18.29 C4.34 15.01, 6.93 11.38, 15.66 1.69 M1.62 23.94 C7 19.71, 11.35 14.98, 21.3 1.29 M1.62 23.94 C5.87 18.71, 10.87 13.55, 21.3 1.29 M1.36 30.33 C8.05 20.23, 17.87 12.13, 26.29 1.65 M1.36 30.33 C6.28 23.89, 12.68 18.88, 26.29 1.65 M1.75 35.98 C8.62 24.63, 21.09 14.7, 31.93 1.26 M1.75 35.98 C12.88 23.89, 23.8 12.54, 31.93 1.26 M1.49 42.37 C11.55 28.97, 23.32 15.69, 36.92 1.62 M1.49 42.37 C15.57 28.02, 27.93 11.6, 36.92 1.62 M2.54 47.26 C12.89 32.98, 26.37 23.04, 42.56 1.22 M2.54 47.26 C13.68 34.42, 25.57 21.27, 42.56 1.22 M3.59 52.15 C14.5 41.05, 26.05 25.61, 47.55 1.58 M3.59 52.15 C15.04 39.14, 25.74 26.92, 47.55 1.58 M6.61 54.77 C21.27 37.26, 38.27 19.48, 53.19 1.19 M6.61 54.77 C17.87 42.56, 31.19 27.4, 53.19 1.19 M10.94 55.89 C25.13 39.64, 35.73 24.08, 58.18 1.55 M10.94 55.89 C26.56 37.52, 44.7 17.03, 58.18 1.55 M15.28 57 C29.69 36.64, 45.53 20.48, 63.17 1.91 M15.28 57 C33.39 37.81, 50.33 17.09, 63.17 1.91 M20.26 57.36 C37.32 40.26, 53.78 20.49, 68.81 1.52 M20.26 57.36 C33.38 40.98, 48.09 25.47, 68.81 1.52 M25.91 56.97 C36.23 45.31, 46.54 33.64, 73.8 1.88 M25.91 56.97 C45.46 34.6, 63.26 12.52, 73.8 1.88 M30.89 57.33 C43.84 42.64, 54.23 27.91, 79.44 1.48 M30.89 57.33 C44.92 41.56, 56.51 26.99, 79.44 1.48 M36.54 56.94 C56.49 35.19, 75.28 14.46, 84.43 1.84 M36.54 56.94 C48.19 41.49, 62.5 27.79, 84.43 1.84 M41.52 57.3 C61.54 36.11, 80.8 15.03, 90.07 1.45 M41.52 57.3 C51.08 46.58, 60.32 34.53, 90.07 1.45 M47.17 56.9 C67.6 36.46, 85.5 13.48, 95.06 1.81 M47.17 56.9 C63.03 38.64, 80.26 19.1, 95.06 1.81 M52.15 57.26 C66.43 41.74, 80.47 24.96, 100.7 1.41 M52.15 57.26 C69.56 37.27, 85.7 18.05, 100.7 1.41 M57.8 56.87 C75.53 36.45, 95.65 17.3, 105.03 2.53 M57.8 56.87 C71.83 39.21, 86.93 22.65, 105.03 2.53 M62.78 57.23 C80.53 36.48, 98.24 17.63, 109.36 3.64 M62.78 57.23 C78.64 39.27, 93.95 20.72, 109.36 3.64 M68.43 56.83 C79.09 43.48, 88.46 32.69, 112.38 6.27 M68.43 56.83 C82.88 41.39, 95.61 26.25, 112.38 6.27 M73.41 57.19 C80.1 46.79, 90.96 39.34, 113.43 11.15 M73.41 57.19 C85.01 42.85, 97.04 29.7, 113.43 11.15 M79.06 56.8 C90.28 42.18, 104.2 30.86, 113.83 16.8 M79.06 56.8 C88.01 48.29, 94.76 38.61, 113.83 16.8 M84.04 57.16 C93.86 47.78, 105.07 37.32, 113.57 23.2 M84.04 57.16 C93.76 46.16, 103.75 34.43, 113.57 23.2 M89.69 56.76 C95.22 49.76, 103.8 41.72, 113.96 28.84 M89.69 56.76 C99.35 46.88, 107.97 34.8, 113.96 28.84 M94.67 57.12 C99.37 49.86, 107.21 40.39, 113.7 35.24 M94.67 57.12 C99.05 50.54, 105.4 44.91, 113.7 35.24 M100.32 56.73 C104.75 54.8, 107.35 48.8, 113.44 41.63 M100.32 56.73 C103.67 52.75, 108.32 47.75, 113.44 41.63 M107.93 54.07 C109.93 52.55, 113.86 49.2, 116.46 44.26 M107.93 54.07 C110.42 51.2, 113.16 49.04, 116.46 44.26" stroke="#fa5252" stroke-width="0.5" fill="none"></path><path d="M13.97 0 M13.97 0 C47.07 0.35, 78.4 1.06, 99.42 0 M13.97 0 C45.96 1.18, 77.83 -0.04, 99.42 0 M99.42 0 C110.46 -0.46, 114.33 6.46, 113.39 13.97 M99.42 0 C110.77 1.2, 113.52 5, 113.39 13.97 M113.39 13.97 C111.61 19.49, 114.44 28.09, 113.39 41.91 M113.39 13.97 C112.61 19.99, 113.61 28.2, 113.39 41.91 M113.39 41.91 C113.96 51.03, 110.58 56.67, 99.42 55.88 M113.39 41.91 C111.96 49.99, 109.84 55.25, 99.42 55.88 M99.42 55.88 C73.84 57.08, 48.05 57.42, 13.97 55.88 M99.42 55.88 C77.89 55.51, 53.95 55.1, 13.97 55.88 M13.97 55.88 C4.45 57.43, -1.84 52.81, 0 41.91 M13.97 55.88 C4.1 56.17, 0.55 49.88, 0 41.91 M0 41.91 C0.17 31.85, 0.03 20.72, 0 13.97 M0 41.91 C0.27 33.29, -0.84 24.68, 0 13.97 M0 13.97 C-1.81 4.62, 3.35 -0.43, 13.97 0 M0 13.97 C2.25 2.99, 3.17 -2.28, 13.97 0" stroke="#495057" stroke-width="1" fill="none"></path></g><g transform="translate(270.8022921947485 312.2421079195765) rotate(0 51.69278475457344 10.5)"><text x="51.69278475457344" y="17" font-family="Cascadia, Segoe UI Emoji" font-size="18.13781921213104px" fill="#495057" text-anchor="middle" style="white-space: pre;" direction="ltr">Model B</text></g><g stroke-linecap="round" transform="translate(10 413.72437657433056) rotate(0 56.69278475457344 27.938086778664)"><path d="M3.72 3.23 C3.72 3.23, 3.72 3.23, 3.72 3.23 M3.72 3.23 C3.72 3.23, 3.72 3.23, 3.72 3.23 M1.49 11.89 C4.01 9.87, 5.67 6.73, 9.36 2.84 M1.49 11.89 C3.34 9.71, 5.95 7.42, 9.36 2.84 M1.23 18.29 C3.81 15.05, 8.43 7.22, 15.66 1.69 M1.23 18.29 C7.27 12.54, 11.37 6.11, 15.66 1.69 M1.62 23.94 C6.75 18.03, 12.3 9.77, 21.3 1.29 M1.62 23.94 C7.75 15.88, 16.47 8.21, 21.3 1.29 M1.36 30.33 C7.3 21.15, 14.29 16.96, 26.29 1.65 M1.36 30.33 C10.63 18.05, 20.77 7.43, 26.29 1.65 M1.75 35.98 C13.18 24.15, 20.05 14.74, 31.93 1.26 M1.75 35.98 C10.84 24.64, 19.82 15.8, 31.93 1.26 M1.49 42.37 C9.45 34.34, 15.37 24.54, 36.92 1.62 M1.49 42.37 C10.59 31.01, 19.7 20.03, 36.92 1.62 M2.54 47.26 C16.43 33.39, 29.79 19.64, 42.56 1.22 M2.54 47.26 C15.59 31.69, 28.9 16.93, 42.56 1.22 M3.59 52.15 C20.13 31.45, 36.37 16.06, 47.55 1.58 M3.59 52.15 C21.02 32.63, 38.21 12.27, 47.55 1.58 M6.61 54.77 C24.04 36.7, 40.3 17.24, 53.19 1.19 M6.61 54.77 C21.36 36.27, 35.59 20.45, 53.19 1.19 M10.94 55.89 C20.64 45.29, 32.58 34.98, 58.18 1.55 M10.94 55.89 C26.74 36.69, 44.32 16.68, 58.18 1.55 M15.28 57 C26.73 40.88, 41.41 25.65, 63.17 1.91 M15.28 57 C25.93 44.48, 37.12 32.83, 63.17 1.91 M20.26 57.36 C31.58 44.06, 42.13 29.62, 68.81 1.52 M20.26 57.36 C37.87 36.87, 53.57 17.38, 68.81 1.52 M25.91 56.97 C43.55 35.5, 65.03 12.32, 73.8 1.88 M25.91 56.97 C44.45 35.42, 63.04 15.5, 73.8 1.88 M30.89 57.33 C47.11 37.96, 63.63 19.85, 79.44 1.48 M30.89 57.33 C46.88 38.53, 63.87 17.95, 79.44 1.48 M36.54 56.94 C46.46 42.24, 57.17 29.52, 84.43 1.84 M36.54 56.94 C47.71 44.68, 59.58 31.96, 84.43 1.84 M41.52 57.3 C61.11 35.55, 77.41 13.8, 90.07 1.45 M41.52 57.3 C57.09 37.35, 75.52 18.4, 90.07 1.45 M47.17 56.9 C67.5 33.64, 84.31 12.37, 95.06 1.81 M47.17 56.9 C57.62 44.15, 68.72 32.28, 95.06 1.81 M52.15 57.26 C61.02 47.13, 70.8 36.42, 100.7 1.41 M52.15 57.26 C64.19 41.75, 79.46 25.74, 100.7 1.41 M57.8 56.87 C67.34 44.62, 80.1 28.53, 105.03 2.53 M57.8 56.87 C70.85 43.02, 82.18 28.55, 105.03 2.53 M62.78 57.23 C74.83 42.12, 86.91 27.99, 109.36 3.64 M62.78 57.23 C76.63 40.27, 91.99 22.79, 109.36 3.64 M68.43 56.83 C77.91 44.5, 89.97 31.85, 112.38 6.27 M68.43 56.83 C79.4 43.09, 91.78 30.84, 112.38 6.27 M73.41 57.19 C85.42 42.22, 99.51 26.32, 113.43 11.15 M73.41 57.19 C81.54 47.58, 90.09 37.72, 113.43 11.15 M79.06 56.8 C90.09 47.61, 97.35 34.62, 113.83 16.8 M79.06 56.8 C88.8 46.6, 96.66 37.16, 113.83 16.8 M84.04 57.16 C90.14 46.85, 98.97 40.02, 113.57 23.2 M84.04 57.16 C94.15 45.67, 103.06 35.54, 113.57 23.2 M89.69 56.76 C99.17 45.4, 107.72 34.7, 113.96 28.84 M89.69 56.76 C94.87 50.44, 99.97 44.18, 113.96 28.84 M94.67 57.12 C99.92 49.54, 109.33 40.85, 113.7 35.24 M94.67 57.12 C101.41 49.53, 107.14 42.93, 113.7 35.24 M100.32 56.73 C103.64 49.82, 110.73 47.32, 113.44 41.63 M100.32 56.73 C103.34 52.64, 106.54 49.87, 113.44 41.63 M107.93 54.07 C109.68 51.3, 112.81 48.76, 116.46 44.26 M107.93 54.07 C109.24 51.88, 111.72 49.83, 116.46 44.26" stroke="#228be6" stroke-width="0.5" fill="none"></path><path d="M13.97 0 M13.97 0 C41.25 1.31, 70.42 -0.1, 99.42 0 M13.97 0 C33.19 -1.54, 52.19 -0.31, 99.42 0 M99.42 0 C108.57 -1.75, 115.19 5.12, 113.39 13.97 M99.42 0 C109.73 0.86, 113.31 3.61, 113.39 13.97 M113.39 13.97 C111.45 22.28, 113.58 31.21, 113.39 41.91 M113.39 13.97 C113.66 25.4, 113.57 36.1, 113.39 41.91 M113.39 41.91 C114.63 52.84, 109.84 56.07, 99.42 55.88 M113.39 41.91 C112.45 51.88, 110.26 54.46, 99.42 55.88 M99.42 55.88 C69.46 54.95, 41.04 53.55, 13.97 55.88 M99.42 55.88 C69.23 56.29, 39.59 55.81, 13.97 55.88 M13.97 55.88 C3.74 55.64, 1.17 51.18, 0 41.91 M13.97 55.88 C3.47 56.98, 0.54 49.6, 0 41.91 M0 41.91 C-0.17 34.01, 0.83 23.55, 0 13.97 M0 41.91 C0.31 33.88, 0.91 24.86, 0 13.97 M0 13.97 C0.68 3.42, 3.65 1.37, 13.97 0 M0 13.97 C-0.01 3.44, 3.51 1.14, 13.97 0" stroke="#495057" stroke-width="1" fill="none"></path></g><g transform="translate(15 431.16246335299456) rotate(0 51.69278475457344 10.5)"><text x="51.69278475457344" y="17" font-family="Cascadia, Segoe UI Emoji" font-size="18.13781921213104px" fill="#495057" text-anchor="middle" style="white-space: pre;" direction="ltr">Model A</text></g><g stroke-linecap="round" transform="translate(266.58269358739824 412.2459854332892) rotate(0 56.69278475457344 27.938086778664)"><path d="M3.72 3.23 C3.72 3.23, 3.72 3.23, 3.72 3.23 M3.72 3.23 C3.72 3.23, 3.72 3.23, 3.72 3.23 M1.49 11.89 C3.51 9.06, 4.67 7.72, 9.36 2.84 M1.49 11.89 C4.45 9.18, 6.41 6.63, 9.36 2.84 M1.23 18.29 C2.52 14.01, 8.26 12.45, 15.66 1.69 M1.23 18.29 C5.4 12.86, 9.7 8.6, 15.66 1.69 M1.62 23.94 C7.64 15.31, 16.41 9.92, 21.3 1.29 M1.62 23.94 C7 19.38, 10.32 13.65, 21.3 1.29 M1.36 30.33 C9.69 22.62, 19.41 13.87, 26.29 1.65 M1.36 30.33 C9.56 21.03, 18.03 11.03, 26.29 1.65 M1.75 35.98 C8.98 26.99, 19.3 16.95, 31.93 1.26 M1.75 35.98 C13.73 23.45, 24.67 8.7, 31.93 1.26 M1.49 42.37 C11.88 28.45, 25.43 12.43, 36.92 1.62 M1.49 42.37 C10.45 30.75, 21.27 19.99, 36.92 1.62 M2.54 47.26 C13.47 37.62, 22.7 23.99, 42.56 1.22 M2.54 47.26 C13.39 34.9, 25.42 21.4, 42.56 1.22 M3.59 52.15 C15.21 40.36, 29.72 25.45, 47.55 1.58 M3.59 52.15 C16.18 37.44, 29.24 23.95, 47.55 1.58 M6.61 54.77 C24.78 35.31, 41.55 15.95, 53.19 1.19 M6.61 54.77 C23.72 35.26, 40.85 13.71, 53.19 1.19 M10.94 55.89 C31.14 36.43, 48.64 13.76, 58.18 1.55 M10.94 55.89 C26.41 37.88, 40.84 22.17, 58.18 1.55 M15.28 57 C35 34.36, 51.46 14.81, 63.17 1.91 M15.28 57 C33.31 37.59, 49.03 16.79, 63.17 1.91 M20.26 57.36 C35.77 36.94, 55.29 19.98, 68.81 1.52 M20.26 57.36 C38.39 35.37, 58.83 13.43, 68.81 1.52 M25.91 56.97 C39.28 41.96, 50.8 30.1, 73.8 1.88 M25.91 56.97 C41.42 40.42, 56.08 22.9, 73.8 1.88 M30.89 57.33 C46.33 40.01, 61.77 23.57, 79.44 1.48 M30.89 57.33 C47.45 37.3, 64.68 17.58, 79.44 1.48 M36.54 56.94 C54 34.27, 73.76 13.95, 84.43 1.84 M36.54 56.94 C50.17 42.52, 63.52 26.45, 84.43 1.84 M41.52 57.3 C59.5 34.5, 80.56 13.79, 90.07 1.45 M41.52 57.3 C57.6 40.23, 72.54 23.48, 90.07 1.45 M47.17 56.9 C63.97 35.87, 81.11 15.74, 95.06 1.81 M47.17 56.9 C62.84 39.43, 77.05 21.36, 95.06 1.81 M52.15 57.26 C62.36 45.7, 73.95 32.82, 100.7 1.41 M52.15 57.26 C71.65 35.97, 88.1 16.62, 100.7 1.41 M57.8 56.87 C67.56 43.37, 77.56 34.71, 105.03 2.53 M57.8 56.87 C70.25 41.76, 82.93 27.51, 105.03 2.53 M62.78 57.23 C81.77 34.89, 99.91 15.81, 109.36 3.64 M62.78 57.23 C79.09 38.43, 95.58 19.09, 109.36 3.64 M68.43 56.83 C84.82 38.35, 102.29 19.31, 112.38 6.27 M68.43 56.83 C77.69 47.62, 86.83 35.54, 112.38 6.27 M73.41 57.19 C88.16 39.52, 102.64 23.67, 113.43 11.15 M73.41 57.19 C83.37 45.71, 92.65 34.15, 113.43 11.15 M79.06 56.8 C89.27 43.09, 99.04 31.06, 113.83 16.8 M79.06 56.8 C89.22 45.18, 99.67 33.04, 113.83 16.8 M84.04 57.16 C91.85 48.87, 99.12 39.37, 113.57 23.2 M84.04 57.16 C94.39 45.36, 104.86 33.33, 113.57 23.2 M89.69 56.76 C93.67 50.49, 98.23 44.36, 113.96 28.84 M89.69 56.76 C95.25 49.5, 101.9 44.25, 113.96 28.84 M94.67 57.12 C101.95 49.71, 108.32 43.32, 113.7 35.24 M94.67 57.12 C100.84 50.29, 107.26 42.2, 113.7 35.24 M100.32 56.73 C105.07 53.86, 106.5 49.69, 113.44 41.63 M100.32 56.73 C105.24 51.62, 110.07 44.89, 113.44 41.63 M107.93 54.07 C111.34 50.53, 113.35 45.68, 116.46 44.26 M107.93 54.07 C111.2 50.5, 114.34 47.2, 116.46 44.26" stroke="#fa5252" stroke-width="0.5" fill="none"></path><path d="M13.97 0 M13.97 0 C38.82 -0.64, 64.65 0, 99.42 0 M13.97 0 C45.29 1.09, 77.06 -0.07, 99.42 0 M99.42 0 C110.53 0.47, 114.25 5.41, 113.39 13.97 M99.42 0 C108.65 -1.04, 113.4 2.71, 113.39 13.97 M113.39 13.97 C113.58 24.07, 114.94 32.1, 113.39 41.91 M113.39 13.97 C113.85 22.04, 114.13 30.17, 113.39 41.91 M113.39 41.91 C114.5 51.42, 107.92 56.45, 99.42 55.88 M113.39 41.91 C114.91 49.8, 109.94 57.07, 99.42 55.88 M99.42 55.88 C83.19 54.23, 64.2 56.92, 13.97 55.88 M99.42 55.88 C74.42 56.16, 47.71 56.11, 13.97 55.88 M13.97 55.88 C5.83 55.84, -1.03 52.18, 0 41.91 M13.97 55.88 C5.2 54.26, 1.05 51.68, 0 41.91 M0 41.91 C0.9 35.28, -0.16 26.76, 0 13.97 M0 41.91 C0.82 35.44, 0.25 29.91, 0 13.97 M0 13.97 C-1.01 6.02, 4.65 -1.05, 13.97 0 M0 13.97 C-1.15 5.8, 4.8 0.14, 13.97 0" stroke="#495057" stroke-width="1" fill="none"></path></g><g transform="translate(271.58269358739824 429.6840722119532) rotate(0 51.69278475457344 10.5)"><text x="51.69278475457344" y="17" font-family="Cascadia, Segoe UI Emoji" font-size="18.13781921213104px" fill="#495057" text-anchor="middle" style="white-space: pre;" direction="ltr">Model B</text></g><g transform="translate(173.68123454087288 368.1237309209755) rotate(0 16.459195573908403 10.97279704927223)"><text x="0" y="17.945594098544554" font-family="Cascadia, Segoe UI Emoji" font-size="18.287995082120453px" fill="#495057" text-anchor="start" style="white-space: pre;" direction="ltr">...</text></g><g stroke-linecap="round"><g transform="translate(69.3965920459367 352.91767875892583) rotate(0 121.36843870081893 27.312368456415243)"><path d="M-0.47 -0.14 C21.5 1.7, 90.43 1.09, 131.05 10.21 C171.66 19.33, 224.34 47.06, 243.2 54.59 M1.49 -1.25 C23.32 0.33, 89.72 -0.98, 129.83 8.54 C169.94 18.06, 223 48.44, 242.15 55.88" stroke="#495057" stroke-width="1" fill="none"></path></g><g transform="translate(69.3965920459367 352.91767875892583) rotate(0 121.36843870081893 27.312368456415243)"><path d="M212.03 52.42 C220.76 53.08, 226.33 55.42, 243.32 55.89 M212.98 53.78 C219.42 54.69, 227.46 53.98, 242.59 55.53" stroke="#495057" stroke-width="1" fill="none"></path></g><g transform="translate(69.3965920459367 352.91767875892583) rotate(0 121.36843870081893 27.312368456415243)"><path d="M220.7 33.82 C227.25 38.85, 230.76 45.6, 243.32 55.89 M221.65 35.18 C225.94 40.91, 231.74 45.01, 242.59 55.53" stroke="#495057" stroke-width="1" fill="none"></path></g></g><g stroke-linecap="round"><g transform="translate(321.0133034538138 355.07439361618617) rotate(0 -120.41973715850168 26.279544375498517)"><path d="M-0.57 0.97 C-22.08 1.36, -88.61 -6.69, -128.78 2.23 C-168.95 11.15, -222.57 45.82, -241.57 54.52 M1.33 0.43 C-20.37 1.04, -89.2 -4.87, -129.78 3.81 C-170.36 12.48, -223.3 44.43, -242.17 52.49" stroke="#495057" stroke-width="1" fill="none"></path></g><g transform="translate(321.0133034538138 355.07439361618617) rotate(0 -120.41973715850168 26.279544375498517)"><path d="M-219.9 30.57 C-228.07 38.19, -233.86 43.17, -241.32 51.48 M-221.44 31.46 C-226.6 37.78, -234.35 44.38, -243.1 53.03" stroke="#495057" stroke-width="1" fill="none"></path></g><g transform="translate(321.0133034538138 355.07439361618617) rotate(0 -120.41973715850168 26.279544375498517)"><path d="M-210.75 48.93 C-221.86 50.59, -230.59 49.65, -241.32 51.48 M-212.29 49.83 C-220.31 50.72, -230.79 51.84, -243.1 53.03" stroke="#495057" stroke-width="1" fill="none"></path></g></g><g stroke-linecap="round"><g transform="translate(318.137727522609 250.11425959319877) rotate(0 -132.16917961852602 17.564785659894824)"><path d="M-0.33 0.92 C-14.87 2.24, -47.92 5.96, -87.66 8.7 C-127.39 11.43, -209.01 13.07, -238.74 17.32 C-268.47 21.58, -261.69 31.25, -266.04 34.21 M1.7 0.35 C-12.95 1.28, -48.43 4.48, -88.58 6.99 C-128.72 9.49, -209.63 10.77, -239.16 15.4 C-268.7 20.03, -261.39 31.44, -265.81 34.77" stroke="#495057" stroke-width="1" fill="none"></path></g><g transform="translate(318.137727522609 250.11425959319877) rotate(0 -132.16917961852602 17.564785659894824)"><path d="M-263.45 18.63 C-263.82 23.71, -264.11 27.04, -267.19 36.36 M-264.68 19.3 C-265.41 22.92, -264.8 27.13, -265.71 35.56" stroke="#495057" stroke-width="1" fill="none"></path></g><g transform="translate(318.137727522609 250.11425959319877) rotate(0 -132.16917961852602 17.564785659894824)"><path d="M-253.29 23.14 C-256.36 27.01, -259.33 29.15, -267.19 36.36 M-254.52 23.81 C-258.18 26.16, -260.5 29.08, -265.71 35.56" stroke="#495057" stroke-width="1" fill="none"></path></g></g><g stroke-linecap="round"><g transform="translate(65.08316233141466 249.39536561039768) rotate(0 142.8867380764842 22.32104446551648)"><path d="M-0.13 -1.02 C16.97 -0.38, 59.42 0.48, 101.75 3.86 C144.08 7.24, 222.98 12.3, 253.83 19.27 C284.67 26.24, 281.27 41.38, 286.82 45.66 M-1.65 1.07 C15.88 1.87, 61.39 1.91, 103.91 5.16 C146.43 8.4, 222.88 14.09, 253.47 20.51 C284.05 26.93, 281.97 39.51, 287.43 43.67" stroke="#495057" stroke-width="1" fill="none"></path></g><g transform="translate(65.08316233141466 249.39536561039768) rotate(0 142.8867380764842 22.32104446551648)"><path d="M268.69 30.04 C273.54 35.83, 277.99 38.43, 289.24 45.35 M270.48 31.65 C275.99 35.7, 281.46 39.13, 287.15 44.28" stroke="#495057" stroke-width="1" fill="none"></path></g><g transform="translate(65.08316233141466 249.39536561039768) rotate(0 142.8867380764842 22.32104446551648)"><path d="M280.31 21.86 C282.49 29.52, 284.27 34, 289.24 45.35 M282.11 23.47 C283.74 30.16, 285.37 36.29, 287.15 44.28" stroke="#495057" stroke-width="1" fill="none"></path></g></g><g stroke-linecap="round"><g transform="translate(70.11551893759531 150.90537615919402) rotate(0 124.73571023651198 17.25562853167412)"><path d="M-0.02 -1.02 C8.98 1.33, 19.41 10.4, 54.58 13.02 C89.75 15.65, 178.27 10.96, 211 14.71 C243.73 18.46, 244.26 32.3, 250.96 35.53 M-1.49 1.05 C7.3 3.72, 18.35 12.14, 53.6 14.61 C88.86 17.07, 177.17 12.68, 210.04 15.83 C242.92 18.98, 243.67 30.43, 250.86 33.52" stroke="#495057" stroke-width="1" fill="none"></path></g><g transform="translate(70.11551893759531 150.90537615919402) rotate(0 124.73571023651198 17.25562853167412)"><path d="M227.96 26.35 C237.07 28.3, 243.62 30.25, 252.58 32.89 M229.37 27.21 C235.06 28.86, 241.4 30.96, 251.28 34.38" stroke="#495057" stroke-width="1" fill="none"></path></g><g transform="translate(70.11551893759531 150.90537615919402) rotate(0 124.73571023651198 17.25562853167412)"><path d="M237.46 14.38 C243.18 20.46, 246.44 26.56, 252.58 32.89 M238.87 15.23 C241.93 20.18, 245.71 25.51, 251.28 34.38" stroke="#495057" stroke-width="1" fill="none"></path></g></g><g stroke-linecap="round"><g transform="translate(312.3864440247702 154.49991189091452) rotate(0 -121.20455022185763 20.115178443049444)"><path d="M-0.65 -1 C-22.61 0.76, -98.14 7.58, -131.42 10.29 C-164.7 12.99, -181.61 10.24, -200.31 15.22 C-219.01 20.2, -236.19 36.09, -243.61 40.17 M1.2 1.09 C-20.86 2.49, -98.29 6.24, -131.92 8.28 C-165.55 10.32, -182.06 7.83, -200.56 13.32 C-219.06 18.81, -235.89 36.81, -242.94 41.23" stroke="#495057" stroke-width="1" fill="none"></path></g><g transform="translate(312.3864440247702 154.49991189091452) rotate(0 -121.20455022185763 20.115178443049444)"><path d="M-231.43 21.25 C-233.71 28.34, -236.96 35.01, -243.08 40.55 M-229.94 19.22 C-233.86 25.23, -236.92 31.59, -242.31 41.67" stroke="#495057" stroke-width="1" fill="none"></path></g><g transform="translate(312.3864440247702 154.49991189091452) rotate(0 -121.20455022185763 20.115178443049444)"><path d="M-220.74 34.73 C-226.47 37.39, -233.18 39.68, -243.08 40.55 M-219.26 32.71 C-226.06 35.24, -231.87 38.12, -242.31 41.67" stroke="#495057" stroke-width="1" fill="none"></path></g></g><g stroke-linecap="round"><g transform="translate(190.89155094421028 62.48006701149279) rotate(0 64.9583074470977 17.794847914953152)"><path d="M1.13 0.06 C12.43 2.54, 46.6 8.22, 68.02 14.08 C89.44 19.95, 119.4 31.64, 129.65 35.23 M0.26 -0.96 C11.49 1.77, 46.22 9.22, 67.68 15.47 C89.14 21.72, 118.66 32.98, 129.02 36.55" stroke="#495057" stroke-width="1" fill="none"></path></g><g transform="translate(190.89155094421028 62.48006701149279) rotate(0 64.9583074470977 17.794847914953152)"><path d="M99.11 38.61 C108.09 36.76, 118.14 36.48, 129.61 36.28 M99.43 35.98 C105.79 36.04, 113.31 36.88, 128.13 37.02" stroke="#495057" stroke-width="1" fill="none"></path></g><g transform="translate(190.89155094421028 62.48006701149279) rotate(0 64.9583074470977 17.794847914953152)"><path d="M106.05 19.29 C112.69 23.67, 120.53 29.54, 129.61 36.28 M106.37 16.67 C111.16 21.17, 117.1 26.4, 128.13 37.02" stroke="#495057" stroke-width="1" fill="none"></path></g></g><g stroke-linecap="round"><g transform="translate(192.32933890981292 62.48006701149279) rotate(0 -61.055832003353856 15.338492175086685)"><path d="M0.32 -0.82 C-9.91 0.27, -40.25 1.45, -60.7 6.7 C-81.16 11.95, -112.39 26.46, -122.43 30.68 M-0.97 1.36 C-11.44 2.6, -41.97 2.97, -61.82 7.99 C-81.66 13.01, -110.27 27.27, -120.03 31.5" stroke="#495057" stroke-width="1" fill="none"></path></g><g transform="translate(192.32933890981292 62.48006701149279) rotate(0 -61.055832003353856 15.338492175086685)"><path d="M-100.02 9.93 C-107.05 16.45, -115.46 26.42, -119.35 29.54 M-97.98 10.09 C-106.67 17.01, -113.46 23.42, -119.49 30.63" stroke="#495057" stroke-width="1" fill="none"></path></g><g transform="translate(192.32933890981292 62.48006701149279) rotate(0 -61.055832003353856 15.338492175086685)"><path d="M-91.49 28.6 C-101.59 28.48, -113.03 31.8, -119.35 29.54 M-89.46 28.76 C-100.92 29.44, -110.54 29.64, -119.49 30.63" stroke="#495057" stroke-width="1" fill="none"></path></g></g></svg>